<mxfile host="app.diagrams.net" agent="Mozilla/5.0 (Windows NT 10.0; Win64; x64) AppleWebKit/537.36 (KHTML, like Gecko) Chrome/130.0.0.0 Safari/537.36 Edg/130.0.0.0" version="24.8.3">
  <diagram name="第 1 页" id="eRfx1xSF8X0B69rXRo-U">
    <mxGraphModel dx="2068" dy="1109" grid="0" gridSize="10" guides="1" tooltips="1" connect="1" arrows="1" fold="1" page="1" pageScale="1" pageWidth="4681" pageHeight="3300" math="0" shadow="0">
      <root>
        <mxCell id="0" />
        <mxCell id="1" parent="0" />
        <mxCell id="bjvPtfyX6Cg2sDrZolaP-2" value="表" style="rounded=0;whiteSpace=wrap;html=1;" vertex="1" parent="1">
          <mxGeometry x="74" y="234" width="120" height="43" as="geometry" />
        </mxCell>
        <mxCell id="bjvPtfyX6Cg2sDrZolaP-3" value="申请什么权限" style="rhombus;whiteSpace=wrap;html=1;" vertex="1" parent="1">
          <mxGeometry x="268" y="222" width="130" height="67" as="geometry" />
        </mxCell>
        <mxCell id="bjvPtfyX6Cg2sDrZolaP-4" value="" style="shape=image;verticalLabelPosition=bottom;labelBackgroundColor=default;verticalAlign=top;aspect=fixed;imageAspect=0;image=data:image/png,iVBORw0KGgoAAAANSUhEUgAABUcAAAONCAIAAAAqHkZFAAAgAElEQVR4AezdCXwUVaLvcWXPOHfmzvjeu/fOwoje0XsddRxFYUZnjMvoLDqgKCoBFRc0CEYGFdkkbILsoCwi+5KwBgIkEAgEEgJhCZuBsO8kZO10Or1UVZN+dg6cKbuTTgippCv981MfP5XqqlOnvlV8qv51TlXdNHrKAu8weX6lw6hJ82o4fD5p7tVh4tzPGRBAAAEEEEAAAQQQQAABBBBAIIDAtRBdw9A9atK8SmP7TZVOHT15foBy/xXgRSUC1JKfEEAAAQQQQAABBBBAAAEEEECgWoFrIV8k7gCR3CfFV5Lq5cIz5sdtTc88cz7HVuYoLy/38B8CCCCAAAIIIIAAAggggAACCNSjQHl5ua3MceZ8ztb0zBnz42Rgl9n+e6l+1OSr/e1nzI/LOnqqHuvJqhBAAAEEEEAAAQQQQAABBBBAoBqBrKOn/pXtJ3v75F9N9TLPj5o0LzE5nZb5aiD5GQEEEEAAAQQQQAABBBBAAIGGECgvL09MTpeN9t5Ur4/0W9MzG6JWrBMBBBBAAAEEEEAAAQQQQAABBGoqsDU9UwT7m2S+F630NS2A+RBAAAEEEEAAAQQQQAABBBBAoOEERIv9v1L9jHkr6XjfcLuDNSOAAAIIIIAAAggggAACCCBwHQLl5eUz5q28muo/nzQ3K5vX410HH7MigAACCCCAAAIIIIAAAggg0LACWdmnvKn+80lzp89b2bBVYe0IIIAAAggggAACCCCAAAIIIHC9AjeJD9ynbN97vUsyPwIIIIAAAggggAACCCCAAAIINKyAN9WPnDjn9LlLDVsP1o4AAggggAACCCCAAAIIIIAAAtcrcNPnE+eOmDDbVua43iWZHwEEEEAAAQQQQAABBBBAAAEEGlbgphETZo+YMJu33zfsbmDtCCCAAAIIIIAAAggggAACCNRC4Gqqr8WSLIIAAggggAACCCCAAAIIIIAAAg0rQKpvWH/WjgACCCCAAAIIIIAAAggggEDtBbypfvj4WbUvgCURQAABBBBAAAEEEEAAAQQQQKCBBG4aMZ5U30D2rBYBBBBAAAEEEEAAAQQQQACBGxOoSPXjvrmxQlgaAQQQQAABBBBAAAEEEEAAAQQaQOCm4eNnDSPVN4A8q0QAAQQQQAABBBBAAAEEEEDgRgVI9TcqyPIIIIAAAggggAACCCCAAAIINJTATcPHfUNbfUPps14EEEAAAQQQQAABBBBAAAEEbkSAVH8jeiyLAAIIIIAAAggggAACCCCAQEMK3DRs3DfDxs5syCqwbgQQQAABBBBAAAEEEEAAAQQQqJUAqb5WbCyEAAIIIIAAAggggAACCCCAQBAIkOqDYCdQBQQQQAABBBBAAAEEEEAAAQRqJXDTsLEzh475ulbLshACCCCAAAIIIIAAAggggAACCDSkwE1Dx3xNqm/IPcC6EUAAAQQQQAABBBBAAAEEEKitAKm+tnIshwACCCCAAAIIIIAAAggggEBDC5DqG3oPsH4EEEAAAQQQQAABBBBAAAEEaitAqq+tHMshgAACCCCAAAIIIIAAAggg0NACpPqG3gOsHwEEEEAAAQQQQAABBBBAAIHaCtRTqk9O3dumbac2bTv1HfJlbatq7HKqpkWPmfWHv/f47eOv3f7Qi9t3HazJ+oZPmPuHv/f4w997iPmdLiUlfV9i8o7E5B2X84tECSnp+/qPmN5/xPSlqzfXpEzmQQABBBBAAAEEEEAAAQQQQKCGAg2W6mUeFqm4qv+/9PbAwqISj8cj7wuIuwPy/32HfDlj/ir5Z1UjNbmbMH/perl49JhZNRHsO+RLsUhy6l6Px5NXUPzIs+/qp3g8Hlm9mtShJitlHgQQQAABBBBAAAEEEEAAAQSEQIOlepmHZZCudOSRZ9/NKyiuw1S/fdfBqu4g/Pbx12Qd7nj4pfZ/fafSOfXN+HIrSPX8i0IAAQQQQAABBBBAAAEEEKh/AfOl+jvbv/yHv/f4zR+7iAQ+dupi2Rj+mz928cnhMqjLdvKq2vxlnq92RAR4satI9fV/yLJGBBBAAAEEEEAAAQQQQKAeBPZ/e2zekoQz53Nqsq4z53PmLUnY/+2xmsxct/MYnupfenugeFhdpGWRyf/6yj937TucV1B8Kbdg9frUI8fP5hUU64elqzeL+Z/uHFVsKdW31Yt8Hj1mVpu2ncQD8DLVz5i/ykdHZvhKU327v7ztcxegqj/b//WdOx5+SVQpOXVvqc0+esrC/iOm//EfkWJit/eHDh07O/Pg0Zr0wD9+6sLxUxd8qsqfCCCAAAIIIIAAAggggAACwSMwb0nCYx16dv9gxMWc/MC1upiT3/2DEY916DlvSULgOY341Zvqo7+YYUTRokyZckX6Ff+/+9Eu+w4dW7h8w4N/7l7pq+nGTl0s5oz8ZKymuX1SvbW07B/dPmnTtpPI/DLVj58eq781kFdQvHJdiijHP9XLvv1y2y9cyhs6dnb/EdOHjp194VKenO7xeMrszld6fCaKSk7dq39+Xkxs07bT3Y92SU7dK7dXNunL6ok6XMzJf/z5Xo8/36vaI0NfAcYRQAABBBBAAAEEEEAAAQTqU+DM+RyR1Xv0HS0eDK907XkFxT36jhb5v4YN+5WWU+uJDZnqIz8ZKyLx1Dkr9RvgUtQ3o0b6/KRvdf/2yKm7H/X2wB8yZlZ5ebmMzTJg+4/IVH/k2BnxRvrRUxaW2uz69cpi7360y7dHTul/cinq1/NXiwWPHDtT61RfYrV1eW+IqF5EZLTVVqZfC+MIIIAAAggggAACCCCAAALBI3AxJ18k9shPxhZbrP4VK7ZYe/Yb91iHnj36jm6ohlvDU7340tv7n44XUbbzO4MSk3ds3Lq7xGpbvDJJTHylx2dldqcEOnfx8sPPvC072Ivp+lQvF9y0bY/+JfP+YV5Okane4/HYHa5e/cf7d7Z/8M/d5fwP/rm7/wy9+o+3O1wej0d+wa7zO4PEIqOmLNi4dfexU+dlW/1vH3/tD3/v0av/+Akzloh53vrw84jIaLmK/iOmq5omt5oRBBBAAAEEEEAAAQQQQACBYBP4rj945CdjH+vQ84OBE30ahktt9qhBEx/r0LNnv3EBGvON3iLDU73H49G3vevT9dGT5+4L7yb6ruvbxtcmbRfR99Hn3pNffZepvveACaKRX/4q2+qjBk4S34qX/x81ZYEoSr9efXd6mbFrMuJz98Hj8QR4W54o8JUen42bFuNfeL/hU50uxei9S/kIIIAAAggggAACCCCAAAI3KFBssX4w0Jve+w6ZInOc06X0HTLlsQ49owZNrLQZ/wZXWvPFb4r+Yoahz9V7PB7Z9t6mbaeogZPOXsgtLy8XLd6v9xouEu+kmUtFpZ0uRU78eOhXYk79c/X/6PaJaMl/u88oRfW2dctUX5O35fk8JP9ct49Fv/r+I6b3+OiL2x96UfQR6PHRF3L6c90+lhFd36eg1ql+0KivaaWv+THKnAgggAACCCCAAAIIIIBAwwqU2uwiw386YprbfcXtvvLp8Gki5/s04Nd/Pesj1c9ful42Vt/+0Iu3P/TiNwvjRVyXfenDO76fc7nQ4/HsO3TszvYvi2i9dcc+KSLb6r/rBv/x0K9EgasSt+lTvT6ii0ze7f2hYs6q2ur1NwKqeq5e3jUI0FY/YuK8yTOXZZ84K3vgj5qyIDF5x869WV/NXiE3v03bTiMnzSfSy93KCAIIIIAAAggggAACCCBgCgGnS/l0hDfJDx49c/DomY916Pnp8Gmy6b4BN8HwVG+1lT3/xqf6WCvGp82Nc7uvnL+Y1/6v74gpM+avUjVNPoH//Buf6l8mJ1N93yFfnr2Q2+4v3gfvxb0Ambr91yKnVJXq9Z32Z8xf9ev2ndu07fTr9p1nzF8lu/FHDZwkypGpXtW0M+dzFq9Mkl+2a9O20yPPvpuVfUqmev934Ldp2+nr+avd7isNuL9ZNQIIIIAAAggggAACCCCAQO0E3O4rIs+LbB8k4c7wVL9hS4bo1i6C8d2PdpEffp9b8Sm/STOXip8eeOqNbxbGy19FO7y01qd6j8cjl1q8MulGUr2M/TUZkaleturrl6o21UcNnCQfKJDbxQgCCCCAAAIIIIAAAggggIApBEI01Xd4rZ8++v7zsylfz1/dpm2nzu8Myi8s9ng8+uZ6OafMz3LX+qT6PfuzRbt65CdjZRf38dNjFy7fIArpM3iy+Hb9pdyCwaNnLli2XhZ142/L078pQKyu3V/enjxz2bmLlwO01Yv+AuXl5UFyR0eCMIIAAggggAACCCCAAAIIIBBYIMh74E8PXPsb+VW82U7G9b5DvlQ1bW3Sdn3v+kUrrn7iTsx2x8MvpWUc9FmpT6qXreUvvT1w7NTFYsEZ81edOH3h/ideb9O2U/u/vnP+Yp7d4RIP4d8X3u1A1nFRpj7V1+65evG9+jvbvyxeAdCmbSfR317/HXv/Hvgi1VtLy158a+BrvYYlp+7lAXufvcyfCCCAAAIIIIAAAggggEAQCgT/2/IMTPVvRo28/aEXPx0+TQRv/fPtclcVFVv/+so/ZfLv1X+8f2u2TPU9Pvri/MW8zydf/WTdI8++O2TMNzLVa5q794AJ4s83o0b+rUtfWWzH1z8VLye88VSvalpeQbHbfSXAl+2qSvUy+d/7WNcjx89KBEYQQAABBBBAAAEEEEAAAQSCUMAUX7YzMNVPnbPylR6fxW9IFenaP9XbHa4+gyfL7N2mbac7Hn5pTuw6n2AvU738sp1YxKet3uPxbN2xT/8kf5u2ne5s//Lkmcvk9wb0qV6/3mrH/Z8LuJFU/8iz7+YVeJ9B4D8EEEAAAQQQQAABBBBAAIHgFPjuye7IT8Y+1qHnBwMnylApqlpqs0cN8n7Hvme/cQ0Y7sTb8gxM9bv3Hdm5N0tmcp9Un5tXGBEZXWmc/uyLb+wOl9yvsoR3/jnqpbcHykUmzVwq35YnutM7XcrbfUbJGbr2HJqb5/1mnvyvflL9xpRdm9P2Tp65TD72L7b9yPGz9z7WtU3bTk93jiq2lMpaMYIAAggggAACCCCAAAIIIBBUAhdz8nv0Hf1Yh56Rn4wttlj961ZssfbsN+6xDj179B19MSfff4Z6mGJ4qne7r5SXl8tMLlO9231lzYa0+8K7yfj9WIeenwybKv8UH647ePiEUJAl/POzKeJTc3c8/NKoKQucLkX/XL2qaYeOnPxg4ERZzp3tX/56/mr9VwT1qV7/ifseH30hGvlvf+jFHh99Ib5433/E9Oe6fSxKq7atXv8WPVHUKz0+GzctRiwutl2+58+/tHrY36wCAQQQQAABBBBAAAEEEECgJgJnzud0/2CESOwBmuLzCopF8u/+wYgz53NqUnLdzmN4qhfVlZm875Avy8vL93973Ofd+M90/vDshdzy8vJvFsbLQC5G3v90vKWkVF/C8VMXcvMKXYrq8Xg0zR35yVgxp3x33d2Pdvl88gL5kbw2bTv97yOvjpqyQLyiz6WoX89fLUJ7Svo+CSrfwHf3o12+PXJKTk9J3ydm/nr+arFS8ZPTpbzea7hYdXLq3vLy8mlz43wqr0/1f/h7jwXL1nd7f6iYhw/dSWFGEEAAAQQQQAABBBBAAIFgE5i3JOGxDj27fzCi2kb4izn5Iv/Pq/h8ez1vSAOk+sNHT+ub6Nu07fTex2NKrDax5eXl5SvXpch83qZtp/4jpquapk/1eiP/0tq07XTvY10PHz29fM0WfbD/eOhXgd85X1Wq169OjOfmFbb/6zsywIu7AFZb2fNvfConilsJc2LWxiVs1U+U40tXb/YvmSkIIIAAAggggAACCCCAAALBILD/22PzliTUsPn9zPmceUsS9n97rP5r3gCp3uPxyAb5O9u/PHdJgs+L8Twez8HDJ8I7vt+mbafHOvS8cCnP4/FUlepzLheKOWVabvv0m4NHzxSvMZDl+DS/Vwpd81Sv78Mvv6Ln8XjSMg6K+wiPPPvu2qTt4iaC1Vbm/+6AN3qP0H/br9L6MBEBBBBAAAEEEEAAAQQQQACBwAINk+otJaXPv/Hpux+N8XmPnb6upTZ79JhZsas2iYlVpXqPxzN/6fo7Hn7ptV7DEjalW0p83z/ndCnzliYOHj1T09z68v3Ha57qPR6PfPv9o8+9J7vxa5p76pyVG7fu9rlP4XQpyal7osfM6j9i+qgpC9J3Hwrca8C/bkxBAAEEEEAAAQQQQAABBBBAwF+gnlK9S1G/+x5AXkGx/BKAqmnl5eX+Fapqin8Jck5V0+okJKuaVlBoySsoLii01EmBsoaMIIAAAggggAACCCCAAAIIIGCEQD2leiOqTpkIIIAAAggggAACCCCAAAIIhLgAqT7EDwA2HwEEEEAAAQQQQAABBBBAwMQCpHoT7zyqjgACCCCAAAIIIIAAAgggEOICpPoQPwDYfAQQQAABBBBAAAEEEEAAARMLkOpNvPOoOgIIIIAAAggggAACCCCAQIgLkOpD/ABg8xFAAAEEEEAAAQQQQAABBEwsQKo38c6j6ggggAACCCCAAAIIIIAAAiEuQKoP8QOAzUcAAQQQQAABBBBAAAEEEDCxAKnexDuPqiOAAAIIIIAAAggggAACCIS4AKk+xA8ANh8BBBBAAAEEEEAAAQQQQMDEAqR6E+88qo4AAggggAACCCCAAAIIIBDiAqT6ED8A2HwEEEAAAQQQQAABBBBAAAETC5DqTbzzqDoCCCCAAAIIIIAAAggggECIC5DqQ/wAYPMRQAABBBBAAAEEEEAAAQRMLECqN/HOo+oIIIAAAggggAACCCCAAAIhLkCqD/EDgM1HAAEEEEAAAQQQQAABBBAwsQCp3sQ7j6ojgAACCCCAAAIIIIAAAgiEuACpPsQPADYfAQQQQAABBBBAAAEEEEDAxAKkehPvPKqOAAIIIIAAAggggAACCCAQ4gKk+hA/ANh8BBBAAAEEEEAAAQQQQAABEwuQ6k2886g6AggggAACCCCAAAIIIIBAiAuQ6kP8AGDzEUAAAQQQQAABBBBAAAEETCxAqjfxzqPqCCCAAAIIIIAAAggggAACIS5Aqg/xA4DNRwABBBBAAAEEEEAAAQQQMLEAqd7EO4+qI4AAAggggAACCCCAAAIIhLgAqT7EDwA2HwEEEEAAAQQQQAABBBBAwMQCpHoT7zyqjgACCCCAAAIIIIAAAgggEOICpPoQPwDYfAQQQAABBBBAAAEEEEAAARMLkOpNvPOoOgIIIIAAAggggAACCCCAQIgLkOpD/ABg8xFAAAEEEEAAAQQQQAABBEwscDXVHz+dy4AAAggggAACCCCAAAIIIIAAAuYSoK3exLdkqDoCCCCAAAIIIIAAAggggECIC5DqQ/wAYPMRQAABBBBAAAEEEEAAAQRMLECqN/HOo+oIIIAAAggggAACCCCAAAIhLkCqD/EDgM1HAAEEEEAAAQQQQAABBBAwsQCp3sQ7j6ojgAACCCCAAAIIIIAAAgiEuACpPsQPADYfAQQQQAABBBBAAAEEEEDAxAKkehPvPKqOAAIIIIAAAggggAACCCAQ4gKk+hA/ANh8BBBAAAEEEEAAAQQQQAABEwuQ6k2886g6AggggAACCCCAAAIIIIBAiAuQ6kP8AGDzEUAAAQQQQAABBBBAAAEETCxAqjfxzqPqCCCAAAIIIIAAAggggAACIS5Aqg/xA4DNRwABBBBAAAEEEEAAAQQQMLEAqd7EO4+qI4AAAggggAACCCCAAAIIhLgAqT7EDwA2HwEEEEAAAQQQQAABBBBAwMQCpHoT7zyqjgACCCCAAAIIIIAAAgggEOICpPoQPwDYfAQQQAABBBBAAAEEEEAAARMLkOpNvPOoOgIIIIAAAggggAACCCCAQIgLkOpD/ABg8xFAAAEEEEAAAQQQQAABBEwsQKo38c6j6ggggAACCCCAAAIIIIAAAiEuQKoP8QOAzUcAAQQQQAABBBBAAAEEEDCxAKnexDuPqiOAAAIIIIAAAggggAACCIS4AKk+xA8ANh8BBBBAAAEEEEAAAQQQQMDEAqR6E+88qo4AAggggAACCCCAAAIIIBDiAqT6ED8A2HwEEEAAAQQQQAABBBBAAAETC5DqTbzzqDoCCCCAAAIIIIAAAggggECIC5DqQ/wAYPMRQAABBBBAAAEEEEAAAQRMLECqN/HOo+oIIIAAAggggAACCCCAAAIhLkCqD/EDgM1HAAEEEEAAAQQQQAABBBAwsQCp3sQ7j6ojgAACCCCAAAIIIIAAAgiEuACpPsQPADYfAQQQQAABBBBAAAEEEEDAxAKGp/oVaZ52Ud5hRZqJmag6AggggAACoSPAuTt09jVbigACCCDQCAQMT/Xtojy/ftM7tIu6IS5bmePpzlFhrcOf7hxlK3NUWpbbfWXF2pSklAz/X9/u83ngZTem7PpTh8i5seuspWVicavN/v6n4375u44vvjXA4XT5l+kzJfvE2Z/d99z/+Z+/vPruZ1XV0GcR/kQAAQQQQCAIBWp97t6ctvfX7Tt3e39omd3pdCm5eYVyOHz0dFzCVjEMHz+nZ79x6zami23fd+jYrXc9c+tdz+w7dKy8vLyo2CqX8h9xuhQpxrlbUjCCAAIIIBDKAoanehHpxf9vBLomqX7YuDlhrcN/cX+HI8fOHDx8ome/cXL4nz+8In7q0Xe0nDhhRqy8OPjnZ1PCWof/qUOkTPXl5eUfDpoU1jr8x3c8lZGZ5V/5pJQMWVTPfuOejfgorHV4WOvwh555Uz+9Z79xld5o8C+QKQgggAACCASDQK3P3Qmb0uU99M1pe3/wq8fFmbHS/7/Re3h5ebnH49Gnenm6r3SR706yCZuu3gvweDycu4PhaKEOCCCAAAINLhCkqT4r+1Tbp9/8dfvOcrjj4Rdvuc17cXDLbY/f8fCLcvqv23du+/SbWdmnPB7PxZz8+x9/Lax1+LMRHy1ZnVzVBYGcLpv9LSWljzz7bljr8L+9+s9b73pGzlDpiGhM8Hg846bFVDqD/8Rx02IafE9TAQQQQAABBGooUCep/tCRk//vf/8mz9pt2nZq/9d3evYbF/nJ2Lc+/HzukoRtO/drmrvWqZ5zdw33JrMhgAACCDR6gSBN9eK2vX88rnSKjNkej2f1+tQf/Orx/7zn2T37s/Vd+Lq8NySsdfhjHXqePHNRdueTDfXpuw/92+1P/viOp76aveJ6U71PmbJwMSLWS6pv9P+Q2EAEEECgMQnUItWXWG2DRn0tuq394v4OPfqO3v/t8d37jnR8vd/KdSnrN+/85e86PvDUG/mFlsNHT//svud+98TrB7KOi5v4v/xdR3F+/+XvOoZ3fP/I8bOHj54eMXHe4aOn5Vk1KSXjx3c8FdY6XHZ/49zdmA45tgUBBBBA4EYEgj3VPxvxkejN3qPv6F/c38GnF724etCnelXTViVus9rs1Xbh0/fiE134nuzUu7TMXnNN0VYvWyH03Qfk+I9u916CkOprrsqcCCCAAAINLlCLVJ+bV3hn+876m+/rNqYPHTs7rHV4m7adUtL33fOniO863I2dulg83fZsxEe2Mof/Tfw723deFr/5325/Un9y93g8sas2hbUO/9l9z2WfOCt8OHc3+HFCBRBAAAEEgkQg2FO9fHxOpnTZbd7j8Yjn93xO/ELW53U7Adrq8wqKRb99UbIoU39doh/Xr4tUHyQHMdVAAAEEEKhbgVqkev+2+pT0fXv2Z/+6fednIz7asz/7y1nLR09ZuGZD2q13PfPjO55atzG9qNh65nxO3yFTxD36H/zq8c7vDBo06usjx87c9fuXv7uPP2vRGrFd8k03jzz7rqWk1OPxcO6u2z1OaQgggAACphYI9lQ/8PMZ4n25MXEbfxveLax1+G/Du8XEbRQTB34+I6x1uEja+vv90WNniRfm6wO5/7hYcFn8ZvFT7VI9PfBN/Q+AyiOAAAII+AvUItWLQvRvyxNfn/E/+cop8ja9uEsu75trmvu1XsPCWoc/1+1j8Q0ameH/+dkUsSLO3f57jSkIIIAAAiErEOypXp77A4z4p/oRE+dNmBHr8yJ6/z/7Dply+NgZmf/F5YXPl3jkE31iJK+gWNU0cbjwtryQ/WfDhiOAAAKNW6AOU/2Pbn9KPpUmR/7P//xFvirf4XQ91+3jsNbh/3b7kx1e63fw8AmPxyNCu/wGjfjz325/Mn33IY/HI7vvyUI4dzfuA5KtQwABBBAILBDsqf6/7n1OXARU+g78/7r3OdlWX2wpXRa/WbTni+fYv1kYLy8g/Eee7NQ7v9Cyc2+WePuOvDK43h74tNUHPsL4FQEEEEDAdAK1S/UlVtuiFUlhrcP/4+6//alDZO8BE158a8CIifN87o/n5hXOjV3X8fV+Y6cudrqUjMx/nYjF23MyDx6VjfOv9RpmKSkV999l2z7nbtMdUVQYAQQQQMBQgWBP9df1XL28eS9SfVXPvYsmgjvbd87NKzx9Lue2B18QH9QVlws+H7r3aeHvO2TK2Qu5YpdUVb7+DgJvyzP08KVwBBBAAAEjBGqR6vXPwYkb7tt27pe94fw73ImzsKa5Iz8eI379wa8eF4/T3/OniIs5+dPnxYnP2b741gAxw7L4zWJjOXcbsdMpEwEEEEDAvALBnuoXrUgS9/hPnrn4WIeePl+nE20C8km8SlO9/jl88TT+G72Hh7UOF9cTlpLSzu8M6tF3tGyrzz5xVsxW6f/XJm0vtnjf08P36s170FNzBBBAAIHAArVI9dknzv7sPm8HOtHe/s/Pppw4faHaVL9735F//+8/i6VuveuZLdsze/QdLTrh5xdaHnjqDfFTWOtw8c58UW3O3YF3H78igAACCISaQLCnenk6DzASONVXtaBI9U6Xcvpcjmh1F231gZ+Wl+sqLy8/furCxZz8izn5h46c3Hfo2JnzOV/NXnHLbY//4e89jp48J25GnOepv4kAACAASURBVL+UN2nm0o0pu0LtwGJ7EUAAAQTMK1CLVO9wutJ3H5q3NFHeJfd4PGV255tRI3/wq8enz4srLy/3eDznLl6+97GuYa3DX+je3+F0XcotuOv3L//mj138P2Unnq4Xnel+euczO/dmSU/O3ZKCEQQQQAABBDweT+NM9T37jRs3LWb0lIU+bfsiaYvP54pULw4C/1T/4zueeqP3cH33e/HdHZnqxSN/P73zmblLEsQXehM2pSen7rnltsfDWof37DfOVubQNLf4Ku+jz71XVGzlgEMAAQQQQMAUArVI9WK79O/A93g85eXl46fHio70C5atP3M+55Fn3w1rHX7vY13PXbzs8Xg0zf3eR198szD+1ruekWdYUVT2ibN3P/qqvDX/1IsfXM4v0utx7tZrMI4AAgggEMoCwZ7qa9cDXzQURI+dJa8G/EcCp3r9r+L4EFcq8ppj3cb0sNbhdzz84s69WTLVi8uX/7zn2cTkHUPGfPPyO4M3bdvTpm2nsNbh3yyMD+XjjG1HAAEEEDCRQF2leo/Ho2pa7wET9GfhX9zfIfPgUalx7uLlzINH9ane7b6yZHXyrXc9I5b6YZsnxMiv23feeyBbLuif6jl3SxxGEEAAAQRCSiBIU73/PpDPzMtX4PrPU1pmf7JTb3Huf+KFXoNHz/T5vr3/c/WiEP8rg8Bt9aqmRURGh7UO/3DQpEu5BSLVT58X5/F4HE5XsaW0oNAimiO69owe+PmMsNbh9/wp4sKlPP86MwUBBBBAAIFgE6h1ql+9PlXfA9/tvpJ94myfwZNFRzZxgn6yU++ETen6LmziTXvivvmR42fFa3TEzOOnx17KLXjqxQ/En2Gtw6MGTRQvuOHcHWyHDfVBAAEEEGgogUaV6rOyT/3nPc+GtQ7/26v/vJxfpD/fl1htg0Z9/c/PpsyYv0q8fefJTr1Ly+zCXT+nGJdXDz4j4prj5JmLdz/6qviObmFRyQNPvu4zm/jzltseT07dc/LMxac7RyWn7nG7rzTUbma9CCCAAAII1FygFqle/7a8pztHnTh94S8v99GH+V/+ruNv/thFf7q84+EXT5656PF4ZKrftG3Po8+9J+a59a5n1m1MF0/jF1tKX+kxWEwXD+TLd9bW/J04nLtrfgAwJwIIIICAuQQaVaoXHeDf7vN5md3pc77XNPer736mv5j4ctZyuav8U/1/3vPsnJi1+tfgiyZ32QPf7b6SlX1K1TSPx5OUkvEfd/9NX3hY6/Af3f7UhBmxYga5IkYQQAABBBAIfoFapHpLSanopBbWOnzSzKXl5eXiLTa33PZ4x9f77dyb5XZfKS8vP3L8bI++o8VnXz8cNEmEdpnq9x06lpy6599uf/LldwZfzMnXQ6maNmFG7G0PvrDv0DExnXO33odxBBBAAIFQFjBNqtc097ad++MStm7buV/T3FXts/Lyctkkbitz5OYVFhVbxUVDidUm3paXm1doK3PoSxBfsxMli/GklAyH06Wf51JuQVzCVv2X7fS/Mo4AAggggECjEahFqi8vL9+5N2vTtj35hRZx2i0sKjl26nyld7fd7iunzl6Sb78rtpSuTdouzrCqpp29kCtK8PdUVE3+xLnb34cpCCCAAAKhKWB4qm8X5REXB+2iQlOYrUYAAQQQQMBkApy7TbbDqC4CCCCAQGgLGJ7qV6R52kV5hxVpoS3N1iOAAAIIIGASAc7dJtlRVBMBBBBAAAGvgOGpHmYEEEAAAQQQQAABBBBAAAEEEDBIgFRvECzFIoAAAggggAACCCCAAAIIIGC4AKnecGJWgAACCCCAAAIIIIAAAggggIBBAqR6g2ApFgEEEEAAAQQQQAABBBBAAAHDBUj1hhOzAgQQQAABBBBAAAEEEEAAAQQMEiDVGwRLsQgggAACCCCAAAIIIIAAAggYLkCqN5yYFSCAAAIIIIAAAggggAACCCBgkACp3iBYikUAAQQQQAABBBBAAAEEEEDAcAFSveHErAABBBBAAAEEEEAAAQQQQAABgwRI9QbBUiwCCCCAAAIIIIAAAggggAAChguQ6g0nZgUIIIAAAggggAACCCCAAAIIGCRAqjcIlmIRQAABBBBAAAEEEEAAAQQQMFyAVG84MStAAAEEEEAAAQQQQAABBBBAwCABUr1BsBSLAAIIIIAAAggggAACCCCAgOECpHrDiVkBAggggAACCCCAAAIIIIAAAgYJ1HeqdymaxWrPK7Dm5lty8hgQQAABBBBAIJBAbr4lr8BqsdpdimbQpUC1xXLu5ooFAQQQQACBmgvU/7m7/lK9qroLLbaCIpvNoThdmtPldikMCCCAAAIIIBBIwOlyO12azaEUFNkKLTZVdVcbwutwBnnuttqcdqfCiRsBBBBAAAEEaiJgdypWm7Pezt31lOpdipabbyktc7nUQNcuNQFiHgQQQAABBEJRQHWXlrly8y311mgvzt1WmzMUtWl4QAABBBBAoC4ErDZnPZy76yPVq6o7N99id6pcFiCAAAIIIIDAjQjYnWpuvqUeWuzFudtmd91IbVkWAQQQQAABBGx27015Q8/d9ZHqCy02byt9XdzqoBAEEEAAAQRCXKC0zFVosdVhN/tKiyq02GilD/Ejjc1HAAEEEKgrAavNaei52/BU71K0giIbHe/r6oCgHAQQQACBUBdQ3d4Tq5Evz7t67uZ2PAIIIIAAAgjUkYCh527DU73Farc5eL8ObxNAAAEEEECgzgRsDsVitVfaxl4nEy1WOw31oX7zqI6uYmFEAAEEEBACVpvTuHO34ak+r8DqdGnsSwQQQAABBBCoKwGnS8srsNZJgK+0kLwCK2+8r6udRTkIIIAAAgi4FLfdqRh37jY81efmW/iIHccxAggggAACdSjgdHlfQ1tpIK+TiRVv662zngV1uOEUhQACCCCAgHkFjDt3G57qc/Is5nWn5ggggAACCASnQE6egamec3dw7nRqhQACCCBgagHjzt2ketoiEEAAAQQQMJ+AcVcGHo+HVG/qq0YqjwACCCAQnALGnbtJ9ea7kgvOY5RaIYAAAgjUp4BxVwak+vrcj6wLAQQQQCB0BIw7d5PqSfUIIIAAAgiYT8C4KwNSfehcX7KlCCCAAAL1KWDcuZtUb74rufo88lgXAggggEBwChh3ZUCqD849Tq0QQAABBMwuYNy5m1RPqkcAAQQQQMB8AsZdGZDqzX7VSP0RQAABBIJTwLhzN6nefFdywXmMUisEEEAAgfoUMO7KgFRfn/uRdSGAAAIIhI6AceduUj2pHgEEEEAAAfMJGHdlQKoPnetLthQBBBBAoD4FjDt3k+rNdyVXn0ce60IAAQQQCE4B464MSPXBucepFQIIIICA2QWMO3eT6kn1CCCAAAIImE/AuCsDUr3ZrxqpPwIIIIBAcAoYd+4m1ZvvSi44j1FqhQACCCBQnwLGXRmQ6utzP7IuBBBAAIHQETDu3E2qJ9UjgAACCCBgPgHjrgxI9aFzfcmWIoAAAgjUp4Bx525Svfmu5OrzyGNdCCCAAALBKWDclQGpPjj3OLVCAAEEEDC7gHHnblI9qR4BBBBAAAHzCRh3ZUCqN/tVI/VHAAEEEAhOAePO3aR6813JBecxSq0QQAABBOpTwLgrA1J9fe5H1oUAAgggEDoCxp27SfWkegQQQAABBMwnYNyVAak+dK4v2VIEEEAAgfoUMO7cTao335VcfR55rAsBBBBAIDgFjLsyINUHyR4vKXUUFJXm5lka8VBQVFpS6ggScKqBAAIIGC1g3LmbVE+qRwABBBBAwHwCxl0ZkOqNvqqrtnyHU2v0eV5/q6KgqNTh1KplYQYEEEDA7ALGnbtJ9ea7kjP70Uz9EUAAAQRuXMC4KwNS/Y3vnRssIaQivYj3BUWlN4jG4ggggEDwCxh37ibVk+oRQAABBBAwn4BxVwak+oa9LiwpdejbsUNnnK74DXvgsXYEEKgHAePO3aZP9U7FXeZy2+pqcLrtLvNd29XDIcgqEEAAAQSCSsC4KwNSfcPu6BBsqKe5vmEPOdaOAAL1JmDcudvcqb7E6c4odo887X4zS+36rRYhhkNahBgOahEHtYgDWhc57Ne67Ne67PMOr+5Vu2Rq3mGv9uoe9ZU96qt7tdcz1ZHZ6sFi722Cetu7rAgBBBBAAIHrFTDuyoBUf737om7nD53Gef8trVtJSkMAAQSCTcC4c7eJU32Zy52Yp3U66P7dLu2/09XWqeovKoafb1N/vrViSFF/nqL+fIv68y3Kz7coP9us/Cz52rBJ+dlG5b/EkKT8V5LyXxuuDj9fr3Tcpe2wXCkNgmDfPWpkWOvwp176oLDYVs8HZWGx7amXPghrHd49amRVqx795aKw1uG/btf53MW8quap+XSxsWGtw8Nah4/+ctF1bXu1M9dtVWu+UVXNeSMbW1WZTEcAgZASMO7KgFTfsAeSf9YNnSkNK8/aEUAAAaMFjDt3mzjVn7a5ex7V7s/Q/jNV/VGKessW9ZbNFUOyekuy+oNNFcNG5Qcb1R8kKd5hg/qDDUrY+mtDohKW4B1arasY1iqt1iqt1rhaxbvaJCnjznkyLVccSgO32FcbVo078uo51a9enybyvPj/6vVp17Xt1c4cVKn+BjfWuJ1OyQggYCIB464MSPUNexiETob339KGlWftCCCAgNECxp27TZzq9xS7wzO1X6apP9yihm2uGJLVsE1Xh1YbVe+QpLRKUlttUFptUFutV1uuV1omXhsSlJYJSst1Sou1FcMapcUapUW8q/kq1y/XK0NOez4/6zlddsXoXRu4/GrDauDFjf61DqOyCLq33vVMRmZ2LapdLVQdVrUW1fNZ5AY31qc0/kQAgdAUMO7KgFTfsEeUf9atyZTNafvGT4sdNOrr8dNiN6ftq8kiQThPw8qzdgQQQMBoAePO3SZO9TuL3Q/s0v7vNvUHItUnq2E+qV5E+iTFm+rXe4erqf5anveL9EqL1UrzONcvE5TBpzyDT3lGnfGcNT7Yn7uY9+t2nWVL9egvF8njSYbV5LTMW+96Rszj0yU+IzNb/uTTGb4mi8t1+YxU2lavX9foLxfJqLz34FGxCfrKy+3ST/RZi/hT1FMKiK2QlZdPH+jXXtWWVjqzvqo1fFhAVl7Uyn8T9HX2eURC1rzSvaZfUD6/IBeptP6r16dJ6hrWv1JnJiKAQGMSMO7KgFTfsMdJLcL23CWJ3d4fqh/mLkmsRTkNvkjDyrN2BBBAwGgB487dJk71O4rdv81Qb916rZVel+orWulVbyv91Yb6ijwvG+qvpfoWoqH+aiu90iJeabHa1TzO9YsEZeApz8CTngEnPZPPl5+0XXEa1hVfn1RlrJW53ScByhlkyPTpyx3WOlzf3F3V4rL8AAeuf6r3X5eojwjYInbq823NW6R96llpqvdfu/+WyrX7z6yvaoCtFj8F3ik+gV+U7F8ZubPkiGCv3cZeV/2r3UBmQACBRiBg3JVBnaf6fYdO9BowYdLMZVab02Z35RWUyOHU2Zz03VliWLJ688wF8bLH1tGT57tHjeweNfLoyfNOl1ZQVCqX8h+x2V013KclpY5h4+dGREZPnRPns4jTpa1KTI2IjO7ac2j67iyfX+vtz+uN1tt2HNDneTm+bceB6y2qweevN2RWhAACCDSIgHHnbtOn+p/qU73ofr9RCfO20lc00VfaSl/R8b7lWlfLtS5v9/vvpXql+UrXL9YpA056+p/0fHrC+/+ZF8rPGdNiL5OzbHkWkU9GRJkARYyX84v4KuOliIvyVxnafRaX88vVBTiafUqTf8plZXIWU0QSljV3KW6xdpm0A6zLpbj9bwHoF5c1D7ylYl3VVjVwTfwXFzWRm+bzp6yb3FIxg3jn33cOcgYfOlmgj5V/BXyoA9efXxFAIEQEjLsyqPNUn5GZHREZPWz83JJSx75DJ7r2HBoRGV3VMGXWcqdLcylufaqXUbyqpTIys4ssZQtXJM1cEO8zbErdqz8kZFE+qd7uUJfGbxHld+059P3+E3oN+N6wfssufTnGjV9vtP7ymxUyyetHvvxmRQ2LOnE655Oh0/7nD6/86oHn73jopU+GTjtxOifAsucvFXwwYFL02Dk5l4tz8ywBFk/fnfX0y332HDgWoDT9T8apUjICCCAQDALGnbvNnOqL3PftVH+acq2tfpMa5s3zrlYbKob1rlbrXa0Srw0JSqsEV6t1rpZrnd5hjXdoEe9sGe9qGe9q4R2U5vFK81Wu5itdP1+n9D9Z/ukJT78Tnk+Oe7P9/EvlRc66f3OebBNevT5NHGer16fJ7CfDnn6Kvie2fxIWU+T8Il7KP12KW7944CNbZksRpGVVZTcBn+rJ+cUMMsrq5w+wRv9tEZUXUdn/10q3VMxcbVUDVMOluOXile6USrfLp3rVsvvMLyXrpP6Bt45fEUCg0QgYd2VgaKo/cebSW31Gydgc2W9c/xEzZi6I/3p+/FdzVm5K3Xvw8Cm7Q61Fqs8rKOk9YKJ/7PdJ75Wm+sJi2/gZsWLZyH7jZJ5/v/8EeQ9iTVJ6/Rw8+pRbk/ERE+fpw7wcHzFxXk0WP376Uqc3B97x0EsfDflq8cpNHw358ra2nTq9OfD46UtVLb4sPuXxjr0OZJ3OzbMEXjzncnH02Dndo0adv1RQVWn66fUjzFoQQACBhhIw7tzdKFJ9Rd/7HyUrn5/U0grcaQWad8jXUvPVlHztsyPKbZucrdY570txpRd5f91e4BbD2hz363tcP1njaLHa2WK1y/tQvTfVO3+21tX3WPknJzyfnPB8fLz8o+Oevsc8y3PKbXUd7P0DpM8Rpk+24id9LBfjsoO3HJGNwIEX91mXz58ypfukepl1/e8RiProc7j+hoJP+T5/Bg6617Wllarq3XxW7fNnpYvLeSr91WditeyBN9anNLHqmtdfVpURBBBo3ALGXRnUYaoX7ecjJs2PiIx+96Mx0+bEHTt14cjxc6O/XLR917e79x997+OxHw+dWlBUeupsTo+Pvvgo+qvjpy+ePHup37Dp7308VsTs9z4eO2TM7NPnck+dzVkav+XU2RzZA3/PgWOv9x4eERm958CxgqLSoWPn+AfyYePnVpr2ReE79hzetuPgW31GiY73G1J2X863yPLXJKWLVD9l1vKLuYV5BSX5hVZx08G4o0ufcmsyPn3eKpnk9SPT562qyeILliXd1rbTwuUb5cxzYxNve/CFBcuS5BT9yPHTl/7Wpe+Yr2LExGoX33PgWLu/vBOXmKovpKpx41QpGQEEEAgGAePO3Y0l1W9Sbk12Lb+olpSp54qdRwscRwsc5ywuq0MrtquTjzn/X0LZE9sdTpe7sEw9bXGdLHadsyplLne+XXt1h73FSnuLVU5vpI9zNV/h/OkqZ5e97r5Hy/se8w7/PFrep2KIzy23OOqyxb7S/KY/4ALnw+vKuqLYmofDWqR6sTninoKouXwWQL9RlY4HDrrXtaWVqtZ8wytdXNa50l99Jgbea9U+buBT2vXuOFlVRhBAoHELGHdlUIep3r/9PCMzO3bV5ojI6Mh+4w5kneozeEpEZHRcQuqsxWsjIqNHTJpfUuoQfe/1re69B0xM3XnwtV7DxGP2cs9uTT8QERnd46Mvzpy/7FLcTpd29OSFvIISl+IuspQN/PzriMjoWYvWBk71C5Zt0K8r8LhPBWRN6nCkqsRb1fRd+7L1YV6O79qXXdUi+un9R37d7i/vHDzsbXgXw+79R3/7+Gsyt8vpYmTBsqT7wrvt2HNY/Fnt4jmXi3v2G//y24PPXsj3Kcr/zzpkpCgEEEAgCAWMO3c3ilRf0ff+pxudyy+oxWXKN0dKnkspei6l+OU0S9JFZ6lDS77o+N/11ie2lTkU965c+7vpln9sKX55m2X1OYddcX99tKz58tLmKx3NVzm9qX6lq9Uy573rXW9lah8c0nof0npVDO8f0qKy3Gty3Na6a7GX+U12UxdTZHt44Hzon4R9jt3Ai/vM7PNnValeVlX2G9c3yMs1ilfiyw3xKdz/T/9tkUUVFtv8f/UpQT+zv2qlVfUpQf7pv7h+p9S8B77osyCK9bmn4L85dVh/uSGMIIBA4xYw7sqgDlO9f1v9gaxTR46f6zVgwohJ848cP7d2Y/qKdVt37DncPWrk672HZ2RmFxSVXswtmBOTIFr4u/YcOm567MIVSafP5YpwviFlt9izTpcm7gUM/PzrIkuZ1eb8as5KEePtDvW7pvXIfuMiIqPTd2ftOXBMvpMvZfv+vkO+ioiMHjp2TvrurNy8YovVPnTsHHFPQT6TP/DzmRGR0a/3Hj5l1nIxccqs5a/3Hh6EqT43z7J8zVYZ5sXI8jVb/TNzDafEJabe9uAL0+ZW0tR/4VLhG71HvvrukHMXq4zo/osvi0+5s/3Lm7burbYCjfvfLFuHAAIIGHfuNnmq36H+dEvFB+o3Kj9Nciy/oBSXKYP2Wlosy2+xvKDl8sLwzRa7S9t20X5PYvETKaUOxZ10vuw38QXNY/LDlhT03WtzKO6Fx8uaLylpvqKsedzVVN9smTNsmfOONc5/pCpv7lbe3q28tVt5a5f3/1H71ZRczeGqmxZ7mZxlMJaN0iIP68Oe+Gegz4cyYcomcZ/5ff707zMf4J+WrJsoXP4pu/eLaCq/zSaKkhN9pgdYkX5BWbjM4SIbX9eW1rCqVVVJLh54p8iqyrrJGF8te+BU718BqSqrVFXlmY4AAqEjYNyVQR2merE79G/LmzonLnBjuHipnktxr0pMi4iMlina7lAnf7M8IjL688kLSsucLsWdX2jtO+TLiMjoOTEJYkXrt+wSHekzMrPFSkUzfsXj3xfFPP7P1cspC1dsFOE/dedB0c7/4aDJKdv3i4lJW/e803e0rI9xR1q10Vc/w+lzl3fvO5qbZ9l38MScmITx02LnxCTsO3giN8+yM/NIgOytL0Q/Lp6Tf/DPb2ZWFKL/KTfPsvfg8Qee7D5q8iKf6fLPShffsefwPX/qOmH6EjlbVSPGqVIyAgggEAwCxp27TZ/qf7JZCdukhiV5U/2KC4rFrg7KtLRYUdgyztIyruSu9VanoqVetN+TUPTEZqtLcafmOB5OLPzRssL/iCuactRR5tK+PlLaPLa4+fKy5iuvpfoVrmbLnM1iHc0WVwyLHE0X2psudDRd6Gi1wPbylrIzJd7X89bJIFuG5VPxYa3Da54P5V0A/eKyhbzaeBlgE2S2lLcMZLbUr8snvcuIG9Y6XC4YYC3yp8BBV96P8Fl1VVtak6rKVfuPBN4p+m2U9dHn7WrZq91Y//q3fbq7D7V/tZmCAAIhJWDclUE9pPrXeg2TD8DLke5RI+Wr8kvLnJ9PXhARGf1ar2Gjpiw8ftqbyVN3HhTt51lHz8g/X+s17FD2abHrS0odooW/75Avv/hqkSht594j3aNGRg2cdCm30KW4ZYaXb9GTUwLfbhC/Bk+qv5RbvH7LrnHTloyZGrN8TUpW9lnxRvqcy8WHss8sid8yZmrM+OlLklMzq4rQ/tNPn8t796Mxt7XtFLMy2f/X3DzLhi27b3/oxWVVdASoavGjJy6EP/9+5CfjKi1TPzGk/gmzsQggEIICxp27G0Gqr2irT1J+ssEuUv3gfSUtVxa3jLe1XFN2V1KZU9HSchz3rPOmekVzi2fpL9vdBQ63ol0ptCuvp1oqUr2tItUrzVa6mq1wNVteEeyXOJvFeoemMRXDYkfT+bb/t7hk20WlDo9Cn5SoD8PV5kP9O9t9Plbv09wtKqxv6g+8Cf6p3mdd3aNGVlqaqHNY63AZuQOvSPxabdD1WbtsKheL+0Ppk3lVVQ1QsQA7Rb9GkerlXRj9T/qJPlDXtbFiS31KCFBzfkIAgRARMO7KoG5TfZGlbEvavojI6Lf6jBo8+ptZi9aOmbp4afwW+UY6ObJx257RXy6KS0i12V1ZR8+I1+CJLP3uR2OOnrwgG+cnf7O8yFImPjsv2/bFfj9y/Jy4OyAWXBq/JSe3SDy9P3zivOKSMpnhZaq3O9SDh0+l785K2b5/wowl8qX30+bGbd/1rWio377r228Wrnmrz6iE5J2FxTZDjzF9yq1q/PTZy7NjEsZMjdEPE2YsmRWTMH6GN+frhwXLks5eyKuqKDn9+MmLnd8edFvbTt8sWituEMif5MiyNVtve/CFNRvS5RQ5EmDxU2cvd3y9f8fX+586e1nOX+mIobAUjgACCDS4gHHnbpOn+nT1J5vVVhsr2uo3OFZcVErsqjfVx1larrG3XOu4a5Pdqbi35zjuFalevZJrUzJyHdsuOXZddlqc7hKn1n17STPZVr/S+1y9Lti7mi51Nl3iqhicTWOdTReWNZtrWX/O1eDHhNEVqDTV12SlImDr265rshTzBBYg1Qf24VcEQlDAuCuDOkz1Pu+96x418uDhUyKNV9ow3nvAxLyCErtDnTFvtZiha8+h4nH6PoOn5OZZEpMzRB/7MVMXixlSdx7U732nSxNv44uIjH6n7+hTZ3PETWGR1Veu22ax2kUFRKr3Rvojpxav3PTx0KmiwNd6DRs2YW7XnkO79hyavjvL6dKOHD83aJT3MfuIyOiJXy9t8HfgnzyTM2nmcn1ur3Z8xvz48xcDfVtuz4Fjj3fsddfvX1m+NtAD+cvWbL3r96+kbD/gk8kDL06q1x+ijCOAQCgLGHfuNneqv1em+g3KTzd4e+BbHergzJKWcSUy1btUd9olu0j1LvVK2iXH3zYW3B2f/8DawmnZdpd25ZujZVd74K9wXs3zK64113tb7F1Nl7maLq0YlriaLipr6k31ddlWH5xHtmys1vcdqLaqsoX8upaqttiQmkHKyzsjtb7DElJubCwCoSZg3JVBHab6M+cv9/joC5GH3/1ozJyYhPOX8qtN9UeOn3u99wixVPeokfu/PTltTpzohF9QVCrj6PTaogAAIABJREFUt3xnvs+uz80r/nDQ5IjI6L5Dvswv9D58Z3eosxZ537H/Wq9hu/cf1ad62dW/a8+hIyfP377r25NnL038eqlce9TASWL8tV7D5i1JFC/Y91lj3f7pE5j9/5y7JLHaGO8/w4p12/yLElNSdx566Jm3HnrmrdSdh6qaR0yvtK2+2sVJ9XV7hFAaAgiYV8C4c3ejSPVJalhFql95QSl1aMMOWFuuED3w7S/vcji9qd5xz9qiJ5KtLs296YL9N/H5zRfnh8UUfLjHpmhXFp0oaxZT3HxZWfPvpXqlohP+9yP9ElfTxfbGkepl/JZPhutHfnTHU/LPGnak1xfo0z1e/5MsVo74zGz0v9KgqkxVGyufYpBKYqSG+6KqYpmOAAKNScC4K4M6TPWlZc5D2ac3pe6VD8y7FLd4WX3XnkMTkzOcLu97amQn+S++WlRa5szNK+49YOKHgyb7f8pOPE4vGt7f+GBk1rGzPvvU6dJWrtsmcnhEZPTc2ESxiku5hcMnzjuQdcqnrV6s/fS53Pwi6/Zd3w4aNVO8df9A1qleAybIciIio0XdfFZnxJ+Bc3VuniUuIdU/tFc7JS6h8i/G7z908tFn33v02ff2HzpZ7arFc/WxcZvlnDVZnOfqjThOKBMBBMwoYNy52/ypPlltlaS22qD8ZINj5QXF7tIyC1xzTrnmnHYtOa9ZXVfKXFr8mbL/ji98PNmquq9kFrhe2lbyYKLl0STr0rMum0v74qC1uX+qX+59tP57rfTefvjOJovsTeZaEs3fVh843P6wzRMiRta8yV1foE/41P/kE1P93wVg9L/PoKpMgI0VXe4lVz3f+whQMX5CAIEgETDuyqAOU72w0r8DX3xVflViquhIvzlt38XcAvHC+T6Dp+TkFomm9RnzVq/fsqt71Eift9OdOX9ZNp6Lr9P5NJ4fyj6tfyC/a8+h+w6d0O8yn+fqrTbn0vgt8oP2/UfMOHj4VEZm9lt9RolI/37/CVnHzoon81clpop7BPoC63xcBuaqRo6dujh2Wmy1MV4/w9hpscdOXay0wE+GTvvVA893fL3/BwMm6YeVld0FOHj49IN/fvOzL2aLonIuF9dkcfEO/Eo/ledTpTrHpEAEEEAgqASMO3ebPNVvV3/iTfVKq/XKT9c7lp33vgPf4vAOJQ7V6tAsdvXbfMc76ZYfLSt8fLPVobpLXVqJUytxuktdbotD3XbR/vuE4maxFm9b/XKn9z154lV5/n3vl7iaxjqbLCprMqcxpPqgOr6pDAIIIIDA9QoYd2VgdKrXd4mXjeHifXgSISe36OjJC/pU73Cq23YclG/C6/b+MLFsrwETsk+cFwsePXnh3Y/GRERGR/Ybt/fgcfG9+o+HTi0oKpUl+6R6l+JO2b6/2/vDps6JO3U2J+voGfEIfd8hX65M8Lb5i9sKKdv3y9sQRgd7n6Bb6Z9pGYf0ob3a8bSMKrvWhz///q8eeN5/GPNVjP+qxffqX3578NkL3u/Vi0Z4/2V/9cDz+sXnLVlf6dP4/uXL3cQIAggg0CgFjDt3N4pUv8Gb6m9JcLyUYf84s/TjPSUVg/XjPdY+uyzPbCr6vysKWywtbr3GOmB/2Sd7Sz/ZY+231/rxnpL3dpS0Syj6QWxR8yXW5svszUSqr2ilv9pQL56or3hbXpNYZ5NYF6m+Uf4DY6MQQAAB0wkYd2VQ56k+ffdhfQ98h1M9c/7y7Jh18m3zotU9IzNbH7/Fm/ZEqD59LvezL2bJWwCrElNz84qHjp0jp8xevC77xPn3+3v7zIu33LkUt/h8/aBRM89fyj+UfVq8zX71+jTRmK9/B35+oXVDym7xNH5EZPTsmHUWq11UW7T22x3qtDlxYnULlm0oLXMad8D4Z91KpySnZlYb5sUM1/Vxu0rXpZ8YG7f5/ide374rSz8xwPiFS4Vv9RklbwQEmDM3z2KcKiUjgAACwSBg3Lm7caR6tdV6pVWC85Y1Zf+2yvLD5UU/XF7oHZYV3rKssOXSohbLSlqssLZcYfvhipJblhXfsqTwliVFt8QWtYot8va9jy2paKh3NFvh9D5LLwb5hryl4gX4rqaxriYxriYLaat3B8M/CeqAAAIIhLiAcVcGdZjq9W/LGzZ+rvdVeRWvl5dp/L2Px8osLSa+33/C+Uv5LsUtU33mwRPyFfTdo0ZmZGaL1vLCYtv4GbFiqS++WmSx2sVb7mQ/+eKSsozMbPHK+sUrN8mVipFViWkuxZ17uVj/+r2en45/q8+oT4dPHzVlobjpIL6H550zzyKeFFiwbIOhr8EPnHv1v+7alz1t3uoA2X7avNW79mXrF7nx8eOnL/2tS9/hE+bVsKjtu7Luf+L1OO+NGEu1Q4j/o2bzEUCg0QsYd+42eapPU3+ySWnlbatXWyW6Wq51tIwva7nK2mLl1aH5cmuLlbYWcWUt4uwtVtlbrCxrvry0+TJr86VWb/v8UmvzpTYR6b2vyrvW977psopX34v33otUH+vyNtTHOJsstNMDv9H/e2MDEUAAgeAXMO7KoA5TfZGlTCThiMjo+A3b5WfnuvYcOvrLRVnHzjqcqtOlnT6XO21O3Gu9vJ3qZy1eK0K7TPVHT57fd+jEa72GjZse69Oca3eoq9enRfYbd/SktxP+iTOXkrbuqbSHvGh4l8F+yBjvk+HiIf9Zi9d27Tl06py40+dyC4pKZYUjIqPnxCRYbf9qls/NsyRt3WNopBe3D6pNv/oZUrYfmBvr+1b8ubGJ/t+f0y91I+PL4lMe79jrQNbpagvJuVwc7e1SMVT02K92/uD/d0cNEUAAgRsRMO7cbeZUX+i+91qqb7leaZWotEpwtVzrbLnG0TLe0TLe3iLeUTE4W6y+NqxytohztFjpaL7CfnVY7mi+3KmP9N6+90udVz9ld62hviLSi1RPWz1t9QgggAACDS9g3JVBHaZ6p0vLOnY28+CJgqJSEbYLikvPXrhcaTB2ONULOQXy7XeFxbade4/s3HuksNhmd6iXcgsrjesuxV1mV6r6SV572R1qfqE1r6Akr6BEVkb8WmZX9PU5cvxc+u6sHXsOy5rIQupnpNroW+kM5y4WHD569kDWqcNHz54L+Gn6She/ronnLxV8MGBS9Ng5OZeLAy+YvjvryRc+SN9d0+769SPMWhBAAIGGEjDu3G3+VL/R+1B9y/VKy0SlZULFsE5puc7Vcq13aLFG8Q7x3qH56ophlav5KlfzuIphpetfH6iXL73//gfqm8Q6vX3vRff7GFeTBWVNZhv7tjz5Ip+MzOxqD7ipc+KGjZ9bUuqodk79DBmZ2b0HTPS5Xql0olgqwE/6YgOP5xWU9B4wUfR49JlTbHKlP/nMWes/p86Jk49Q1roQFkQAAQSCR8C4K4M6TPXBw2WimgTOyY37VxPtJqqKAAII1ELAuHO36VP9v29Ur0b6a6m+xTrFO6ytGK6l+ubeVO/yDqsU7xDnahbnau6X6pt9P9I39b73XhfpFzvrIdWvSkwTXQRrEtdFB0V9HhbhWXYyFCPiBsHUOXFiTpnSvwv2nw6fLjourkpMqyr3yvldiltWz2cV1dZ5VWKavJVw9OT5XgMmiPW6FHeAVB94dWKlstgA/7RI9QFw+AkBBMwoYNyVAam+YY+Hxp3bA29dw8qzdgQQQMBoAePO3SZP9anqv2+saKVPVO7bpr6+X+u2r2LI1LpVDF33qt33aRF71K57Ne+wR4vYrUbsVrvtVl/frXXdrXXd5R0iMtSIDK3LTvW1DMU7vlPtskPpskP1Dulq1x3q3esU76vyRKqfZWBbvQixGZnZIpxXGrPFh38rDdXiNUK9B0yU7fwyP5eUOs5dzBs2fm5GZrZI6RmZ2d2jRm7bcTCvoCRArnYpbp9UX9XthlWJaT4/bU0/IKb4lC9q9V0lxT0F/a/y1kO1/6imVryO2CfSV3pTo1Krmt8RqLYmzIAAAgjUv4BxVwak+vrfm/o1Bs69jftXvQPjCCCAQOMTMO7cbf5Un3Q11f85Qxtzwj3smHvY0X8Nw4+6vzzpHprtHpqtXRvcQ49oY49p445pQw//a4g+rEVnaVOOu4dmeUeiv60YDmnRh7TRh7XHkxVvpF/kbDK/rIlhqV5GenEE+7fDyyO7pNQxdU6cvgt9Rma2uAUgYq1M9ZW2UetTun5dPulXBGz9xN4DJs6OWecT3WWtfFK93aFO/mb54pWbfO4LiDcbi7Z6UT2Z6gNsslyL7C/gk+f1M/iPV+rgPxtTEEAAAbMIGHdlQKpv2GOgoKi0cUf3qrZO/13Dht0FrB0BBBAwSMC4c7eJU316ofveVPXfRapPUCpP9dki1ctIrw094h18U32WJsL8lOMVI7pI75PqbzYs1YuWZ5nGxZEUoMVeH1NFKp4ds66k1KFP9SIkizIDtPBnZGbru9/LjC2PZv1dgMBd4vWBPzevuM/gKfsOndAXKPrhZ2Rmi1QvGu0PHj41bPzcVYlpPvcFZAX0IzWZRz+/GNdz+f/KFAQQQMB0AsZdGZDqG/ZgKCl1VJV7G/f0631JUMPuJtaOAAII1ELAuHO3iVP9DpnqK16S98h29cMs97sH3e8e+N7Q/7DWY5/2TqbaY593xDu+T+tz0N3noPbO3mvDHu2diuHTg1qP3do7u7W3d10d3spQe+/R2m1Qmixy3rzI2WRe3bfVixxeVcuziMT+v8qu9T4t4fpUX+m79ETU1xcoFpGBXF+COFh9Ur2cU9/qLprQ9T/tO3Siz+ApuXnFMoeLklclpsnKi63btuPgsPFzY+KSx06LkQ/bi3rKngLyfocsTax97LQYn3sZAe5fyNLkiCy2Fv8sWQQBBBBoQAHjrgxI9Q24W8WqQ7C5nob6Bj/qqAACCNSDgHHnbhOnem9b/Tb13zdcffX9PSnq0zvV36epv0+9NmxTH0lVO2Wo7bdWDClq+y3eod0W9S/b1b+kqe02q+2Srw2b1Hab1Be2a7/fpLbbqLRLUh8WwwblyWTlf9a4bq5I9TfPK7u5Tnvgi6bvSp+f1x9YYjb9W/Fcilv0kPcJ4fJPfUO9LEok3n7DpolYKzKtKFwGcv0r9MSCNUz1ci1iZPHKTRNmLLE7VH3zvribIFO9mFPfmO9TiEtxiy0SyV+m8YjI6O5RI9dv2fXp8Onrt+yKiIyeOifu3MU8/8XFFNrqq5JhOgIImFTAuCsDUn2DHxIOpxZSwb6gqNTh1BqcnQoggAACRgsYd+42d6q/51qqb7FOuTdF/VuG9sc05U/b1T+lXR0eS1Nf3q39cZvqHbZ6h0crhme3q89uVx/dUjFsVh/drD6a7B06p2t/2qw+skl5ZJP6yMarw182q/8rUv1CZ92m+qlz4noPmHj+Uv6w8XP1edV/XM42bPzcSTOX+88gp8yOWSfelicCvP5+gezkL1K6fFve2GkxIh6LB/W/ay3/dPh0n4f2Zdu+PqLLlepHxN0BEdQ3pOyW/zb0SV6Mx8Ql6xfUj+ub0PUL+vQIEIE/IjLa536HXKkcIdVLCkYQQKBxCBh3ZUCqD5IjpKTU0eizfUFRKR3vg+R4oxoIIFAPAsaduxtFqq/4lF3bbeob+7SXdmsv7lK9/9+tvbTL+2fkfvXFDO3qsFN7cafWaafWfY936LRD65R+bdiuddquRe7RXtyuvZCmvpCqvZCqvpCqPr9N6bpduT9BuXmh0zvUdVt9pUfPjURQ2VYvOqh3jxopgr2+N75sez968rx/D3Z9F3dRPTH/7Jh1oneA/k6BT+SWm3Pm/OU+g6fI7vQ+rfE+S4kbEFUlc1Gf85fyew+YqE/+EZHRogFfv2C1Nx18SqjJHQG5UYwggAACwSNg3JUBqT549jI1QQABBBBoTALGnbsbQ6oXH6h/cJvaNVN7ftfVoWOG1jFDfT5De3ef2nFnxbBD7SiGdPW1Xdpru7SO29UO29UOadeGVPXd3VrHVLVDqvqPbRXDVvUfW9VXt6v3r/teqk846zL08KqrVC8eue8eNdInXcvO9vqtkJ+U81m7fExdhGefX33yuSxwQ8pu/Vr09xR8nsbPKygZOy3m0+HTIyKj9YuIonxuB/i01fv/KSsgR8RtDrEKfQcEOQMjCCCAgBkFjLsyINWb8XigzggggAACwS9g3Lnb5Kl+q/rj9UrLdUqLtUplqV57fqf23n7Nm+p3aFcj/Q61ozfVe4O9T6TvUJHqfSL9P7aqr6Qpv/1+qk88pxh60PgkZ/91yaTt0/IsP3Qve7DLVFxVI7ZseNc3icvFRU1k2758mF9WqdJUb3eoE2YsEd+0E3cW9PUcNn7uwcOnxDvwS0odY6fFiHfgx8QlDxs/V9ZHrEK8M1+fxn26ElRaAVk9EellbwV9q754AEHe75CLMIIAAgiYQsC4KwNSvSkOACqJAAIIIGA6AePO3WZP9cqP13sjfYu1ysPb1Hf3a932al33qF29//cO3fZoHx50d92tRexSu+7Wuu7Suu5Su2ZoPfao7+3VInaqV4cdakTFEJWpdd2hdklXI9LVLtvVV9OULmnq2zvVByp64Dcxpgd+VRFdn4TF2+DkgauP2WKi7HgvR+TM8h6Bz/vzZOAXc4pf+w2bJh+hlyXI1YlF/F9cJ6sqGtvlN+1kCT4jMoqLDgKyJqLyMnuLKq1KTBMzyLXIEfm6AZ97AWJ1ojTZ/v/drYFPh08/evK8KLZ71MiDh0/p7xf4VJI/EUAAgWAWMO7KgFQfzPuduiGAAAIImFfAuHN340n1v9ms/jldbb9NbbdNbbdVbZfiHdqnqC/s1NptUR8Ww2b14c3qw8nq09vUZ7aqD29SH954bUhSH0pSn0/VHk5SHtqgPLTeO7RNVB5KVJ7YpNwV7wqq5+plzJbHtAzzckT+JFP9d2+J1/fG92+sFq/Tk6FaliBXJ4Kx/Ly8nEGMyFZ0+U07nxnknyLVx8QlizQuU73/x+r847pci7607lEjZf8CWRkR/vUlyBsoPjPLohhBAAEEzCJg3JUBqd4sxwD1RAABBBAwl4Bx524zp/oC9z0pyo8TK9rq1ygy1bffqkv1W3Sp/lqkF6n+6a3X8rwI9vpUXxHpH0r0pvq2icrjG5W74r/3XH0w9MD3aVGXYV6OiENc/llS6jh68rx44Zxs/dYnXtG73qdTgChEpvqMzOxh4+fmFZQMGz/XP/zLvC2/aaf/ZyZayCMio8Ur+kUPfDGDPtXLRXwexZfT5VrkFPF0fURktMjqsin+6Mnz8o6GnFkEe1K9BGEEAQRMKmDclQGp3qSHBNVGAAEEEAhyAePO3Y0i1a9RWqxRfr5BbZuiPpCiPrBF/d1m9XebFe+QrDy8Rb0/Wbl/U8WwUbl/o3J/kvJAkuvBJOX+DdeG9cpv1yv3Jbjarld+m1AxrFPuuzq4frdO+Y/l19rq59rq9nv1lR55/lnUZzYZs+V0md7FSExccveokaKx2id+69O1vv/5qsS07lEjxdfmfEKvXJ1Ph3m5djEi8vblisyv/6adCNKyJ7zP2/J8Cqn2z6rSvkATrw+Q9ZeS4saBuBUiiPTdFqpdKTMggAACwSZg3JUBqT7Y9jX1QQABBBBoHALGnbtNnOp3FGi/3VrRVl+R6lvEK83jlearXd5hlat5XMWw0tV8pdJspavZiophuavZclfTZa6mS68NS1xNY11NYiv+H+NqEuNqstjVZLGzyaKK79iJr9nJ/y9w3DzH2mJ2cdL5unlbnoiX8inxakdkEJU9yX0W8X9bnv8/AP1r82Tg14fhqXPifDoCiFSfkZktX3E3bPxcn1WLP/XR3X/Vcoq8s1BpIf5fm9Nvr0SQpQUYEc8URERG+y8ln9X36bAQoDR+QgABBIJHwLgrA1J98OxlaoIAAggg0JgEjDt3mzjVZ1vcHXYqP0lwtVjjarHaO3jD/Crn1UjvzfPOZiuuDcudzZY7my1zNlvqbCqGJc6mS5xNY51NYp1NYiqGxU6R55ssdDRZ6Lh5oePmBbphvv3muaU3z7Lcu9ySmac27OElG89lNXza6mVjtZxBdlOX+Vb2exfRV7+IDPbyFsCqxDT56Tu5oL7wmnxkzmd+o/8UJvLOhdGro3wEEECgPgWMuzIg1dfnfmRdCCCAAAKhI2DcudvEqd7i0KafcP33ekfLuLLmKyqG5WXNl5c1X3Z1aLa0rNmSiiG2rJkYYsqaxtiaLhZDWdNFNu+w0NZkwbVhvq3JfFuTed7hZjHMtd3sHUpvnl1y8zfFP5lvGZlpL7Jrpjv4fF6VJ+vv/+k48ZPsuy7nZAQBBBBAIHgEjLsyINUHz16mJggggAACjUnAuHO3iVO9S3Hn2bQ5J1ztk0pvWWppHmtpHmNpFlNydVhc0myRxTss9A5NF5Q0W2BpusDSdH7FMM/SVAxzLU3nWprMqRhmFzeZbbl5VnGTWZYmsypGvim++eqIpcXs4vtXWL46ZM+xNnBDfWM6stkWBBBAAIHaCRh3ZUCqr90eYSkEEEAAAQQCCxh37jZ3qncpbofitjrdxXatHgarw+1wuQPvKn5FAAEEEECgHgSMuzIg1dfD7mMVCCCAAAIhKGDcudv0qT4EjwY2GQEEEEAAAeOuDEj1HF0IIIAAAggYIWDcuZtUT9s7AggggAAC5hMw7sqAVG/ElRxlIoAAAgggYNy5m1Rvvis5/j0ggAACCCBg3JUBqZ6jCwEEEEAAASMEjDt3k+pJ9QgggAACCJhPwLgrA1K9EVdylIkAAggggIBx525Svfmu5Pj3gAACCCCAgHFXBh6PJzffgjACCCCAAAII1K1Abr7FY8x/pHpSPQIIIIAAAuYTMDTV5xVY7U6lbi9lKA0BBBBAAIFQFrA7lbwCqzGh3kOqN9+VXCj/Y2DbEUAAAQSEgKGp3mK1W21OqBFAAAEEEECgrgSsNqfFaifVE78RQAABBBBA4KqAoanepWgFRba6uo6hHAQQQAABBBCoOLFqpHqu5BBAAAEEEEDgqoChqd7j8RRabDTXcw2KAAIIIIBAnQhYbc5Ci82gSO/x0ANf4QIRAQQQQAAB8wkYnepV1Z2bb7HZXXVyNUMhCCCAAAIIhKyAze7KzbeoqptUb77rrZA9atlwBBBAAIF6EDA61Xs8Hpei5eZbaLGvh73JKhBAAAEEGquA1eas+LKMUX3vxZ0C3pbH/QIEEEAAAQTMJ1APqd7j8aiqu9BiKyjy9sbnrfiN9YqT7UIAAQQQqHMBu1Ox2pwFRbZCi83QVnpSvfmu4er8aKNABBBAAAGTCtRPqhfXCi5Fs1jteQXW3HxLTh4DAggggAACCAQSyM235BVYLVa7SzG2iV526aetnmyPAAIIIICA+QTqM9XLiwZGEEAAAQQQQCAIBUj15ruSM2mzEtVGAAEEEKhDAVJ9EF5UUSUEEEAAAQQaRIBUT6pHAAEEEEDAfAKk+ga5bGKlCCCAAAIIBKEAqd58V3J12NRDUQgggAACJhUg1QfhRRVVQgABBBBAoEEESPWkegQQQAABBMwnQKpvkMsmVooAAggggEAQCpDqzXclZ9JmJaqNAAIIIFCHAqT6ILyookoIIIAAAgg0iACpnlSPAAIIIICA+QRI9Q1y2cRKEUAAAQQQCEIBUr35ruTqsKmHohBAAAEETCpAqg/CiyqqhAACCCCAQIMIkOpJ9QgggAACCJhPgFTfIJdNrBQBBBBAAIEgFCDVm+9KzqTNSlQbAQQQQKAOBUj1QXhRRZUQQAABBBBoEAFSPakeAQQQQAAB8wmQ6hvksomVIoAAAgggEIQCpHrzXcnVYVMPRSGAAAIImFSAVB+EF1VUCQEEEEAAgQYRINWT6hFAAAEEEDCfAKm+QS6bWCkCCCCAAAJBKECqN9+VnEmblag2AggggEAdCpDqg/CiiiohgAACCCDQIAKkelI9AggggAAC5hMg1TfIZRMrRQABBBBAIAgF6iPV5+RZGBBAAAEEEECgbgWC8KqCKiGAAAIIIIBA/QvUR6qvww6HFIUAAggggAACLsVNW339XzOxRgQQQAABBIJTgFRvvl6XXM4igAACCCBAqg/O6ypqhQACCCCAQP0LkOpJ9QgggAACCJhPgFRf/9dMrBEBBBBAAIHgFCDVm+9KjhYqBBBAAAEESPXBeV1FrRBAAAEEEKh/AVI9qR4BBBBAAAHzCZDq6/+aiTUigAACCCAQnAKkevNdydFChQACCCCAAKk+OK+rqBUCCCCAAAL1L0CqJ9UjgAACCCBgPgFSff1fM7FGBBBAAAEEglOAVG++KzlaqBBAAAEEECDVB+d1FbVCAAEEEECg/gVI9aR6BBBAAAEEzCdAqq//aybWiAACCCCAQHAKkOrNdyVHCxUCCCCAAAKk+uC8rqJWCCCAAAII1L8AqZ5UjwACCCCAgPkESPX1f830/9l78/Coqjxxf/6N/tr5PuM8328/M9NRsdWeHsfWHlSm2+kOLS1Ot62MIC6FIG0DFgKRDojslQgSCEvYETEssm8BgYQdJYYl7BgCCSEbhEqlKqlUJbUlRepn5jjHO7cqlSJJJXWr3n7qYU7de+6557y34nze+zn3XM4IAQhAAAIQiEwCWL32IjkyVBCAAAQgAAGsPjLjKnoFAQhAAAIQ6HoCWD1WDwEIQAACENAeAay+62MmzggBCEAAAhCITAJYvfYiOTJUEIAABCAAAaw+MuMqegUBCEAAAhDoegJYPVYPAQhAAAIQ0B6BsFr99hzfs4ktn+05XR+ZcEYIQAACEIAABO6OAFavvUiODBUEIAABCEAgrFb/bKLvkT+3fJ5NvLuo4kjO2Ud6DXz7/eQGh8vl9hhNFvm5cq1k576vxOfjeRkjJ8zdezBXtH7+cuH9j/W9/7G+5y8XNjc319Ta5FH+BZfb01qfghyrPOrTtbue+9N7B4+dbmryVlus/qeQW+obnK2di+0QgAAEIACByCGA1WP1EIBVQ9HDAAAgAElEQVQABCAAAe0RCKvVC6UX/95VyLLvUG5cfMILAxPrG5xHcs7e80DvuPiE1j7vjP64ubnZ5/Mprb6+wfnCwMTWDomLT9h3qOVegLh98EivgfLz9vvJVdU1rR0rjvL5fNUW6y/7vBMXn/DZF7uNJsujvQYGOdfcZRvvavhUhgAEIAABCHQLAaxee5EcGSoIQAACEIBA5Fv95YLi//vPf7j3wd4PPzPgkV4DH+rZv9d/Dhs5Ya7+w7R3P/hk9eZ9X5+80NTkbZ/Vi9sHSiF/YWCi0WRp0+q37j4SF5/w3J/eEzMCsPpuiT45KQQgAAEIdC4BrB6rhwAEIAABCGiPQKRZfZ2tfsqsT1/SjYuLT/inJ18ZnpR64duivPMF/YZM2LH3WPaRkz95qt8v+7xTbbFeuVbyD0/86anfDbmYX5R/9UbPF/78k6f6CT//yVP9Evq9X1BUduVayYwFa65cK5GT4Q8cO/W3D/eJi084cOyUz+cTVv/bV0YWl95KTvtcTBCQVp+c9rk4sLj01m9fGSkz/DW1tuf+9F5cfMLGnQdN5tpbt6sf7TVQzPyXcwREVv8vYz+Ji08gV9+5QSetQQACEIBAmAhg9dqL5MhQQQACEIAABCLN6v1ns+89mCt8+6Ge/Y/lnn/8N7q4+IS0pRs+mJIeF5/wkm5cfYNTzL1Xptwf7TVw6+4jP+rxvJBtGf1syjwUF5/wD0/86er1Mmn1Yqr/3GUbVVYvbVzl6ukrt4hTf1tw4+FnBsQ/1e/eB3tj9RIyBQhAAAIQ0CgBrB6rhwAEIAABCGiPQKRZvX+u/lju+TMXrj7Sa+BLunFnLlxdvGpb6qIvvtyfc/9jff/24T57D+bW1NpKK24nTV8kMvz3PNB74LApU2Z9WlBY+ti/v/5dzn/V+i9FdNXc3CzuBfz6pRHWOnubVv+rPw4fOWHuyAlzhyel/tOTr4hcfeGNivj/nhTwwsBEkcDv+cKff/z4S1i9RkNYug0BCEAAApIAVq+9SI4MFQQgAAEIQCDSrF4EFsrV8sQkdmUeXlUWmXafzyeS7TI539TkHTwqJS4+4U9vj3e63D6fz2SufbL34Lj4hL9OW6Q8kZjq/6s/Dlfl6lUnElZfaTSLmwVi7/2P9d13KJcZ+DIipAABCEAAAtolgNVj9RCAAAQgAAHtEdCK1d/Xo49cpl4W/v5nL8ql8p0u95/eHh8Xn/CjHs+/MnjCpSvXfT6fWNPubx/uc+pcvvz6ox7P5+ZdFiFX8NXyAubqm5ubv9yfs2XX4Z4v/DkuPmGcYXGl0fxor4FijoDM6r+kGzdywtyf/eoNnqvXbnRLzyEAAQjEGgGsXnuRHBkqCEAAAhCAQARafZ2tfv32A3HxCf/v53/4zSv60ZPmD3h30owFa+SKd7KwetPefkMmpC3d4HJ7Tp3LF8vgiRT6Pz35yrlL12RyfvCoFGudXaxsL3P7cgZ+a7n61p6r9/l8mVlf3/tg7yd7D751u9p/LQBVkl+2E2vRIeOFAAQgAAFtEcDqsXoIQAACEICA9ghEmtWr1r27/7G+X5+80Np75r5bhf7RXgONJktTk1c/fo5w6Xse6C1myD/+G92t29XL1+z8bnW9ex/sPeDdSaLC1t1HZIylnOrvv1re7MXrA66BX36r6l9/O+ieB3pv+/Joc3Nz2U3jo70G/qjH83OXbdy48+AvEt6Oi0+Y/MmKnfu+6jNgDLl6SZsCBCAAAQhEOAGsXnuRHBkqCEAAAhCAQKRZ/dXrZf/wxJ9kvv2v0xZdL7nZptXnnS/4Pz/9vTjq/sf6Hv3m3PCkVDEJv9pi/WWfd8QuuWa+DKoCWv3NStOvXxohD1EW9h3KtdU7ZH/E7ICxUxfyXL1ESgECEIAABLRLAKvH6iEAAQhAAALaIxBpVu90uXPzLq/ZkiUfmPf5fA0O158TZ97zQO/la3Y2Nzf7fD6RLY+LT3h16ESnyy1WsPuX/3jL/1V24nH6ex7oHRef8HeP9j15tuUBe/k/YfWq99VfL7n5aK+BSpmX5X2Hcpubm4cnpcotcfEJy1bvwOolUgoQgAAEIKBdAli99iI5MlQQgAAEIACBSLN6EQkpU+g+n6+5uXne8k1iIv26rdmlFbdFLv1ffzuo/FaVz+dravK+N272Z1/svv+xvnINfNHU1etlP3/uTSnhfQaMqaqukfGWOJHcK24lHP3m3N892le+097n86neV3/24tVP1+46c+FqtcXq9d4Rz9XzZjtJlQIEIAABCGiUgLatvs7uTJm3Wqc3LM3Y2VqEV1vXsGZzdvktk9vjrXe4Tea64B9zjd3pamytNbZDAAIQgAAEIoGAJqze5/M1NjWNnjRfqd9iPTwZNpXfqjp36ZrS6r3eO5t3Hb7/sb7iqP/vod+JwiO9Bp69eFUcKKz+3gd7P/zMALG0/tvvJ0/4eGlcfIJ8p73P57PU1P3y+SHizXbyjC6359bt6kNfn9m9/zi5eomFAgQgAAEIaJdAlFu9rd61JGOHTm8YPCrlaM75U+eu6vSG4J/RkxaYzHWRELHRBwhAAAIQgEBrBCLT6ndlH1fOwPd671y9XjZ26sJ7H2yZSC8+z/cfve9Qbk2tTQZPYqU9kTMvKCr77SsjZeV5yzdVGs1i7TqxMXHKglqrXTUpwOfzld00itz+X6ctcrk9YrW8Veu/FKfedyg3/+qNX/Z5R9kT8Vy9PJd/gTXw5TWiAAEIQAACkUxAS1ZvMteNnrQguJPLvVLOK42WyZ98qtMbhiWlbtl9VFTQT5g7atL8UZPmDx6VIpxffB01aX5yWoa5xt5aFMV2CEAAAhCAQCQQiDSrV66W98LAxOslN198faxSoX/yVL9/+Y+3lOb88DMDiktv+Xw+afWHvj7z3J/eE3Xuf6zv3oMtD8P7fL5aq/2N4VPFdvFAviq0amryDh6VEhefIF5xn5t3+Uc9npfnEvcLbt2ufviZAXLj3//sxeS0z1t7Dl9Uw+pVnPkKAQhAAAKRSSD6rd7t8Vpq6z9ZuC43L1/k6qXwywn8x09eioQQjT5AAAIQgAAEQiQQaVZvrbPL9efTV25pbm5OTvtcPFHfb8iEk2fzvd47zc3NBUVlw5NS7+vRJy4+4YMp6ULapdWfv1x4+PiZH/V4/vVhU2/drlZGTo1NTfNXbHrw3149f7lQuV2Wj+Sc/fHjLw1PSm1sahKL8Akzv/fB3os+29rc3Oxyez7fsGf3/uPlt6pcbo/P5xPP1f/do30PfZUncvvy37fem86b7SRbChCAAAQgEOEEtGT1TlejucZ+y2hZt+1A/rVSk7muorJ62uxVOr1h/orN4mn5/Gul2/Ycu22skY/HO12NtnqXCJKk1V8vrUxOy9BPmCtS9++NT5O5+vOXr4cYUVENAhCAAAQg0F0EIs3qm5ubT57NP/T1mWqLVbi6paau8EZFY1OTfyTk9d65UVYpV7+rtdr3HPhmz4Fvaq32xqamsptG0YL/gZ7GptZ2+Xw+2WZzc3NNrc1krg14dtms13un2mINWK3OVm80WeobnLIyBQhAAAIQgEDEEtCS1bs9Xlu9K3Xxep3eMHbqotvGGplsF6vlGU1WMdl+4WfbGhwet8frcjdlZh1/b3zaxfwbbo9XWn3hjZutTeY/de5qd4VoXXbeE/l3/v0D34n8O112Rk4EAQhAAAKdSyCsVv9sou+RP7d8nk2M2ACGjkEAAhCAAAQg8D0BjVm92+MtKCoflpQq8vPmGrtcA7/B4Zm/YrN4fr6gqFwET5VGy9ipi3R6w6CRyXsPnThx5opObxg9aYGw+qGJM68VV4ia8gYBVt9m3Lk9546I9sS//ZKbzXX/6wWB5jpvv+Tm2VualU0F3CgqBNmlbIEyBCAAAQhIAmG1+u05LT7/bKJvew4BEwQgAAEIQAACkU5Ae1bv9nhz8/IXfLrFZK6TKi5y9ZVGyycL16mm0FdUVguxz8w67p+rl3Pv3584f9DIZJ3eEGVWP2Jhs9LA2ywLRS+t8v5q7PeJGv9DRiz8X7ouQ8wT+Xd+P9FXWuVVWvrsLc2ifmmV9/cTA08QUNYPfupH/uzbnsMUg/91D0XypwABCMQUgbBafaQHL/QPAhCAAAQgAAEFAc1YvRR4ucp9mwW5Kp7RZN1zMNfhbIxBq/ePcWdvaf73D3zio0qn+1eWW5TiLTeqCqVV3rUH7/RLbi6t+j5XP2Jhc7/k5ssld8x13u05d341tsX5VUe5Pf/rLoCw+oDqHmSXf5tsgQAEIBDdBLB6RTBDEQIQgAAEIBDTBGLC6hscHoez0f+5+nfGzDx7qUgssycX3ouyXL0yqJVmLp+rn72lxbpV8+elZvtn6QNu8W9Bnkh5dv9ZA7/Q+/acbFF9ZbNjP23+1djACXmsXsmTMgQgEOMEsPqYDt8YPAQgAAEIQEBBQDNW73I3mWvswsBN5rrbxpq5yzep0vVrNmcbTVZZRy6D/+WB3GFJqdv3fpWb1/Jc/fjkpcVlt2NttbzZW5p/of9+Ary0erfHeyL/zi/0gS1aRsxCp1ubeC+qCZNX+rks90tu/rakZXK+XJ9PlbdX3gUQ55LH+hcCpvFlVylAAAIQiBECWL0imKEIAQhAAAIQiGkCmrF6ZZRmq3ctydih0xsGj0oZMnqGWABPLKG3ZnOWveH799iJQ1zupkWrtun0hhVrdmVm5ej0hpR5q40m6xfbD6xct3tZxs4R4+bo9IYZ6WtXrtu9ct3uopJbynNFQVksbqecbK+0ejFAkUhvTZi357SYv3TyNpmI1pRnnL2l5fF+2b5qjoC/1cuabo93xMIfnsxvLY3fZpeoAAEIQCDKCGD1MR2+MXgIQAACEICAgoD2rL647HbS9MViWfvDOefkGvi5efliubuJM1aUlBtl9GautY9PXqrTG77KvbhizS6d3rBo1Tanq3HHvq8zs45X19hEC4dzzn2+cW9m1nGXu0keGwWFX+h9Ixa2LEfvn/QOuCXgrPiANZUbpfMLP/+FvuW5/Uf+7FOtvSddXS6hJwiHaPVRcDkYAgQgAIHOIoDVK4IZihCAAAQgAIGYJqAlqzfX2D/fuFfMuh88KiU374pcQm9pxk6Xu+mb098OHpUiKsxdvqmk3OhyN10rrhiaOHNo4szzl6+Lt9lv2HHo8tWSIaM/FhuF1W/f+9WIcXMGjUxWLaHfWeFX97ajyo2rOqOUatUukSr3f3Lev5qczO+/Wt7ag3dEvl1m78WNBtmIsgNtzsBX5vxlCxQgAAEIxBoBrD6mwzcGDwEIQAACEFAQ0IzVm8x1E1KWCWMfNWn+1est75lXWr2I565erxg1ab6oNiN9bZ3duf9YnniW/tg3F0Qyf8/BXPmuu+oa28QZK8QL7Xbv/0anN0yZtdJcY4+y6LDdVu+/xJ0yRf/In31yWXvl8/lKSx+xsFmk6GUf/Be9E/XHftr8+4kts/SVT+ArZ+BH2UVhOBCAAAQ6QgCrVwQzFCEAAQhAAAIxTUAzVu/2eM9fvj54VMqq9XusNoeIhPyt3u3xWm2OzzfuHTVpfkVltcPZOH/FZp3esODTLekrt+r0hvcnzl+9KUt4/vjkpUMTZ4pbAGcuFppr7FNmrZwya+Uto6UjkVYEHhvKDHyZSBf9F6at9Hb/cakWvRMVxGP8crK9PEq+zV71VL/qRKq9WL0ESAECEICAkgBWH9PhG4OHAAQgAAEIKAhoyepd7iarzaF87j2g1Yugp97hdnu8NdaGVev3DEtK3X8s7zvJH5+8dNWGPU5X47fXSiuNFiH8Or1hQsoyo8na8ka3GrvT1fIOvCj7yDx5wHEpU+uigki8izS7Kjmv+ipz9a3NnJeP3MsUvbIzwuEPnG15y724rSDlX3ZVrpYnt1CAAAQgAAGsXhHMUIQABCAAAQjENAEtWb1/DCdfd1djbfDfK7c4XY3iffWW2npLbb3cXlxWee7SdaOpVuyV26OvoBRp/9GprF45lz5gNl624L93xMJm5UP4qgojFjb/+we+X+h9AecFiI3bc1oMf+3BO6rbB/Kr/ywA2R8KEIAABGKHAFYf0+Ebg4cABCAAAQgoCGjb6mMneuvgSNsxA1+cUUynl0btX5C5erlannytvbhZIL/KCspDxFmUtxXE8viq2wGimsz2d5AGh0MAAhCIAgJYvSKYoQgBCEAAAhCIaQJYfbRNtg8Yqt5Vrl7ZQkC7lhVUe0urvFPXtrxCT3i7/1vuxSwAOSdftiOtXhS259xRtSxqYvWSGAUIQAACWH1Mh28MHgIQgAAEIKAggNXHhNW3O/wNaNeytdb2ypXzlTPthZPrUlum6Ctn6bcsZ1DnFc/Vy4fqA7aM1UvyFCAAAQhg9YpghiIEIAABCEAgpglg9VFu9b8a6/OfNh9ki2p6/F3NwBdBtnBvcQrZmtgoZF5k7JXCL61eLowX5Lw8V4/MQAACEHB7vFh9TIdvDB4CEIAABCCgIIDVR7nVdzD2DZgzl22q9kqfl8/SiwpiKr4yPy/FXh7yq7Hfv6m+tKrliqhaFmcUlbF6yZ8CBCAQywS6wOrr7Paqakv5zUo+EIAABCAAAQi0m0BVtaXOblc4eOcXsXqsvnMICFGXPi9DbaHiysy82OX/Xnp5CAUIQAACEGiTQLit3mq1tdkHKkAAAt1LoPxmZfd2gLNDAAIhEii/WWm12jrf5v+nRay+c5w2xMvZ9dWCTLbX7q75O5q7niRnhAAEIBBRBMJq9dY6m8vliajx0hkIQMCfAFbvz4QtEIhMAuU3K10uj7UuXGKP1Ue51Ufmz5peQQACEIBABwmE1epv3a7qYPc4HAIQ6AICWH0XQOYUEOgUAuKv9dbtqv9Jrnfy/8XqsXoIQAACEICA9giE1eorbt3ulCCGRiAAgbASwOrDipfGIdCJBMRfa8Wt251s8//THFavvUiuE39eNAUBCEAAAholgNVr9MLRbQh0IgGsvhNh0hQEwkoAq8e6IQABCEAAAhBQE8Dqwxp+0TgENEEAq9fEZaKTEHB7vFi9Oo7hZwEBCEAAAhCAAFbPbwACEMDq+Q1AQCsEsHqsHgIQgAAEIAABNQGsXiuRHP2EQPgIYPXhY0vLEOhcAli9Oo7pXL60BgEIQAACENAiAaxei1eNPkOgcwlg9Z3Lk9YgED4CWD1WDwEIQAACEICAmgBWH77Yi5YhoBUCWL1WrhT9hABWr45j+E1AAAIQgAAEIIDV8xuAAASwen4DENAKAaweq4cABCAAAQhAQE0Aq9dKJEc/IRA+Alh9+NjSMgQ6lwBWr45jOpcvrUEAAhCAAAS0SACr1+JVo88Q6FwCWH3n8qQ1CISPAFaP1UMAAhCAAAQgoCaA1Ycv9qJlCGiFAFavlStFPyGA1avjGH4TEIAABCAAAQhg9fwGIAABrJ7fAAS0QgCrx+ohAAEIQAACEFATwOq1EsnRTwiEjwBWHz62tAyBziWA1avjmM7lS2sQgAAEIAABLRLA6rV41egzBDqXAFbfuTxpDQLhI4DVY/UQgAAEIAABCKgJYPXhi71oGQJaIYDVa+VK0U8IYPXqOIbfBAQgAAEIQAACWD2/AQhAAKvnNwABrRDA6rF6CEAAAhCAAATUBLrd6s9eKvp4wZojOeftDS4ZVJ06d1WnN4yetMBkrpMbZaHG2mAy14XyqbbYHM5GceC14oqhiTOHJs68VlzhcjeZa+xBWqh3uN0eb53dqapjq3e1dqDyXLKrFCCgCQJ3a/VOV2PWkVNTUz97d+ysU+euBh9jvcN921hz6tzVzbuO7Dt8st7h9v8jMtfYXe6m4O2wFwIQcHu8WL06juFnAQEIQAACEIBAt1t9xsZ9Or1h2uxVFZXVUqGP5pzX6Q0jP5p3vbRSbjTX2J2uFkVfmrFTpzeE8hEOL66y0urr7M6UeauDtCBEJTMrR1Un++jp0ZMWqDaKr8pz8buCgLYIBLd6h7Ox2mKTf4misG3PV+KX/+na3apdJnOduC/m/xf0/sT5+YVl/n9EKfNW19md2oJGbyHQLQSweqweAhCAAAQgAAE1ge61+hprw+RPPtXpDclzM4Ymzgxoy3KjTN13sdUPHpWinzBXdOPAV2eEkLw3Pm3UpPniI/Zi9d0S4HLSTiEQ3OrFHTH5lxhKwf++2NDEmUnTlyzN2Jl34Zryj2hYUqpOb8DqO+U60kgsEMDq1XFMLFx1xggBCEAAAhAITqB7rT7/WumQ0R8PGf1x9tHTE1KWS08Wgb5Ob9BPmCs3JqdlmGvsMlevTO9vyjyiyu2LbL8w7eKyygkpy98bnyZs5L3xadPnfF5SbrxRdnvL7qM3ym7LTOOZi4VDRn+s0xvOXCx0e7wi07g0Y2dpRdXwcbNlmlEl8CZz3ehJC1Qbg2NnLwQiikBYrV5l7LeMFv2EufLvRTxuk5yWYbU5IooJnYFAZBLA6rF6CEAAAhCAAATUBLrX6rfsPqrTGyZ/8mmNtUEZPwV/rl7k6pWqIPRbJvPdHq9oQZiDf6Zx9KQFx09eGjwqRaqFOPtXuRd1esPwcbNLK6qUVi+2z1+x2VhVO3rSgkEjk+cu37Ry3W7xWbRq25DRH6uaUg6HMgQinECIVn8057y8BRawcPZS0TtjWibdKHP1SdOXHPvmQm5efm5evtFUe+ybC8pVM8Sfqk5veG982ucb9oqnbCIcF92DQDcSwOrVcUw3XgxODQEIQAACEIgQAt1o9dUWW9L0xXLy7ZrNWTItHzBXf/7ydQFNWP2IcXOWZewUXj35k5U6vWHI6I8XrdomtsxIX6vTG4RpVxotGRv3iS1CyL/YfqCk3CimAe8/lieadbmbVm3Yo7zLIG4WLMnYsey/n+T/KveiSMsHnIGM1UfIT5putINAiFafc+rymYuFws/9/z1zsfDy1RLxKI3S6pV/L1t2HxV/3Qs/2yZWshQTdkSdHfu+bkfnOQQCMUUAq8fqIQABCEAAAhBQE+hGqz9+8pII5UXWvc2n5YUnyBn4SlVoraw0baHocovD2bjws206veGThevE8vvyLkPGxn0iRhSHpMxfnTR9sX7C3O9mDgurHzwqJTMrR1rNga/ODEtKlS3HVHzJYKODQHCrt9TWnzxbkJuXf/V6hf9Cd/Kvb/SkBSXlRlHTaKqVs12UN+AKb9w8knN+Qsqy28Yaia6islpm8uVGChCAQEACWL06jgmIiY0QgAAEIACBmCLQXVZfW9cwNfUzf6tfmrFTzp8XM+plelxl9UpVCJ6rd3u89gbXJwvX6fSGwaNSZi36oqjkltvjFbcVhoz+OP9aqfw6eFTK5asl4jcgrP6DKQuHJaUOS0otKCoXnXlnzMyzl4rkDOTrpZUjP5qH1cfUH06UDTa41cvBmmvsyWkZck6NKAwelSL+kBMnp1dbbLKytHrlwzJi4ox8ekVZ+GL7AdWTOMqmKEMAAoIAVo/VQwACEIAABCCgJtBdVn+9tPLdsbM6YvVKVRD63dpz9W6PVznLV6c3jBg351rxTZmcX/jZthprg3jXnX+zSzN27t7/jU5vmL1k/c3b5tZylVg9Mbd2CYRo9aoB2htc67buF3/Fc5ZuMJqsqgriD3PQyOT3J37/wogd+75u7W0Xyr9fVTt8hQAEJAGsXh3HSDQUIAABCEAAAjFLoLus3lxrH5+8NHFyunyu/m5n4Ie+Br7D2bhizS7hHoNGJgstHzt1kdFkzTp8Sqc3DBqZPGfpBlHh+MlL8scgnGRpxk7h/4NHpeScuiwOl0/+y1fcjZ266HpppTyWAgQ0RKAdVm+r/37+y9DEmV+fuBRwlTvxFyT+ssS/R3LOnzxbsP9Y3v5jeWLW/fGTlybOWKHTG8YnLzXXtrzkgg8EIBCEAFbPfyMgAAEIQAACEFAT6C6rt9W7Pvviy32HT7bb6pWq0FpZ5M8LisqHjJ4h6gxNnHnh2+JlGTvFJHxzTcvNBXn4jPS1dXanDKek1TucjfNXbNbpDWs2Z4mX2F26ckPk9rMOn3J7vBfzb4wzLCkoKpfHUoCAhggEt3p/OZd/Mq0VMrNy5Ax81Rr4F/NvjBg35+MFa2rrWt58cf7y9UEjk3V6gzhEQ9DoKgS6hQBWr45juuUycFIIQAACEIBARBHoLqt3e7yW2nrxUisx6V3M5t2VneNyN+0/lqfTG8QrrOWjvKo18FvTCeV2YfVGU8vr6D6YstD/VXbicXohFe+MmZlfWKa8OkJm5q/YXFpRJVYB+HzjXvlqepHnT5ycvnZLtmhhQsoyk7lO2QJlCGiCQFitXj7V4nA2WmrrL14pHjL6Y53e8N2dsuulld9Ncvk+UV9Doh5bgUDbBLD6thlp4j+7dBICEIAABCDQiQS60erlqngi6C8quSWmta/elLV8daZOb0hdvL7e4VYNts7uFEnyRau2udxNYq/Qb+Vzucr31YsZ+NlHTw9NnKl6+r20oko8BSDuBSSnZSi1XDSbODldLgEgc/XXiituGc3vT5wvbyLMXb7J/7liVef5CoHIJBDc6ksrquQbH2Th2DcXkqYvEXff5EZZKK2oKigqFw+2DBqZrJ8wV/ylpMxbbbU5MrOOyz8cnd4glqKMTDL0CgKRRgCrx+ohAAEIQAACEFATiByrd3u8uXlX5HraOr0h4Murqy024eEr1uySwVZwq3d7vLeNNdeKbyqt3ulq/PrEJblw19vvf7+O96hJ869erxAti2ZT5q8WZxyfvDT/WqnM1bs93i27jwo5mb1kPct3y8tBQXMEglt9wOHI+2vivRX+dQKulCEq2+pd6Su3SrFfuW63eLukfyNsgQAEVASwenUcowLEVwhAAAIQgEAMEogoqzdW1SpjfZ3eMHrSgpXrdn+Ve/HSlRvVFpvD2Sifwt1/LE9eL2n1V69X5Obln7lYKB6DV2bmrxVXSKsvKTdOm71KSkVm1nGjqTY5LUNu+XzDXkttvWh24WfbLl9roP4AACAASURBVF25canghsPZKJbuHzQyedrsVaK1D6YsFEe9O3bWruwcW71L9ooCBLRCIHSrr7M7xTsdv71W+t74NJ3e0JrVr1q/R9w1E8/VFxSVV1tsJnNdZtZxcaD8c9PpDe+NT8vMOq56MZ5W6NFPCHQlAaweq4cABCAAAQhAQE0gQqx+x76v3/uwxRDE573xae+MmSm/isLU1M/MNfZlGTt1eoN8ybyIpaTVX/i2ePi42fJA/YS5t4wWUUda/blL16fMWinqDE2ceercVTGT31JbP2/FJrF99pL19gaXaFYpLdv3fiUbFzcdym6axB0EuexfV4Z3nAsCnUIgdKsXz7Yo/wqUs2ZUnRF/QfK5+uullfLlETq9YcqslafOXZV/jDq9YVPmEflYjaopvkIAAoIAVq+OY/hlQAACEIAABCAQIVZ/pbBsxLg5Or3hgykLj5+85HA2OpyN5y5dT1+5VU6SP37yksvddDH/xgdTFk5N/UwsoC2uoLT6ispq8dS9Tm8YPCol68gpKQnS6q8VV5y/fH3wqBT/J+EdzsZd2Tn6CXOvFbdMwve3etHIoJHJKfNX7z+Wd/O22elqFJP53xufdvZSEb8oCGiRQOhWf8tokQ/J6/SGEePmXCu+2dqQVVbv9nizj54Wt8NyTl0WL8NzuhpPni1Imr5YP2FuRWV1a02xHQIQEASweqy+QwSqa+xjpy76+5+9GBefcF+PPmOnLqoOulRpvcM9YnzatNRVIpwKcvjF/Bv//odhvA2I/1RBAAIQ6BYC3Wv1RlNtbl7+pSstk9tLyo3GqtqAEOrsTmNVrXzy1lbvCjJTt8baYDLXmWvs0udFm5ba+pNnC06eLbDU1jucjZVGi6qCPHWDwyN2iUXClP8fSvTT4WyUlWXB6WpsrUFZhwIEIpNA6FbvdDWaa+xiEr54KCbIiMRfkPgDF9XsDa6ScqP/y+1d7iaeXglCkl0QkASw+mBOKxf8kHOEJDhZcLoac05dPnOxUG6RBbEcSJBjZU23xysWCBk1af6azVnK7ZFcrrbYXnx97H09+iROXrhl99Exk9LvfbD3i6+PDRJUZWblPPX8kBtlt90eb/DDXe6maamr3hwx3X+h40hmQt8gAAEIRAeB7rX66GDIKCCgdQKhW73WR0r/IaB1Alh9R61+U+ZhMdGopNxYVHJr5brd8jNmUrrYtSxjp9y4KzsnoKbKOwjK5/Qi/Oe1Ycehex/svXHnYdnPdVv33/NA7w07DsktykK1xfbcy++lLl4vNrZ5eEFR+aO9Xt936KSyEcoQgAAEINAFBLD6LoDMKSAQ4QSw+gi/QHQPApIAVv+D1ReXVU5IWT5q0nz5eX/i/EEjk3V6w6CRye9P/GH7qEnzJ6QsLy6rdHu8RpM1afpind4wI33t1ycuKZcJCVhuLXWvRasfb1j6aK/XS8qN8vd0pbDsn57qJ71dbheFDTsO/eOTr1wquCG+tnm4y9307thZf9SNs9ocqqb4CgEIQAACYSWA1YcVL41DQBMEsHpNXCY6CQG3x4vV/2D1YqmbgCruv1H5UpzcvCuDRiYPS0otKCqXzxSZzHVi8dtps1dVVFaLB41M5rqAiXq3x2sy142etCDIi0A08Xvdd+jkPQ/0DrjqaYPD8/qwqS+//WGd3dnaWPwPz8zK+btH++acutzaIWyHAAQgAIFwEMDqw0GVNiGgLQJYvbauF72NZQJYfQCrn5G+VkyYX5axUyy9O2LcHDmLfkb6Wp3eoLR6h7MxNy/fanPIfLv/XQC55dS5qwF/cHLt0EWrtml0WR3xnHyPpwcU3giw6um14psP/PLVmenrAg5fPmavOvxSwY1/eOJP85Zvbu0otkMAAhCAQDgIYPXhoEqbENAWAaxeW9eL3sYyAaw+gNVL8ZaWrpw2L17IqbR6+QNyuZvanau/fLVk8KgUnd4wPnmpudYu29RKocbaMGT0jHsf7L31y2MB+/xV7sUf9Xh+V3ZOwL2tHX7bWPPU74YMTZwZ8Cg2QgACEIBAmAhg9WECS7MQ0BABrF5DF4uuxjgBrD6A1X+x/WBuXn5uXv6xby4kTV+i0xuSpi859s0FsfGL7Qdlrl45aX/jzsPyXbgyM+9fCHg7wO3x7j+WJyoPGf1x/rVSbf0ujSbrH99KuvfB3hkb97U20WBXds49D/TefyzPf2hBDrfU1vd5bUyf18ZYauv9D2QLBCAAAQiEiQBWHyawNAsBDRHA6jV0sehqjBPA6gNYvb+K+28Rcq60+i27j+7KzpFr3bdWyNi4r9JoUf3s6h3u1MXr5Vm27D6qqhDJXwuKyp96fsj9j/X98kBukH7uys65/7G+ch6ErBn8cKxegqIAAQhAoCsJYPVdSZtzQSAyCWD1kXld6BUE/Alg9QGsflhSqlgGP+Aa+MOSUmWu3lJbf/zkJZHPz8xqmVueffS0XELfv5CclmGuCTC7/kbZbdGsEPuk6YuDvPLd/yp245YzFwt/+uzAnz478MzFwuDdCJirb/NwrD44VfZCAAIQCBMBrD5MYGkWAhoigNVr6GLR1RgngNUHsHqZTw7luXpZR1h9ZlZOwDfhDU2cqdMbRk9aYDLXqX5zLnfTqg17xFGr1u8R79LLPnpaVS0Cv14vrXz8N4Me/82g66UtL/kL/hHP1W/b85WsFsrhPFcvcVGAAAQg0JUEsPqupM25IBCZBLD6yLwu9AoC/gSw+h9cVE6nP5pzXryIrqKyetrsVTq9Qfl2uqM552Wu3u3xBrR65XP44mn8Rau2tWb1p85dFSY/NfWz28aaqamf6fQG/YS5FZXV/hcsoraMnbooLj6hz2tjRoxPU372Hjrh38+ScmOPpwdMmbVS7HK5m0I5XKyBH/BVef6nYAsEIAABCHQWAay+s0jSDgS0SwCr1+61o+exRgCrD2D18vn2IAW56F1Aq2/tQP9cfWlFVeLkdJGoz8274vZ4j31zQRz+8YI1tXUNkfyLfOp3Q+LiE/w/qYvX+3dbvK/+j7pxVpvD7fGKJLz/sXHxCcrD1207EPBpfP/22QIBCEAAAp1IAKvvRJg0BQGNEsDqNXrh6HYMEsDqO83qV67bnZmVs33vV6rcvkj7b8o84p+rl0qv0xtWrtvtcDaK5P+M9LVC7GcuXBtNa79v2/PVT57sd+Hb4hD/0hocnkEjk+WNgBCPohoEIAABCHScAFbfcYa0AAGtE8DqtX4F6X/sEMDqA1h9+2bg6/SGlHmrN+483FqiXmn1LnfT6fPX3h07S1QeO3XRbWON/NkVFJXLxfM+mLLwYv6N1l4XJw/RRKHaYnvu5feS0zJC7O2Fb4t/8mS/fYdOhlifahCAAAQg0FkEsPrOIkk7ENAuAaxeu9eOnscaAaz+B6v3v/Zydn3KvNV1dqd/BbfHa7U5ktMyhJwb5ny+fkfL2+yDP1dvq3cty9gp5X/s1EX+j9Dn5l0ZPCpF1pm9ZH3AxfMDdimSN2Zm5Tz1/JAbZbfb7KTL3TQtdVW/IR+JGftt1qcCBCAAAQh0IgGsvhNh0hQENEoAq9fohaPbMUgAq++o1ReXVYq8+scL1pjMdWINfHEXoMba8MX2Axkb92UfOT0+ealOb0hOy7DaHA5n48p1u4Wxj09e6q/04oeYd+GaWDlfpzdkZh2PjnR9vcM9YnzatNRVbQ7nYv6Nni8MvZh/Iwb/LBkyBCAAgW4ngNV3+yWgAxDodgJYfbdfAjoAgRAJYPUdtXqXuykz6/jSjJ22epfb41VavcPZOH/FZplv1+kNew7migtz21iTNH3x0oydwRPRRpN17vJNn33xpXjkPsSLSjUIQAACEIBABwlg9R0EyOEQiAICWH0UXESGECMEsPpgVu9wNl66ciM3L//SlRtBvNrlbnK6Wha6E2vdmcx15hq7yEXXWBvEankmc51qDr+t3tVmvjpGfoUMEwIQgAAEIo0AVh9pV4T+QKDrCWD1Xc+cM0KgfQSw+mBW3z6mHAUBCEAAAhDQOgGsXutXkP5DoOMEsPqOM6QFCHQNAaweq4cABCAAAQhAQE0Aq++aOIyzQCCSCWD1kXx16BsElASwenUco6RDGQIQgAAEIBCbBMJt9eU3K/lAAAIQgAAEINCJBCpu3faF539/Y5i9wjB7eXgab2n1tskam/EWo4YABCAAAQiEj0C4rT58gQEtQwACnUWg/GZlZzVFOxCAQFgJiL9WrJ6MPQQgAAEIQAACPxDA6sMaftE4BDRBAKvXxGWikxDw+XxY/Q8RTPgyHrQMAQhAAAIQ0BYBrJ4wEQIQwOr5DUBAKwSweqweAhCAAAQgAAE1AaxeK5Ec/YRA+Ahg9eFjS8sQ6FwCWL06jtFWLoXeQgACEIAABMJBAKvv3HiL1iCgRQJYvRavGn2OTQJYPVYPAQhAAAIQgICaAFYfm3Eho4aAkgBWr6RBGQKRTACrV8cx4ch40CYEIAABCEBAWwSw+kiO3ugbBLqGAFbfNZw5CwQ6TgCrx+ohAAEIQAACEFATwOo7HmPRAgS0TgCr1/oVpP+xQwCrV8cx2sql0FsIQAACEIBAOAhg9bETCzJSCLRGAKtvjQzbIRBpBLB6rB4CEIAABCAAATUBrD7SIjb6A4GuJ4DVdz1zzgiB9hHA6tVxTDgyHrQJAQhAAAIQ0BYBrL59cRVHQSCaCGD10XQ1GUt0E8DqsXoIQAACEIAABNQEsProjv8YHQRCIYDVh0KJOhCIBAJYvTqO0VYuhd5CAAIQgAAEwkEAq4+EKI0+QKB7CWD13cufs0MgdAJYPVYPAQhAAAIQgICaAFYfeixFTQhEKwGsPlqvLOOKPgJYvTqOCUfGgzYhAAEIQAAC2iKA1UdfzMeIIHC3BLD6uyVGfQh0FwGsHquHAAQgAAEIQEBNAKvvrsiM80Igcghg9ZFzLegJBIITwOrVcYy2cin0FgIQgAAEIBAOAlh98PiJvRCIBQJtWr3JYisuMxWVGNvxKS4zmSy2WMDIGCHQBQSweqweAhCAAAQgAAE1Aay+C4IwTgGBCCcQ3OpNFluV2eb13mnfKLzeO1VmG2LfPnocBQEVAaxeHceEI+NBmxCAAAQgAAFtEcDqVQETXyEQgwSCW31xmandSi9ger13istMMQiWIUOg0wlg9Vg9BCAAAQhAAAJqAlh9p4dcNAgBzREIbvVFJcaOj6hTGul4N2gBAlongNWr4xht5VLoLQQgAAEIQCAcBLB6rUd49B8CHScQgVZfaXYu2n597qbCED+Ltl+vNDs7joIWIBDhBLB6rB4CEIAABCAAATUBrD7CAzi6B4EuIBCBVl9QatMln+4/+USIH13y6YLSAGvyNThcbwyf9sbwaQ0Olz9JsTdp+mL/XWyBQGQSwOrVcUw4Mh60CQEIQAACENAWAaw+MuM2egWBriQQgVbf2HTHYvOYrW7lp7Dc/u6sM+/OOlNYblduN1vdFpunsSnAen5YfVf+kDhXFxDA6rF6CEAAAhCAAATUBLD6LgjCOAUEIpxABFp9QGJmq3tY6tlhqWfNVnfACne7kVz93RKjfrcTwOrVcYy2cin0FgIQgAAEIBAOAlh9t4dodAAC3U4giq1elatvbm7eezD32Rf/8lDP/n0GjMk7X/DG8GnMwO/2XyAdCJ0AVo/VQwACEIAABCCgJoDVhx5LURMC0Uogdqx+/fYDD/Xs/8rgCbuyjxvmrEro9/6zL/4Fq4/WH3ZUjgurV8cx4ch4xEKbuXlX/vnXb546d1U52Ooa+9ipi/7+Zy/GxSfc16PP2KmLqmvsskKNtWHijBV/92jfuPiEh3r2X7/9oMPZKPdSgAAEIACBbiSA1Udl2MegIHBXBGLE6s0Wa58BY3R6g62+QfDZezC3x9MDsPq7+rVQuXsJYPXBrL7O7kyZt1qnN6TMW11ndwaMrpyuxpxTl89cLPTfuzRjZ/BjlYfUWBtM5rrWPvUOt7KyLIfSQ1k5fIUTZ6789NmB9z/WV2n11Rbbi6+Pva9Hn8TJC7fsPjpmUvq9D/Z+8fWx1Rab2+Otd7hHjE+798HeYyalr9t24A9vJt3zQO/ZSza43E3h6yctQwACEIBAiASw+u6Nzzg7BCKBQIxY/ZkLVx/pNXBX9nHJ3GZvePntD7F6CYRC5BPA6jtq9ZsyD+v0hhHj5pSUG4tKbq1ct1t+xkxKF7uWZeyUG3dl51RWWUZPWqDTG+QnZd7qtGUb5Vf/gtKWlQFZt1t9jbVh1qIv7uvRJy4+QWX1G3YcuvfB3ht3HpYdXrd1/z0P9N6w45Db491/LO+eB3qnLl4v9tY73G+OmP7Pv37z5m2zrE8BAhCAAAS6iwBWH/kxHD2EQLgJxIjVHz5+9pFeA89cuCp5uj2Nf06cidVLIBQinwBW/4PVF5dVTkhZPmrSfPl5f+L8QSOTdXrDoJHJ70/8YfuoSfMnpCwvLqt0e7xGkzVp+mKd3jAjfe3XJy75C7lqS8q81RWV5tasfmjiTHlSZVlYvcPZWG2xKfP5FZXV02av0ukN02avqqisVu4y19idrrBPaE9dvD4uPuE3r4xckrFDZfXjDUsf7fV6SblRhqRXCsv+6al+wuSXr878l//QXSq4IfcmTl74yLMDy2+Z5BYKEIAABCDQXQSw+siP4eghBMJNIGatvqnJq/8wDasP9w+M9juRAFb/g9VfK64YmjhTJeGtfR2aOPNacYUItnLzrgwamTwsKbWgqNxcY5dqPX/FZn/frne4na5Gc4397KWid8bMHPnRvOulleYa+5KMHTq9ITMrR6bflWVh9XfVw9GTFpjMdeEOB5dl7JyzdIPV5tiVnaOyev9T7zt08p4Heq9Ys0u1q87uXLM5+/7H+o78aF6Dw6Pay1cIQAACEOh6Alh9JwZbNAUBjRKIEatnBr5Gf590W0kAqw9g9TPS14oJ88sydo4YN0c1i35G+lqd3qC0eoezMTcv32pzSCFv7V6ATm+Qc+mFokv3Fg/hT/5kpTypshyxVi8DzTatXjxm3+PpAYU3bsqj3B6vyPbHxScM/MsU5Vp6yjqUIQABCECgiwlg9cpoiTIEYpNAjFi9tc7+n2/8deCwKXK1vOwjJx9+5jVy9bH5s9foqLH6AFYvxVtaunK1vFPnrqqsXkZaLndTKLl6UT+g1bd2O0Bl9Zsyj4gZAQFn4G/KPKLTG+T9Atm9sBaCW32NtWHI6Bn3Pth765fHVN3Yd+jkhh2Hho+bo1xLT1WHrxCAAAQg0MUEsHqNBnZ0GwKdSCBGrN7n8wmN/8NbSVt2HUlbuuHRXq8/1LM/Vt+JvyWaCjcBrD6A1X+x/WBuXn5uXv6xby4kTV+i0xuSpi859s0FsfGL7Qel1SunxG/ceVgsmN+amYvtMskf0OoXrdomT6osq6w+MytHhHcB7ztkZuVElNUbTdY/vpV074O9MzbuC7LE/bqt+79bcm/x59u7OHLldBCAAAQg4E8Aqw93BEb7EIh8ArFj9c3Nzbl5l/sO/OChnv2fSHg7feWW/3rnI6w+8n+i9FASwOoDWH1wLVfKudLqt+w+uis7R65131ohY+O+knKjyv+XZuwUM/CVz9Iry9q1+oKi8qeeH3L/Y32/PJDrHzUqt5SUG3s8PWBo4kzlRsoQgAAEINAtBLB6GSpRgEDMEohiq4/Za8rAo5UAVh/A6oclpYpl8OVy9Mo18IclpcpcvaW2/vjJSyKfL/Ln2UdPyyX0/QvJaRnmGrtMsMvbB9Lq5RZVQWX1QxNnBumhWPMvEmbgn7lY+NNnB/702YFnLhaqotIPpix86vkhyvfYXSu++cAvXx2eNFtVk68QgAAEIND1BLD6aI38GBcEQiegFat3uLwZe0sz9pY6XN7QR0dNCEQTAaw+gNULhXZ7vFK/gzxXL+sIqxez35V3AYR+K01bPH6vXAO/xtogcvUqmZdfVVYvtwcpdLvVXy+tfPw3gx7/zaDrpS2vAFR9VqzZFRefsG7rfrHd5W6avWSDfJu9qjJfIQABCECgiwlg9dEU7TEWCLSPgFasvn2j4ygIRBMBrP4H25TT6Y/mnA+yFt3RnPMyV680f6XVK5/DF0/jL1q1TfWsu+q5ehmuqW4TyO1uj1f2cNGqbUGe/Pc/l7KRMJVVq+W53E1jpy6Ki0/o89qYEePTlJ+9h064PV6xJP59Pfp895r6DTsOvTNmZlx8wojxafUOd5h6SLMQgAAEIBA6Aaw+mqI9xgKB9hEIbvXFZSav9077WhZHeb13istMHWmBYyEAAUEAqw9g9UES4HKXXPROJeEiVy+rqQrK/LnS6m31rvSVW1WT6uU0+1GT5mcfPa20+shfLe+2seap3w2Ji0/w/6QuXi/Cyuoa+9ipi+7r0ScuPuGhnv0XrdpmtTlCjzipCQEIQAAC4SOA1RMpQgACwa3eZLFVmW3tFnuv906V2Way2OAMAQh0nABW32lWv3Ld7sysnO17v9LpDdNmr6qorBYJf/Gv/9vmhNWP/Gje+cvXj+ScnzJrpeoWgPKr0HiZq49Aqw9fZEnLEIAABCDQ9QSw+o7HWLQAAa0TCG71Pp/PZLEVl5mKSozt+BSXmVB6rf9C6H/kEMDqA1h9+2bg6/SGlHmrN+48rLRxVVnk6h3Oxu/We1+3df+gkcmiQnJaRqXRopr2L19KbzLX1dmdylx9BM7A7/qIkzNCAAIQgED4CGD1kROr0RMIdBeBNq2+uzrGeSEAARUBrP4Hq/ePjeTseuVqeapqVpsjOS1DyLlhzufrd7S8zT74c/XXSyvfHTtLKfzK3H5FZfW02at0eoPS6k3munqHW+bqlce2VlbO9lf1ma8QgAAEIACB4ASwelXAxFcIxCABrD4GLzpD1igBrL6jVl9cVinedffxgjUmc514rl7cBaixNnyx/UDGxn3ZR06PT16q0xuS0zKsNke1xZY4OX3QyOSZC9d+c/pbo8mqen19QFE/de4qVh88BmUvBCAAAQh0FgGsXqOBHd2GQCcSwOo7ESZNQSCsBLD6jlq9y92UmXV8acZOW73L7fEqrd7hbJy/YrNS0fcczHV7vGIGvsPZKGIv5VJ5/q+4l1vOX74urV4+Vx8wehN9IFcfEA4bIQABCEAgFAJYfVjDLxqHgCYIYPWauEx0EgI+nw+rD2b1DmfjpSs3cvPyL125ISXcPxhyuZucru8Vvc7uNJnrzDV2l7vJ7fHWWBvkmnni2Xj/w0Pf4nA2Vlts8jH71g6UfZC9aq0m2yEAAQhAAAIBCWD1hIkQgABWz28AAlohgNUHs/qAgQ4bIQABCEAAAlFPAKvXSiRHPyEQPgJYffjY0jIEOpcAVo/VQwACEIAABCCgJoDVd268RWsQ0CIBrF6LV40+xyYBrF4dx0R9+oUBQgACEIAABNokgNXHZlzIqCGgJIDVK2lQhkAkE8DqsXoIQAACEIAABNQEsPpIjt7oGwS6hgBW3zWcOQsEOk4Aq1fHMW2mL6gAAQhAAAIQiHoCWH3HYyxagIDWCWD1Wr+C9D92CGD1WD0EIAABCEAAAmoCWH3sxIKMFAKtEcDqWyPDdghEGgGsXh3HRH36hQFCAAIQgAAE2iSA1UdaxEZ/IND1BLD6rmfOGSHQPgJYPVYPAQhAAAIQgICaAFbfvriKoyAQTQSw+mi6mowluglg9eo4ps30BRUgAAEIQAACUU8Aq4/u+I/RQSAUAlh9KJSoA4FIIIDVY/UQgAAEIAABCKgJYPWREKXRBwh0LwGsvnv5c3YIhE4Aq1fHMVGffmGAEIAABCAAgTYJYPWhx1LUhEC0EsDqo/XKMq7oI4DVY/UQgAAEIAABCKgJYPXRF/MxIgjcLQGs/m6JUR8C3UUAq1fHMW2mL6gAAQhAAAIQiHoCWH13RWacFwKRQ6D8ZiUfCEBAQwQqbt0O039A/sYwe4Vh9vIwte7z+W6brFEfWjFACEAAAhCAQBcTwOrDF7rQMgS0QoBcvVauFP2EALl6cvUQgAAEIAABCKgJYPXEiBCAAFbPbwACWiGA1avjmC5OhnA6CEAAAhCAQAQSwOq1EsnRTwiEjwBWHz62tAyBziWA1WP1EIAABCAAAQioCWD1nRtv0RoEtEgAq9fiVaPPsUkAq1fHMRGYMKFLEIAABCAAgS4mgNXHZlzIqCGgJIDVK2lQhkAkE8DqsXoIQAACEIAABNQEsPpIjt7oGwS6hgBW3zWcOQsEOk4Aq1fHMV2cDOF0EIAABCAAgQgkgNV3PMaiBQhonQBWr/UrSP9jhwBWj9VDAAIQgAAEIKAmgNXHTizISCHQGgGsvjUybIdApBHA6tVxTAQmTOgSBCAAAQhAoIsJYPWRFrHRHwh0PQGsvuuZc0YItI8AVo/VQwACEIAABCCgJoDVty+u4igIRBMBrD6ariZjiW4CWL06juniZAingwAEIAABCEQgAaw+uuM/RgeBUAhg9aFQog4EIoEAVo/VQwACEIAABCCgJoDVR0KURh8g0L0EsPru5c/ZIRA6AaxeHcdEYMKELkEAAhCAAAS6mABWH3osRU0IRCsBrD5aryzjij4CWD1WDwEIQAACEICAmgBWH30xHyOCwN0SwOrvlhj1IdBdBLB6dRzTxckQTgcBCEAAAhCIQAJYfXdFZpwXApFDAKuPnGtBTyAQnABWj9VDAAIQgAAEIKAmgNUHj5/YC4FYIIDVx8JVZozRQQCrV8cxEZgwieQuVdfYx05d9Pc/ezEuPuG+Hn3GTl1UXWOXHa53uOcu3/Tjx1+Ki094qGf/let2O5yNcm/wY2U1q83Rb8hHfV4bY6mtlxuDFHLzrvzzr988de6qf52tXx57/DeDym+Z/Hcpt9RYG/46bfF9PfrExSc88du39x464XI3KSuI8i2j5annhwxNnOm/y39L8FOH0lRrvbLU1vd5bUxcfIL/J3Xxev+euD3eecs3qyo/8uxAfyzB+xywZTZCAAJRQwCrj444sDpTMgAAIABJREFUj1FAoCME2rR6k8VWXGYqKjG241NcZjJZbB3pHsdCAAKSAFYfzOrr7M6Ueat1ekPKvNV1dmfAWM3pasw5dfnMxUL/vUszdgY/1v8Q5RZbvSt95dZRk+anr9xqq3fJXeZa+9ot2YmT0wuKyl3uJnON3WSuC/hprc+yqQ4Wqi22F18fe1+PPomTF27ZfXTMpPR7H+z94utjqy02t8frcjeNnbooLj7hnTEzV2/K+sObSfc80Hvu8k3ipMGPlR1zuZtmL9kQF58QotWfOHPlp88OvP+xviqrd7mbMrNy7n+sb0B9ladze7ziJoIY1Gfr9zzT9917H+ydmZWjrOP2eOsd7hHj0+LiE9q0+jZPHUpTQXpVZ3fOWbphxPg0+Rk+bs5Pnx0YsNtiFEMTZ/7jk6+8O3aWPGTijBUmc50cY5t9ljUpQAAC0UoAq5ehEgUIxCyB4FZvstiqzDav9077+Hi9d6rMNsS+ffQ4CgIqAlh9R61+U+Zhnd4wYtycknJjUcmtlet2y8+YSeli17KMnXLjruyceof7/OXroybNV32yj55WRoet3VO4ZTS/P3G+Tm+YvWS9ucYu7jvo9Ab/j7+LKtvveHnDjkP3Pth7487Dsql1W/ff80DvDTsOuT3eC98W//jxl6alrhKJ7nqH+92xs3o8PaDwxk23xxv8WNlg7un8f3zylfsf69um1ddYG2Yt+kIk2FVWb6yqHTMpXWSn27T6fYdO3vtg73Vb94s+VFtsv+s/+rmX3xO3KmTHNu48fP9jff/PT38f3OpDOXUoTYXYK9G93NP5//ef/zB7yYaAUwzMtfber44a/H5KwL1ujzeUPksOFCAAgWglgNWrAia+QiAGCQS3+uIyU7uVXsD0eu8Ul5liECxDhkCnE8Dqf7D64rLKCSnLlab9/sT5g0Ym6/SGQSOT35/4vyR8Qsry4rLKFgUyWZOmL9bpDTPS13594pK/Wqu2iLT/qXNXVdt1eoNKwv2tPvvoaZG6F7cSdHrD4Zxz3Wj14w1LH+31ekm5UQa1VwrL/umpfmLi94o1u1R2vf9YnkwgBz9WNHi9tPLx3wz6ZOG6d8bMbNPqUxevj4tP+M0rI5dk7FCdd2jizLj4BJ3eMHHGijatPnHywkd7vV5aUSUH5T+Q3LwrP3my32dffNnntTHBrb7NU4fYVCi9Eh02VtX++qURv+s/WnUbQg6npNzY4+kBrU3Od3u8bfZZNkUBAhCIYgJYfaeHXDQIAc0RCG71RSXGjo+oUxrpeDdoAQJaJ4DV/2D114orhibO9JftgFuGJs68Vlwh4rncvCuDRiYPS0otKCpXzoefv2KzTm+YNntVRWW1nCFf73C7PV5h9UNGf7xo1bZlGTtHjJuj0xs+37h39KQFQU6XmZUjpvRXVFbvys4pv2UKmG6VtwNUtwm6IPrcd+jkPQ/0XrFml9vjHZ40W6XQ14pvPvDLV2emrwvYE+Wxcoq7mM8/NLFtq1+WsXPO0g1Wm2NXdstMe+UM/A+Tl63fftDhbExdvF7VJVVPaqwNL74+VnUH4avciz/q8fy2PV+JyuLZge/mrhuratu0+uCnDtJU+S3TI88OFD0JpVdyIKmL19/7YG/lvA9lU26P98SZK3//sxfTlm38j5f1cfEJP378JcFNthC8z7IaBQhAILoJYPVaj/DoPwQ6TiACrb7S7Fy0/frcTYUhfhZtv15pdnYcBS1AIMIJYPUBrH5G+loxYV769ohxc+Qs+hnpa3V6g9LqHc7G3Lx8q80hdTqgmYuNwjaF1Y+etMBkrpNHhW71dXbnmYuFcla/slBUcks22MVWLxxVzrEfmjiz96ujzLU/LJ4n9DJgclt1rNvjXb468ydP9ruYf0Nkj1WmHSSY9rd6WblNqxcrz6lmp586d/X+x/qK5LZYLOCp54fcMlpE5YDDkWeUBf9TB29KqeJt9kqepfDGze/4vzliurh5JLYrm3J7vOu2HYiLT/h/P//DxwvWrNt24A9vJsXFJ4wYn6Y8RBzo32d5IgoQgEDUE8DqIzyAo3sQ6AICEWj1BaU2XfLp/pNPhPjRJZ8uKA2wJl+Dw/XG8GlvDJ/W4HD5kxR7k6Yv9t+l2rJibeZDPfv7f37+3FvfFtxQVe70r4ePn32oZ//Dx8+KlpOmL1b15NFer7/7wSeXC4o7/dQ0GGkEsPoAVi/TvFKPlavlCSFXWr2M7VRr17WZq1dZ/ZbdR89cLMzNyxefY99cSJq+RKc3JE1fcvzkJUttvczV19mdoux/++DUuauy211p9TXWhiGjZ9z7YO+tXx5ze7wNDs+bI6arVLw1q1cd6/Z4c/OuPPDLV0VTXWn1JnPdc38aoRJ1pdVv/fLYA798NTfvitvj7aDVh95Um72Sv8DFn29XJerlLllIW7ZRDsHt8TqcjZNmfnrPA733HTop64gCVq8CwlcIxBQBrD7SIjb6A4GuJxCBVt/YdMdi85itbuWnsNz+7qwz7846U1huV243W90Wm6exKcB6fp1o9T2eHjB83OyJM5YrP8lpn9+sDPuSAf5Wr+pMvyEfPfzMaw8/89q2L482Nzd3/U+IM3YZAaw+gNV/sf2gv1cf++aC2PjF9oMyV6+ctL9x5+Egj7hL/Ra3AwLm6jOzcmz1rhNnrojXv0k5l/cU/K0+afoS0TF5C6BbrN5osv7xraR7H+ydsXGffCggxFy9/7HiyXBl9jiUGfgy2g5frr6gqLzH0wPkKnQdsfq7airEXH21xfbcy+/5L+wnybRWELctpsxaqaqA1auA8BUCMUUAq++yUIwTQSBiCUSg1QdkZba6h6WeHZZ61mx1B6xwtxvvKlffNWn5gEPwt3r/zpTdNPb+r1FPJLx95VpJwEbYGB0EsPoAVi8NPEhByLnS6rfsProrO0c5GT5gOWPjvkqjRVi9qv1P1+4en7z0v5fNO+5yN4Vi9VL4ZeWut/qCovKnnh9y/2N9vzyQqwx5Q3muPuCxu7JzVG9Tl1+HJs4UCX+5xf85+dCtXtisbKrPa2MqKi1BnqsXC/LJ+spCkMXnBBOVId9VUyE+V59z6vLfPtynzZ64PV7VKw/F+nmqGQpuj1fVZ+XFpQwBCEQ9Aaw+OuI8RgGBjhCIYqtX5eqbm5v3Hsx99sW/PNSzf58BY/LOF7wxfJqYgZ++cotKlW32hpff/nB88pLm5uYVazNVe1XAm5ubT5+/8urQiWJu/KtDJ569eFXUEX0YNXHe9DmrxHkLisreGD7tr9MW7T2Y+2+/Hyo2njqXX2erT5ycLrLuKXMzHM7vb16EYvU+n++rE+d7PD3AMGeVqm98jSYCWH0Aqx+WlCpWwg+4Bv6wpFSZq7fU1h8/eUnMkxfT3cUy9cqF9JXl5LQMc03Lc+YBrX7nvuOrN2WJxguKyqWoS3X3z9Wr7gvo9IYutvozFwt/+uzAnz478MzFQlWM6790/P5jefc80FsuO9fasaUVVVt2H1V+ftd/9BO/fXvd1v25p/PDavWW2vqAq83/3aN9T5y5cqnghrJX67buf+K3b/+u/+gtu49eKmh5/j/IR2XId9tUkF7Jk85bvlm1TKDcJQsi7f+rPw6vqrbKjWI5wHnLN8stoqDqs2ovXyEAgegmgNVHU7THWCDQPgKxY/Xrtx94qGf/VwZP2JV93DBnVUK/95998S/C6r8tuPHz595asTZTMjxz4erPn3vrqxPnfT5fm1affeTkw8+81nfgB1t2HVm9ed+vXxrx8DOvZR856fP5hNX3eHrAH3Xjtu859sW2/ZZa2xvDp/38ubd6vvDnxau2rd6875m+f3n2xb/0HfjBsL/O2pV9fPSk+Q/17J++covoTIhWL25DvPaXyfUNLBwoL2O0FbD6H0xMJt7v6rl66d7C6oV4+78JT6yuLx6kl1Y/8qN510srKyqrp81eJd5sZ66xi3R90vTFpRVVYkp/xFq9ePPc478ZdL205SV/qk/w99UHP1bVVJfNwHd7vKG/Gb4jM/BVA2yzqTZ75XI3DX4/5anfDbltrFE1rvqanJYhlz8Q7xp4d+ysHz/+0oVvi1U1sXoVEL5CIKYIYPXRFvExHgjcPYEYsXqzxdpnwBid3mCrbxCQ9h7M7fH0AGH1LrdnyKiPlevqpS3d0GfAGLPF2qbVi5YHDpsiW66ptb389of/9c5HtvoGYfX/9vuhpRW3xXnFlp8/99aFb4vEll3Zxx/q2X988pLGpiafzyf8XKc3iHR9iFbv9jT+OXHmr18aYTLX3v2vgCO0QQCr/8FFpdUfzTkvXkQnfVv5drqjOedlrl5MZhburbR6+bi7XPpu0aptOr1BZfWq1fJEC6fOXR00MlmnN2Rs3Nem1UvhlzcXuixXL5Zwj4tP6PPamO9e86b87D10QiyYN/KjeXHxCYNGJq/elPWHN5PueaC3eCi9zWNVoXNXWr2ltv4Pb7asETBmUvpn6/c80/ddpQMrO9amiisrBzdk/6ZUC9e32Stzrb33q6NefvtD1ez679YaVDUl7qfc16PPlFkr12078MJrH3z3KIFcLCD0PitrUoYABKKPAFavjTiOXkIgnARixOrPXLj6SK+Bu7KPS5ZCnuUa+Gu3ZMtp9rVW+wsDE6fPWSUWnwu4Br6s/M3pSz2eHqBs2efzrd2S/UivgWcuXBUOr7xfILYok+rC2/cfPSX61tzcnDg5XR4SotX7fL6k6Yuxenl9o7KA1Qewev9p7f5b5Br4UqeVVu9fX2wJxeodzsbPN+w9dPxsbV1Dm1Yvbx90/Wp5t401T/1uiPLZclmWj3ZbbY45Szf8+PGX4uITHurZf+W63WIhwFCOVYbIXWn1bo+3usY+duqi+3r0iYtPeOK3b+89dEIuAajslb+KK/eqyh20+jZ7JdTd/9l4f6t3e7wl5ca33pt+74O9xQC3fnks4ACD91k1QL5CAAJRRgCrj8qwj0FB4K4IxIjVHz5+Vmi2hCOS29LqrxWXP5HwtpiE/83pS4/2ev2b05dE5RVrM1XLzk+csVwugO/fss/nkyremtVLaVdWln1Lmr5YVpBNib1J0xfLGwqyvs/nczjdOr0Bq1cyib4yVt9pVr9y3e7MrJzte7/S6Q3K3L5I+2/KPOKfq/efga8MCuX9ApmQj8Dn6pUdpgwBCEAAAlFDAKuPvpiPEUHgbgnErNU3NXn1H6ZJqxeSP2TUxy63xzBn1QsDE2utdgEz+HP1EWL1Yn6BvBdwtz8D6muCAFYfwOrbNwNfpzekzFu9cefh1hL1/lavqimy/TIiDMXqR4ybsyxjp3Kx/aKSW/JAVYOyZQoQgAAEIACB4ASwek2EcXQSAmElECNW3+YMfJ/Ptyv7+BMJb+fmXX5hYGLa0g0Se3Crb20G/j//+s1LV653Wa5erIEv19iTnacQTQSw+h+s3j++kXoss+X+daw2R3JahvBzw5zP1+9oeZu9nBgf/Ll6f6t3uhovXy0RR2UfOS3W209dvL7e4XZ7vMpc/ZmLhSvX7d6VnSN2OV2N5lq7w9nocjcVldx6b3yaWH7Pv8NsgQAEIAABCLRJAKuPpmiPsUCgfQRixOqtdfb/fOOvyjXtxML1Mlfv8/kqbpl6/eewkRPmPvm7IecvF0qewa2+tdXy/vONv1rr7F1j9eJ99b/s807hjQrZbQrRRwCr76jVF5dVCvf+eMEak7lOKd411oYvth/I2Lgv+8hpsbJ9clqG1eaQa+AHXC1vw45DKtvfsvuoCL+UjasCsnqHO3XxetWBcjF/VWW+QgACEIAABIITwOqjL+ZjRBC4WwIxYvU+n09o/B/eStqy60ja0g2P9nr9oZ79lVbf1OQdPWl+j6cHiOXrJcngVi9bDvJmO+XEeH/PVz05L9a9k4eo9iZNX6x6yP/ltz98qGd/+S492W0K0UcAq++o1bvcTZlZx5dm7LTVu1TpdIezcf6KzUrT3nMwV0RRRlNtbl7+mYuF9gaXy91krrGbzHVi9fIzFwuVh0yf87nR9P2rxYNYvdvj3bHva+WB6Su31tY1BA/a2AsBCEAAAhAISACrj76YjxFB4G4JxI7VNzc35+Zd7jvwg4d69n8i4e30lVv+652PlFbv8/n2HPhG+a54AbNNq29ubj59/sqrQyc+1LP/Qz37Dxw25XJBsTjW3+H9t6i8vU2rF2eR//7Lf7w1auK8ohs37/bSU19zBLD6YFbvcDZeunIjNy//0pUbYvH2gKGPy93kdDWKXXV2p8lcZ66xi0XFa6wNYrU8Ke0BW1BudDgbqy02cVSN9X9puapx5VFuj/e2sebUuau3jTUmc53qQFVNvkIAAhCAAASCE8DqNRfS0WEIdDqB2LH6UNAd+vrMv/520LcFN0KpTB0IdDEBrD6Y1QePeNgLAQhAAAIQiFYCWH0XB2ScDgIRSEArVu9weTP2lmbsLXW4vCFirG9wvvaXyYmT08Vr59s8qrGp6f2P5oll8NusTAUIdD0BrB6rhwAEIAABCEBATQCr7/qYjDNCINIIaMXq28FtyefbH37mtVCWhbfXO1IXffHaXyY//Mxr+4+ease5OAQCXUAAq1fHMdGadWFcEIAABCAAgdAJYPVdEIRxCghEOIHgVl9cZvJ673RkCF7vneIyU0daaPex4hF3o8nSZgvWOvvLb3/48DOvLfl8e2NTU5v1qQCBbiGA1WP1EIAABCAAAQioCWD13RKWcVIIRBSB4FZvstiqzLZ2i73Xe6fKbDNZbBE1ZDoDAY0SwOrVcUzoeQxqQgACEIAABKKVAFav0cCObkOgEwkEt3qfz2ey2IrLTEUlxnZ8istMKH0nXiyainECWD1WDwEIQAACEICAmgBWH+MBIsOHgM/na9PqoQQBCEQIAaxeHcdEa9aFcUEAAhCAAARCJ4DVR0igRjcg0I0EsPpuhM+pIXBXBLB6rB4CEIAABCAAATUBrP6uwikqQyAqCWD1UXlZGVRUEsDq1XFM6HkMakIAAhCAAASilQBWH5VhH4OCwF0RwOrvCheVIdCNBLB6rB4CEIAABCAAATUBrL4bgzNODYEIIYDVR8iFoBsQaJMAVq+OY6I168K4IAABCEAAAqETwOrbDKGoAIGoJ4DVR/0lZoBRQwCrx+ohAAEIQAACEFATwOqjJtRjIBBoNwGsvt3oOBACXUwAq1fHMaHnMagJAQhAAAIQiFYCWH0XB2ScDgIRSACrj8CLQpcgEJAAVo/VQwACEIAABCCgJoDVBwyb2AiBmCKA1cfU5WawmiaA1avjmGjNujAuCEAAAhCAQOgEsHpNh3d0HgKdQgCr7xSMNAKBLiCA1WP1EIAABCAAAQioCWD1XRCEcQoIRDgBrD7CLxDdg4AkgNWr45jQ8xjUhAAEIAABCEQrAaxehkoUIBCzBLD6mL30DFxzBLB6rB4CEIAABCAAATUBrF5zIR0dhkCnE8DqOx0pDUIgTASwenUcE61ZF8YFAQhAAAIQCJ0AVh+mwItmIaAhAli9hi4WXY1xAlg9Vg8BCEAAAhCAgJoAVh/jASLDh4DP58Pq+RlAQCsEsHp1HBN6HoOaEIAABCAAgWglgNVrJZKjnxAIHwGsPnxsaRkCnUsAq8fqIQABCEAAAhBQE8DqOzfeojUIaJEAVq/Fq0afY5MAVq+OY6I168K4IAABCEAAAqETwOpjMy5k1BBQEii/WckHAhDQEIGKW7eVf8KdWP4bw+wVhtnLO7FFVVO3TdbQYxRqQgACEIAABCAQCgGsXhVv8BUCMUiAXH0MXnSGrFEC5OrJ1UMAAhCAAAQgoCaA1Ws0sKPbEOhEAlh9J8KkKQiElQBWr45jQslgUAcCEIAABCAQ3QSw+rCGXzQOAU0QwOo1cZnoJATkGyuYgY/bQwACEIAABCDwAwGsnjARAhDA6vkNQEArBMjV/xDBRHfWhdFBAAIQgAAEQieA1WslkqOfEAgfAaw+fGxpGQKdSwCrx+ohAAEIQAACEFATwOo7N96iNQhokQBWr8WrRp9jkwBWr45jQs9jUBMCEIAABCAQrQSw+tiMCxk1BJQEsHolDcoQiGQCWD1WDwEIQAACEICAmgBWH8nRG32DQNcQwOq7hjNngUDHCWD16jgmWrMujAsCEIAABCAQOgGsvuMxFi1AQOsEsHqtX0H6HzsEsHqsHgIQgAAEIAABNQGsPnZiQUYKgdYIYPWtkWE7BCKNAFavjmNCz2NQEwIQgAAEIBCtBLD6SIvY6A8Eup4AVt/1zDkjBNpHAKvH6iEAAQhAAAIQUBPA6tsXV3EUBKKJAFYfTVeTsUQ3AaxeHcdEa9aFcUEAAhCAAARCJ4DVR3f8x+ggEAoBrD4UStSBQCQQwOqxeghAAAIQgAAE1ASw+kiI0ugDBLqXAFbfvfw5OwRCJ4DVq+OY0PMY1IQABCAAAQhEKwGsPvRYipoQiFYCWH20XlnGFX0EsHqsHgIQgAAEIAABNQGsPvpiPkYEgbslgNXfLTHqQ6C7CGD16jgmWrMujAsCEIAABCAQOoHutfoqc11xmamoxNiOT3GZqcpc111xFeeFQDQRaNPqTRZbR/5UTRZbNOFiLBDoRgJYPVYPAQhAAAIQgICaQDdafZW5ruK2xVJjq7Xa2/Gx1NgqblsQ+24MLjl11BAIbvUmi63KbPN677RvvF7vnSqzDbFvHz2OgoCKAFavjmNCz2NQEwIQgAAEIBCtBLrR6ovLTO1WenEXwFLTkj9URTx8hQAE7pZAcKsvLjO1W+lFT7zeO/yp3u1FoT4EAhLA6rF6CEAAAhCAAATUBLrR6otKjO1I0asOKSoxBox72AgBCIROILjVd8pfWac0EvqIqAmBaCWA1avjmGjNujAuCEAAAhCAQOgEsPpojfwYFwRCJxCBVl9pdi7afn3upsIQP4u2X680O0MfMjUhoFECWD1WDwEIQAACEICAmoCGrL6m1lZWYbxZaVKm6zueACwuvZW2dENx6a0ujvCCn7e49Fb6p1uqqms62KuS8tvL1+xMW7rh07W7Ll65HuJIg589+N4OdjjEw9s3rhAbj8FqEWj1BaU2XfLp/pNPhPjRJZ8uKA2wJl+Dw/XG8GlvDJ/W4HD5X1mxN2n6Yv9dqi0r1mY+1LO//+fnz731bcGN4GdRNhX8jKq9h4+ffahn/8PHz4oWkqYvVnXg0V6vv/vBJ5cLipWnoBzdBLB6dRwTeh6DmhCAAAQgAIFoJaAhqz978dr2PcdO5H2L1YcYs3oamzbuPPjp2l2XrlwvKb9dWFweHVbf7nGFyC0Gq0Wg1Tc23bHYPGarW/kpLLe/O+vMu7POFJbbldvNVrfF5mlsCrCeX3DfVll0kEu/Ym1mj6cHDB83e+KM5cpPctrnNytNwc+ibDb4GVV7/a1e1Yd+Qz56+JnXHn7mtW1fHm1ublaeiHK0EsDqsXoIQAACEIAABNQEtGL1Qum37zm258A3t26bpdhrN1cfPOLslHx4fYPz07WZWYdPBD+X/97gZw++17+1Tt/S7nF1ek+ipsEItPqAbM1W97DUs8NSz5qt7oAV7najyqKDHL5ibaZIywepE8qu4GdU7fW3ev8+lN009v6vUU8kvH3lWkkoHaCO1glg9eo4JlqzLowLAhCAAAQgEDoBTVi9VPrte47l5l02mmraYfWNTU1fn7iweNW2tKUbFq/a9vWJC41NTT6fT8yEz79648Cx03OXbUxbumFT5qFa6w9TeZuavHnnC/wPFMemf7qluPTWl/tzAh4bJHxUzcBvcLhEI3OXbfz6xIXCGxViBn6drX7F2sysIyeVTV0pLG1zfr5oP23pBvE5ff6K6oxtjkvO/2+tb8outVZuDbvP53N7Gr8+GeCKBAfb5rgaHK7soyfF5fhyf464B9H1T1i0BiQyt0ex1QtPljPwm5ub9x7MffbFvzzUs3+fAWPyzhe8MXyamIGfvnKLyplt9oaX3/5wfPKS5ubm4FavOovP5yu6cXPgsCliwvyrQyeevXhVXHqVtwfpj8/nC8XqfT7fVyfO93h6gGHOqsj8ddGrziWA1WP1EIAABCAAAQioCUS+1auU/nbVD4n6Wqs9xFy929O4dfeRtKUbsg6fuFJYmnX4RNrSDQe/yrtz546wxLnLNm7dfeRKYenxkxfnLd+4fvsBt6fR5/N5Ghu37zk6b/nGw8fPXCsuP3z8zLzlLTXFXnHsos+2imPFXnls8EhO6dgOpztj0955yzceP3nx8pXidVuz123Nlt6edeTkynW77PUO0eCdO3d2Zx/f9uXRpiZvkFP8/+zde3RTdaL3//NvZ34z81vHs55nzllnOgKPeMYzw3JmKvI8MkM58og6eFBbygii4ABSEKqiIoJSUJQ7yEWuoihXRSjXChRQoNwvUi6FtvRO07ShaZqmSZOQ/ZvOl9+32500DW0uO8nbleXa3dn7e3ntsPL95LsvDVbbxSuFS9Z8vWn7gWtFZbfqLOoa2+2XrN1/2/w0QOT2ttjFEZn3SQtsfmGpOCKBwPrvlyhWHK+8K0XrtuxdtHJLgNcd+O9LbL8bP6l+/dZ9XZJSBr4wKSv7SOacNclPj3v48ZEi1V+6euOB3kNWrNsuj/WZC/kP9B7y3fHziqLcVarPOXK2e6/BTw6ZuCXr4Jasg08Omdit56Dsf/w2p0n1ftoTeKoXvz4MGjnF2sj9AuXRi9kFUr12HBP4PAZbIoAAAgggEKsCekj1RcWV3x46eeTED5rEXmdu8B/pA0/1+YWlc5dtuHK9RA70jp784dONu8z1DSLr7vz26O3bd65KzT2dt3DlZoPRpChKfmHpwpWbyyqr5Y4VN40LV27OLyyV8/x7D56Q+546f0XmYbmLzwV1xj6fd33eJxuv3ygXWzqanZu2H5DlFJfdnPfJxsLiCvFuvcX6yWffnM+77rNY9UrNmerqGtvtl6zdf9vU1Xkv+2E/n3d97rINglHseDn/hlyIVhaFAAAgAElEQVQjmtoWrJ9+ebdW/KzAXL330VGviZNUX2sy90udMDQ902JtFN3fvT+360OpItXbHc0vvvK+nNVXFGXusg39UifUmsx3leot1sZnhr+d/tZcu6NZ1OJ0uca9Pf+Z4W9brI3qVO+/PYGnekez86WMmY8MeNlYW6c+rCzHpACpnlSPAAIIIIAAAloBPaT60+evbt11WJxdrw727Ub6wFP9t4dPqqe71UM9ESBlopZZXeTA3fuPLf9826WrRdeKysRLTICLi9X976uuxXtZZmwx9/7FV9kyAyiKoj7HvtFm/3TjLnkSvmiASBrexarX+Em/7fZLpPp226auznu5LXaXy/3N7sOaLotu7sg+Ik+gaOugtNUvn8Vev1HOXL33odGsiZNUf+ZC/n290rKyj8jui1lueQ/8dVuy5Un4deaGx9Iyps1ZI+5C5/Me+HJj9Rn4F68U/uaR56Z8uHJvznH5ypiySGysTvXttifAM/AVRZk4bQmpXh7W2F4g1WvHMbE660K/EEAAAQQQCFxAD6n+fF6BSPXqYB9IpA881X+14+DmrJxmZ8tJ9Zr/ZLqW6+WaZqdzc1aOvDRdvfDVjoNOl0tu6b2vXNPWgtxX1CLSrNy4tMKwZM3X8sr2A9+fFr9KiOD6ze7D/k+/F+W0lX4D6ZdI9YG0TbZZs+B0udpi91msWCkOk8SRZarXtN2vlnv+795/TO6lKEp1zS1x7wP1SpY1AnGS6nOOnL2vV9qZC3cucRcXibyUMVOm+mtFZT2Sh4mT8I+duti91+Bjpy4KK5/3wBc3wFcURZ3qRRTXPIJO/Hk497w61bfbngBTva3JMTQ9k1Sv+VTH6p+kelI9AggggAACCGgF9JDqvc+0P346zzvnyzvkqRcCvK5+c1ZOh1N9WztqZvXFCFIdPv2PKeWWPiNuZVXNsrVbZaovrTDMX76xuOzmrTrLkjVfX7xS6L9w8W7b6bfl1wr//fKT6jVta6sl6pSu2cZnl9XbSxy5o3pNW/2yO5q/+CqbVC/RAl+I21TvcrnT35orU704lf3FV963O5oz56x5LC2jztwgGAO/rl4TxTVHwX+q17RHU9TEaUvk2QHqYsVpBeprB9TvshxjAqR67Tgm8HkMtkQAAQQQQCBWBXSS6tXBfvveIwFG+sDn6r1PBS8uq1r66dabhlp1XBSDP7lGnH/+yWff1FusPseFckv5rvca+ZZmQW4ZyFnuIq8e+P70D5cL/LRHU0Vb6TeQfoXoDHzBXlZR3dYZ+CKTSxzZI/Watvrl8wz8wuIKzsCXjG0txEmqb/eMd0VRsrKP9Egelns677G0jLnLNkixwFO9qEW9ryxEzuqL3xHabU+AqV7cA3/Rqi3qiliOVQFSPakeAQQQQAABBLQC+kn1ItjfVaQPPNVrbtt2+7ZH3lheHRfFKFC9Rux48txlOUCsqq5dvPorcV6uekvvfeUuPhfU++ZdKZr3yUZ56zhxI3eRq+W+uafzVq/fueGbfbv2Hbt9+7Zc72ehrfQr7gI4d9kGP/2StQfStrba4Ie9rbvl5V0pavckCD/90twt7/Ztz85vj5Lq2zpAcn2cpHpzfcMTf309bdRUebe87IMnuvUcJOfqFUUprzT2emLU2EnzHvyvF9X3pAw81Yu75fUZOLbiplEIO12uN6cv7TNwbGmFQT1X3257Akn14nn1f+g3XH0fCnlkWYg9AVK9dhwTq7Mu9AsBBBBAAIHABXSV6tUz9qfPX1XfOU991r16OcAz8DXPUdu+9/u5yzaIy2vV6VqM/9RrxI5zl23Yvvf7/MLS709cWLz6q9Xrd9Y3tNxDW72l977+R5PqfdXPY7tyveTLr7+du2yDzNWinJuG2oUrN8u7xPsvXLzrJ/222y9ZeyBta6sxYl/5+Do1u+Ytn0+2U9+4Xs3lp19NdsfGbfvFk+2kJKm+rQMk18dJqlcURcR48cy5ucs2dO81uEtSijrVu1zu8e8s6PpQqrhlvSQKPNXLWnokD1uzfueWrIPPvfxe14dSV67L8ng86lQvt2yrPd6pvutDqaPfmD35g+Xi9d/D3uqSlCIfmydby0IMC5DqSfUIIIAAAgggoBXQW6qvMzcUFVeqc7v/5QBTvaIoTpfr++MXlqz5eu6yDcs/3yYnxtVxUQwENWvUO85fvnHXvmMNjXceHa/Z0mfOb2twqdnX0ew8ePTs/OUb5y7bsGn7Ae8n5Dmaneu37luxbntblwN4V+Qn/WpAvPslU724o5j/tnlXLdeo9dTsotjvT9w5IkvWfH3i7CWnyyV21OBoYP33q9Fm3/nt0XmftEju/PboxSuFpHp5ONpaiJ9U7/F4ck/n9U97tUtSSo/kYYtWbXlm+NvqVK8oyq59x7okpWhOaL+rVK8oytkf8p8dMVncJK/3U2N2fnvU7W45xUaT6v23xzvVa27C959/GvLK5PkFN+489rKt48v6WBIg1WvHMYHPY7AlAggggAACsSqgw1TvP8Zr3g081ettVOcdXP23UNxMTj7fzv/GvCsFrt8oX7hys8FokmtY8BaIn1Tv3XfvNQe+P/O7Ps9funrD+y3WIBBxAVI9qR4BBBBAAAEEtAKk+kgN0e42bVbcNH68aktx2c1INTgq6j149OwXX2VbG5tEa9U3UIiK9keqkdGS6m1299rdJWt3l9js7gCtrI1Ng0ZOyZiySDx2vt29nC7XuLfni9vgt7sxGyAQfgFSvXYcE6uzLvQLAQQQQACBwAVI9aEYk4l5dfXz7dXLHy3+YtWXWRu+CfR0+uKyqr05xxev/kr9LDr/VcxdtmFvzvFQdE2WGfEGyJaoF0orDPM+2bhuy968K0VXrpd8tePg3GUbTp27ot6GZW+BaEn13i1vd83ST7d26zlIczq9z70arLZZi78cNHJKt56Dvj100uc2rEQg4gKkelI9AggggAACCGgFIpjqi0qNplsWzRn1d/Wn6ZalqPTOXaYjPtLSNKDJ7rA2Nvl8XSssm71k/cKVm3+4XKDZy+efl64WzV224bPNe27VWdQb+KnC2thkdzSrNw7FcsQb4LNTZZXV67bsFT+jrNmw81pRWYCTtD5Li5OV/lN9UalRXBPeYQ23+3ak/ql2SUpJGzU1kEswzPUN/z3srW49By39dKu8xUOHu8yOCIRIgFSvHccEPo/BlggggAACCMSqQARTfXVtfXmVqcPB3nTLUl5lqq6tD9HIiWIRiB8B/6neaLJU11o6HOzd7tvVtRaj6Ue/ScWPLT1FILgCpHpSPQIIIIAAAghoBSKY6hVFqa6tLyo1FhQbOvAqKjUS6YM7WKS0uBXwn+oVRTGaWs6L6cC/04JiQ1GpkUgftx8tOh50AVK9dhwTq7Mu9AsBBBBAAIHABSKb6oM+3KFABBDogEC7qb4DZbILAgiEQoBUT6pHAAEEEEAAAa0AqT4Uoy7KRCC6BEj10XW8aG08C5DqteOYwOcx2BIBBBBAAIFYFSDVx/PokL4jIARI9XwSEIgWAVI9qR4BBBBAAAEEtAKk+mgZydFOBEInQKoPnS0lIxBcAVK9dhwTq7Mu9AsBBBBAAIHABUj1wR1vURoC0ShAqo/Go0ab41OAVE+qRwABBBBAAAGtAKk+PseF9BoBtQCpXq3BMgJ6FiDVa8cxgc9jsCUCCCCAAAKxKkCq1/PojbYhEB4BUn14nKkFgc4LkOpJ9QgggAACCCCgFSDVd36MRQkIRLsAqT7ajyDtjx8BUr12HBOrsy70CwEEEEAAgcAFSPXxMxakpwi0JUCqb0uG9QjoTYBUT6pHAAEEEEAAAa0AqV5vIzbag0D4BUj14TenRgQ6JkCq145jAp/HYEsEEEAAAQRiVYBU37FxFXshEEsCpPpYOpr0JbYFSPWkegQQQAABBBDQCpDqY3v8R+8QCESAVB+IEtsgoAcBUr12HBOrsy70CwEEEEAAgcAFSPV6GKXRBgQiK0Cqj6w/tSMQuACpnlSPAAIIIIAAAloBUn3gYym2RCBWBUj1sXpk6VfsCZDqteOYwOcx2BIBBBBAAIFYFSDVx96Yjx4hcLcCpPq7FWN7BCIlQKon1SOAAAIIIICAVoBUH6mRGfUioB8BUr1+jgUtQcC/AKleO46J1VkX+oUAAggggEDgAqR6/+Mn3kUgHgRI9fFwlOljbAiQ6kn1CCCAAAIIIKAVINXHxjiPXiDQGYGyipu8EEAgigTKK6s680/ez77/lDl7Rebs5X626ORbVUZz4DMPbIkAAggggAACgQiQ6js5PmF3BGJAgLn6GDiIdCFOBJir185OBDLWYRsEEEAAAQRiW4BUHycDQbqJgB8BUr0fHN5CQFcCpHpSPQIIIIAAAghoBUj1uhqu0RgEIiJAqo8IO5Ui0AEBUr12HBPbcy/0DgEEEEAAgUAESPUdGFSxCwIxJkCqj7EDSndiWIBUT6pHAAEEEEAAAa0AqT6GB390DYEABUj1AUKxGQIRFyDVa8cxgcxgsA0CCCCAAAKxLUCqj/gQjQYgEHEBUn3EDwENQCBAAVI9qR4BBBBAAAEEtAKk+gAHUmyGQAwLkOpj+ODStRgTINVrxzGxPfdC7xBAAAEEEAhEgFQfYwM+uoNABwRI9R1AYxcEIiJAqifVI4AAAggggIBWgFQfkWEZlSKgKwFSva4OB41BwI8AqV47jglkBoNtEEAAAQQQiG0BUr2fwRNvIRAnAqT6ODnQdDMGBEj1pHoEEEAAAQQQ0AqQ6mNgkEcXEOikAKm+k4DsjkDYBEj12nFMbM+90DsEEEAAAQQCESDVh20oRkUI6FaAVK/bQ0PDENAIkOpJ9QgggAACCCCgFSDVawZM/IlAHAqQ6uPwoNPlKBUg1WvHMYHMYLANAggggAACsS1Aqo/SgR3NRiCIAqT6IGJSFAIhFSDVk+oRQAABBBBAQCtAqg/p8IvCEYgKAVJ9VBwmGomAoiikeu04JrbnXugdAggggAACgQiQ6hkmIoAAqZ7PAALRIkCqJ9UjgAACCCCAgFaAVB8tIznaiUDoBNpN9UaTpajUWFBs6MCrqNRoNFlC13hKRiCuBEj12nFMIDMYbIMAAggggEBsC5Dq42o4SGcR8CngP9UbTZbqWovbfdvnvu2udLtvV9daCPbtQrEBAoEIkOpJ9QgggAACCCCgFSDVBzKKYhsEYlvAf6ovKjV2ONILN7f7dlGpMbYN6R0C4REg1WvHMbE990LvEEAAAQQQCESAVB+ecRi1IKBnAf+pvqDY0PnGB6WQzjeDEhCIdgFSPakeAQQQQAABBLQCpPpoH+HRfgQ6L6DDVH+ztmnx1sJ5m64H+Fq8tfBmbVPnKSgBAZ0LkOq145hAZjDYBgEEEEAAgdgWINXrfABH8xAIg4AOU/3VEsvQ6adSphwP8DV0+qmrJT7uyddos/919Ht/Hf1eo83uLSnenThtifdbmjUr1m3vkpTi/Xqg95BLV2/4r0VdlP8aNe9OnLakS1LK6i93qEtQFOXS1RsP9B6yYt12zXr+jAcBUj2pHgEEEEAAAQS0AqT6eBgF0kcE/AvoMNU7XbdNluZas0P9ul7W8LePzvztozPXyxrU62vNDpOl2enycT8//3lbk6L9KK1Yt73rQ6mj35g9+YPl6tf0uZ9W3DT6r0VdrP8aNe+KVN8jediVa8XqQkj1ao14WybVa8cxsT33Qu8QQAABBBAIRIBUH28jQvqLgLeADlO9dyMVRak1O0bNOjtq1tlas8PnBne7UpOi/ey+Yt12MS3vZ5tA3vJfo+Zdkeq7JKWMfO0ju6NZlk+qlxRxuECqJ9UjgAACCCCAgFaAVB+Hg0K6jIBGIIZTvcjJ8gx8j8eze3/uw4+P7JKU0i91wunzV/86+j1xBv6iVVs0ud3S0Pjfw956c/pSj8fjP9VralEUpeBGRdqoqeKM/WdHTD77Q74w1+R2P+1RFGXitCW9nhj17qxVXZJS1m/dJ4+aJtU7Xa51W7J7PzVGVJf02Eurv9zhdLkURRHVvf7e4t37c//4f0eIXp88d7neYs2Ysqhbz0Hdeg6aMW+tran1V5K2Wi5rZyGyAqR67TgmkBkMtkEAAQQQQCC2BUj1kR2fUTsCehCIn1S/fuu+LkkpA1+YlJV9JHPOmuSnxz38+EiR6jVRWVGUMxfyH+g95Lvj5xVFuatUn3PkbPdeg58cMnFL1sEtWQefHDKxW89B2QdPyJgtr+T30x6R6h8Z8HJRSWXaqKl/6Df8+o1y8WlRN9Xj8cxfvqlLUsrr7y3ete/YF19lP5oyXv4KIFL9A72HJD320pI1X3+2eU/P/iMffnxk/7RXR73+UVb2kfHvLOiSlLJo1RZRsp+W6+GDShsURSHVk+oRQAABBBBAQCtAqmeYiAACcZLqa03mfqkThqZnWqyN4qDv3p/b9aFUkbHtjuYXX3lfzuorijJ32YZ+qRNqTea7SvUWa+Mzw99Of2uuPGfe6XKNe3v+M8Pftlgb1XP1/tsjU72xtu7CpYIHeg+R5+GrU32dueHZEZMnf7Dc5XKLTpVXGns9MUp0Sqb6C5cKxLtZ2Ue6JKW8OX2pmMwX5yMMTc+0NTn8t5x/JjoRINVrxzGxPfdC7xBAAAEEEAhEgFSvk4EazUAgggJxkurPXMi/r1daVvYRSS0yrZw5X7clW56EX2dueCwtY9qcNR6PR6T6tm6AL2fgxS8CF68U/uaR56Z8uHJvznH5ypiySH23fFFju+2ZOG3JIwNeNtbWeTyeTz7bJmfg1ale9kUuiCSf/tZcl8stlgeNnGJtvPPYv5wjZ7skpXx76KTY3uPxZExZFEjLZfksRFaAVE+qRwABBBBAAAGtAKk+suMzakdADwJxkupzjpy9r1famQt3LnFXFMXR7HwpY6ZM9deKynokDxNPjDt26mL3XoOPnbooDpDPe+CLG+BrUr2Izd4/AXRJSjmce149V99ue2SqVxTFYm2U5+F7p3qny1VSXrU35/j7Cz4TZ+CLoC6qU5+AIJqXc+Ss/OBNnLZEbOC/5XJ7FiIrQKrXjmMCmcFgGwQQQAABBGJbgFQf2fEZtSOgB4G4TfUulzv9rbky1YuQ/+Ir79sdzZlz1jyWllFnbhAHKPDr6r1js/oQ+0/1mvaoU72iKPI8fHHBv/j1wePxfPFVdvdeg7skpXTvNfjRlPGTP1ie/PS4Dqd6deBXt5xlnQiQ6kn1CCCAAAIIIKAVINXrZKBGMxCIoECcpPp2z3hXFCUr+0iP5GG5p/MeS8uYu2yDPCiBp3pRi3pfWYic1b/bM/BFCfI8/InTljzQe4hI9eL8gnFvzzfX3/kBQlxW0IFU77/l6l6wHEEBUr12HBPbcy/0DgEEEEAAgUAESPURHJxRNQI6EYiTVG+ub3jir6+njZoq75aXffBEt56D5Fy9oijiVnNjJ8178L9ePJ93XR6gwFO9uOdcn4FjK24axe5Ol+vN6Uv7DBxbWmFQz9W32x7NXL08D1+c3i9SvTg1QF4nryhK7um87r0GdyDV+2+5pGAhsgKkelI9AggggAACCGgFSPWRHZ9ROwJ6EIiTVK8oiojx4plzc5dtECeuq1O9y+Ue/86Crg+lilvWy6MTeKqXtfRIHrZm/c4tWQefe/m9rg+lrlyX5fF41KlebtlWe7xTvTwPv0tSikj112+U/6HfcFHXrn3HJk5b0r3X4G49B3Ug1cv2+Gy5pGAhsgKkeu04JpAZDLZBAAEEEEAgtgVI9ZEdn1E7AnoQiJ9U7/F4ck/n9U97tUtSSo/kYYtWbXlm+NvqVK8oyq59x9SPcBcH6K5SvaIoZ3/If3bEZDGp3vupMTu/Pep239acga8oiv/2+Ez18gH1ItUrinLy3GXRo249Bw0e9e7fH2I3bc7qXk+MKq803tXd8kRP22q5Hj6otIHn1RPpEUAAAQQQQMCHAKmeYSICCMRPqg/kWB/4/szv+jx/6eqNQDZmGwTCLMBcvY+hTGxPv9A7BBBAAAEE2hUg1Yd5QEZ1COhQIFpSvc3uXru7ZO3uEpvdHSCjtbFp0MgpGVMWicfOt7uX0+Ua9/Z8cRv8djdmAwTCL0CqJ9UjgAACCCCAgFaAVB/+MRk1IqA3gWhJ9R1wW/rp1m49By1ataXdfRustlmLvxw0ckq3noPUN59rd0c2QCCcAqR67Tim3ekLNkAAAQQQQCDmBUj14RyNURcC+hTwn+qLSo3imvAON97tvl1UeueG8B0upGM7dklKSRs11WA0tbu7ub7hv4e91a3noKWfbnW6XO1uzwYIRESAVE+qRwABBBBAAAGtAKk+IsMyKkVAVwL+U73RZKmutXQ42Lvdt6trLUaTRVddpjEIRKkAqV47jon56Rc6iAACCCCAQLsCpPooHdjRbASCKOA/1SuKYjRZikqNBcWGDryKSo1E+iAeLIqKcwFSPakeAQQQQAABBLQCpPo4HyDSfQTks7KgQAAB/QuQ6rXjmHanL9gAAQQQQACBmBcg1et/DEcLEQi1QLtz9aFuAOUjgECAAqR6Uj0CCCCAAAIIaAVI9QEOpNgMgRgWINXH8MGlazEmQKrXjmNifvqFDiKAAAIIINCuAKk+xgZ8dAeBDgiQ6juAxi4IRESAVE+qRwABBBBAAAGtAKk+IsMyKkVAVwKkel0dDhqDgB8BUr12HNPu9AUbIIAAAgggEPMCpHo/gyfeQiBOBEj1cXKg6WYMCJDqSfUIIIAAAgggoBUg1cfAII8uINBJAVJ9JwHZHYGwCZDqteOYmJ9+oYMIIIAAAgi0K0CqD9tQjIoQ0K0AqV63h4aGIaARINWT6hFAAAEEEEBAK0Cq1wyY+BOBOBQg1cfhQafLUSpAqteOY9qdvmADBBBAAAEEYl6AVB+lAzuajUAQBUj1QcSkKARCKkCqJ9UjgAACCCCAgFaAVB/S4ReFIxAVAqT6qDhMNBIBRVFI9dpxTMxPv9BBBBBAAAEE2hUg1TNMRAABUj2fAQSiRYBUT6pHAAEEEEAAAa0AqT5aRnK0E4HQCZDqQ2dLyQgEV4BUrx3HtDt9wQYIIIAAAgjEvACpPrjjLUpDIBoFSPXReNRoc3wKkOpJ9QgggAACCCCgFSDVx+e4kF4joBYg1as1WEZAzwKkeu04JuanX+ggAggggAAC7QqQ6vU8eqNtCIRHgFQfHmdqQaDzAqR6Uj0CCCCAAAIIaAVI9Z0fY1ECAtEuQKqP9iNI++NHgFSvHce0O33BBggggAACCMS8AKk+fsaC9BSBtgTKKm7yQgCBKBIor6xq659zJ9f/U+bsFZmzl3eyFD+7VxnNMT+0ooMIIIAAAgiEWYBU72fswVsIxIkAc/VxcqDpZgwIMFfPXD0CCCCAAAIIaAVI9TEwyKMLCHRSgFTfSUB2RyBsAqR67TgmzJMhVIcAAggggIAOBUj1YRuKURECuhUg1ev20NAwBDQCpHpSPQIIIIAAAghoBUj1mgETfyIQhwKk+jg86HQ5SgVI9dpxjA4nTGgSAggggAACYRYg1UfpwI5mIxBEAVJ9EDEpCoGQCpDqSfUIIIAAAgggoBUg1Yd0+EXhCESFAKk+Kg4TjURAURRSvXYcE+bJEKpDAAEEEEBAhwKkeoaJCCBAquczgEC0CJDqSfUIIIAAAgggoBUg1UfLSI52IhA6AVJ96GwpGYHgCpDqteMYHU6Y0CQEEEAAAQTCLECqD+54i9IQiEYBUn00HjXaHJ8CpHpSPQIIIIAAAghoBUj18TkupNcIqAVI9WoNlhHQswCpXjuOCfNkCNUhgAACCCCgQwFSvZ5Hb7QNgfAIkOrD40wtCHRegFRPqkcAAQQQQAABrQCpvvNjLEpAINoFSPXRfgRpf/wIkOq14xgdTpjQJAQQQAABBMIsQKqPn7EgPUWgLQFSfVsyrEdAbwKkelI9AggggAACCGgFSPV6G7HRHgTCL0CqD785NSLQMQFSvXYcE+bJEKpDAAEEEEBAhwKk+o6Nq9gLgVgSINXH0tGkL7EtQKon1SOAAAIIIICAVoBUH9vjP3qHQCACpPpAlNgGAT0IkOq14xgdTpjQJAQQQAABBMIsQKrXwyiNNiAQWYF2U73RZCkqNRYUGzrwKio1Gk2WyHaQ2hGIGQFSPakeAQQQQAABBLQCpPqYGerREQQ6LOA/1RtNlupai9t9u2Plu923q2stBPuO6bEXAhoBUr12HBPmyRCqQwABBBBAQIcCpHrNgIk/EYhDAf+pvqjU2OFILzDd7ttFpcY4hKXLCARdgFRPqkcAAQQQQAABrQCpPuhDLgpEIOoE/Kf6gmJD53vUmUI8riZH/hcN2Wn13/Sp39q75fVNn4a9qfYrazyups63jRIQiCIBUr12HKPDCROahAACCCCAQJgFSPVRNJijqQiESEDPqb65aJtl1wCZ5Bu/G9f43biGvaki4Vt2DWgu2hYiFopFQIcCpHpSPQIIIIAAAghoBUj1Ohy00SQEwiyg01TvuW2/vLIlvW/razs13WM3qVk8dpPt1PT6bX3rv+ljv7xS8XTwsn91me0uN9rsfx393sRpS9rdUlEUg9E0Y97aWpO53Y1XrNveJSmlrdfEaUtyjpztkpSSc+Rsu0WxQcwLkOq145gwT4ZQHQIIIIAAAjoUINXH/BCQDiLQroA+U33zje312/padv3FVZXbVhdcVbmWXX+p/6aPo2BLW9sEcf1dpfoV67Y/MuBlY21duw04nHt+8gfLxWvYuOldklKGjZsu12zJOkiqb9cwfjYg1ZPqEUAAAQQQQEArQKqPn7EgPUWgLQEdpvrbDWUNe1MtWf2aS7NFsz32W9aDoxqyB7vri9QdaS7NtmT1a9iberuhTL0+FMshSvXqphLg1RosewuQ6rXjGB1OmNAkBBBAAAEEwixAqvceM7EGgXgT0GGqt19aUb/1T7bTM+SxuN1U0/DtXy07n3Sbr8uVYqHp3Oz6rWZLfTQAACAASURBVH+yX1qhWa8oincOV68Ry6+/t3j3/tw//t8RXZJS+qe9mns6z+PxiKI8Hs/u/bkPPz6yS1JKv9QJp89fVZ+B73S51m3J7v3UGHHyfNJjL63+cofT5VIUZeK0JfKMennGfsGNirRRU8X6Z0dMPvtDvneDfaZ69cqcI2cf6D0k58iZcW/P75KU0q3noBnz1lobm3KOnJHtPHnusizZ7mheuS6rR/KwLkkpPZKHzVr8pa3JId9lIeoESPWkegQQQAABBBDQCpDqo25IR4MRCLqA3lK9x2235rxk2fmEq+a87KyfVO+qOW/Z+YR1/wueZovcXiyoM7z3GvHuA72H9EgeNnfZhi1ZB/unvdqt56AD358RG6/fuq9LUsrAFyZlZR/JnLMm+elxDz8+UqR0j8czf/mmLkkpr7+3eNe+Y198lf1oyvguSSnrt+5TFOXCpYKMKYt6JA/btP3AhUsFiqLkHDnbvdfgJ4dM3JJ1cEvWwSeHTOzWc1D2wROaBqsDvHxLvTLnyNmuD6X2SB42bNz0rbsOj39nQZeklMGj3k167KU163d+tnlPz/4jez0xqryy5VGCjTb7iAkfdO81OHPOmr05xzPnrOnea/DQ9EyLtVEWzkJ0CZDqteOYME+GUB0CCCCAAAI6FCDVR9d4jtYiEAoBvaV6d32hZddfrDkvedx22V8/qf7OrwC7/uKuL5Tbi4VAUr06XZvrGwa+MOmZ4W9brI21JnO/1AnqDLx7f27Xh1JFqq8zNzw7YvLkD5a7XG5RV3mlsdcTo+TMvPq6eou18Znhb6e/NdfuaBYbO12ucW/PFxWp26wO8HK9eqVYfnP6UnFSgKWh8b+HvfVA7yHitwNFUbKyj3RJSjmc2/KDyK59x37zyHO5p/NkUafPX/3NI8/t2ndMrmEhugRI9aR6BBBAAAEEENAKkOqjazxHaxEIhYDeUr2r5pxlR3/r4THqzvpJ9X8/4916eIxlR39XzTn1LgGegf/X0e812lp/Plixbvvv+jx/taD0zIX8+3qlZWUfkWWKCC1zu1wvFsQvCOlvzRU5X53qL14p/M0jz035cOXenOPylTFl0QO9h1y6ekNdjjrAy/XqlWL520Mn1ZUOGjnF2tgk1oi6co6c9Xg8GVMWPfz4yK93HpKVbtp+oEfysLa6IGtkQbcCpHrtOEaHEyY0CQEEEEAAgTALkOp1O3SjYQiETSCKUn3Lg+tVL3nhfWdSvSbiygidc+Tsfb3Szlxovfrd0ex8KWOmenuny1VSXrU35/j7Cz4TZ+DL3wjUqV6UKa+0Vy+ISXV5rGXtco04e18+2U6zgfgpQVaqKMqlqzf+ceH9WfGWui65PDQ9U10+y1EkQKon1SOAAAIIIICAVoBUH0WDOZqKQIgE9JbqfZ6BL+6Bb9n5hPrVdH6eoiidPANfndJlhD6ce9471btc7vS35ortPR7PF19ld+81uEtSSvdegx9NGT/5g+XJT4+TAds71QfywHlNaBdHXL1SvSxPRpCVeqd69Vsh+vxQbDgFSPXacUyYJ0OoDgEEEEAAAR0KkOrDORqjLgT0KaC3VO/zbnl+6O7cLe/H1+GL7cV89UsZMx3NTrGm1mTuM3CsSObe7yqKsmLd9gf/68XC4gr/Z+BfKyrrkTxs3NvzzfUNomRxfr5M0epUL4qau2yDn16ItzSh3XulZgM/c/XiN4ie/UeWVVa3Wy8bRIsAqZ5UjwACCCCAAAJaAVJ9tIzkaCcCoRPQW6pXFMX7yXZ+uu/nyXbinPl+qRNqTWZRgvqOdyISq281V2Oqeywt48VX3rc7ms31DU/89fW0UVPlHeOzD57o1nOQ+EVApGt5fbuiKLmn87r3Guwz1Yu75fUZOLbiZsut6RVFcbpcb05f2mfg2NIKg1gj/q8J7d4rNRv4SfXibnldklI++WybfFbfhUsFPZKHLVy5WV0py1EkQKrXjmN0OGFCkxBAAAEEEAizAKk+igZzNBWBEAnoMNXfbihr2JtqyerXXJrtv9fNpdmWrH4Ne1NvN5T53FI8nW7ImGni6XS9nhjV+6kx6rl68SD3JWu+3rhtf/LT43okD/vhcsuz6BRFETFePI5u7rIN4nx7se/1G+V/6De8R/KwNet37tp3bOK0Jd17De7Wc5BM9Ru+2df1odQPP/5C3J1eFCW235J18LmX3+v6UOrKdVkyb4saNaHde6VmA/+p3mJtHJqe2SUpZdTrH+3ad+yjxV/0SB7W95lXKqtqRMn8P+oESPWkegQQQAABBBDQCpDqo25IR4MRCLqADlO9oijNN7bXb+tr2fUXV1VuW112VeVadv2l/ps+joItbW3jdLlWf7mjR/KwLkkp/dNePXnu8sRpS9SpPm3U1BXrtosN0kZNLbhRIYvyeDy5p/P6p70qkv+iVVueGf622FdRlJPnLou3uvUcNHjUu39P79PmrJbPijcYTWmjpnZJShmanmlrciiKcvaH/GdHTBa3rOv91Jid3x51u2/LusSCJrR7r9Rs4D/VK4pia3LMWvyl6F33XoPHv7PAYDRpKuXPKBIg1WvHMWGeDKE6BBBAAAEEdChAqo+iwRxNRSBEAvpM9Yrntv3yyvpv+tRv62s7Nd1j/1EW9dhNtlPT67f1rf+mj/3ySsWjjceBWHlH4kD2YhsEIihAqifVI4AAAggggIBWgFQfwcEZVSOgEwGdpvp/6DQXbbPsGtDyNLtv+jTsTW38blzjd+Ma9qa2pP2tvS27BjQXbeswI6m+w3TsGCkBUr12HKPDCROahAACCCCAQJgFSPWRGplRLwL6EdBzqm95cJ2ryZH/RUN2mkjydxJ+dpoj/wuPq6kzjKT6zuixb0QESPWkegQQQAABBBDQCpDqIzIso1IEdCXgP9UXlRq9L/++q/a73beLSu/c+/2udgz1xqT6UAtTftAFSPXacUyYJ0OoDgEEEEAAAR0KkOqDPuSiQASiTsB/qjeaLNW1lg4He7f7dnWtxWiyRB0LDUZAhwKkelI9AggggAACCGgFSPU6HLTRJATCLOA/1SuKYjRZikqNBcWGDryKSo1E+jAfUKqLYQFSvXYco8MJE5qEAAIIIIBAmAVI9TE8+KNrCAQo0G6qD7AcNkMAgVALkOpJ9QgggAACCCCgFSDVh3oERvkI6F+AVK//Y0QLERACpHrtOCbMkyFUhwACCCCAgA4FSPWMFBFAgFTPZwCBaBEg1ZPqEUAAAQQQQEArQKqPlpEc7UQgdAKk+tDZUjICwRUg1WvHMTqcMKFJCCCAAAIIhFmAVB/c8RalIRCNAqT6aDxqtDk+BUj1pHoEEEAAAQQQ0AqQ6uNzXEivEVALkOrVGiwjoGcBUr12HBPmyRCqQwABBBBAQIcCpHo9j95oGwLhESDVh8eZWhDovACpnlSPAAIIIIAAAloBUn3nx1iUgEC0C5Dqo/0I0v74ESDVa8cxOpwwoUkIIIAAAgiEWYBUHz9jQXqKQFsCpPq2ZFiPgN4ESPWkegQQQAABBBDQCpDq9TZioz0IhF+AVB9+c2pEoGMCpHrtOCbMkyFUhwACCCCAgA4FSPUdG1exFwKxJECqj6WjSV9iW4BUT6pHAAEEEEAAAa0AqT62x3/0DoFABEj1gSixDQJ6ECDVa8cxOpwwoUkIIIAAAgiEWYBUr4dRGm1AILICpPrI+lM7AoELkOpJ9QgggAACCCCgFSDVBz6WYksEYlWAVB+rR5Z+xZ4AqV47jgnzZAjVIYAAAgggoEOBkKb6yqrq2BtR0SMEYk+AVB97x5QexaqA+Ncauq/Xf8qcvSJz9vLQ8VUZzTocDNEkBBBAAAEEologpKneXG9xuVyhGxtQMgIIBEWAVB8URgpBIAwCZRU3XS6Xud4SorpCnuoNNWa7g/l2BBBAAAEEEAiagN3hNtSYQzQyEMXWh2zkEdJmUzgCcSVAqo+rw01no1qgrOJmSL9YQ57qjbUWu8MV1fMhNB4BBBBAAAFdCdgdLmNtqH7vl8Mmi9VqrL1VVnGTFwIIIIAAAgh0WMBYe6vOEtpv7ZCnerPFZm1q1tVgiMYggAACCCAQ1QLWpmazxSbjNwsIIIAAAgggEM8CIU/1jmZX7S2rwxm00w6jehxG4xFAAAEEEOisgNPd8sXazHXv8Tx+o+8IIIAAAgi0CoQ81SuKYjJbGxodnR3ENPO7AAIIIIAAAgi4GxodJrO19ZucJQQQQAABBBCIb4FwpHqns+WmPja7k2CPAAIIIIAAAp0RsNmdhhqz0+mO79ELvUcAAQQQQACBVoFwpHpFURzNLkONuWXGnlPxOekAAQQQQACBDgg4W2bpDTVmzr1vHcWwhAACCCCAAAKKEqZUryiK0+k2ma21t6zWpma7w8Xj7jozV8O+CCCAAAJxImB3uO0Ol7WpufaW1WS2MkvP4A0BBBBAAAEENALhS/WiYkezy2yxGWsthhpzlZEXAggggAACCPgTMNSYjbUWs8XGFL1mBMOfCCCAAAIIICAEwp3qcUcAAQQQQAABBBBAAAEEEEAAgWAJkOqDJUk5CCCAAAIIIIAAAggggAACCIRbgFQfbnHqQwABBBBAAAEEEEAAAQQQQCBYAqT6YElSDgIIIIAAAggggAACCCCAAALhFiDVh1uc+hBAAAEEEEAAAQQQQAABBBAIlgCpPliSlIMAAggggAACCCCAAAIIIIBAuAVI9eEWpz4EEEAAAQQQQAABBBBAAAEEgiVAqg+WJOUggAACCCCAAAIIIIAAAgggEG4BUn24xakPAQQQQAABBBBAAAEEEEAAgWAJkOqDJUk5CCCAAAIIIIAAAggggAACCIRbgFQfbnHqQwABBBBAAAEEEEAAAQQQQCBYAqT6YElSDgIIIIAAAggggAACCCCAAALhFiDVh1uc+hBAAAEEEEAAAQQQQAABBBAIlgCpPliSlIMAAggggAACCCCAAAIIIIBAuAVI9eEWpz4EEEAAAQQQQAABBBBAAAEEgiVAqg+WJOUggAACCCCAAAIIIIAAAgggEG4BUn24xakPAQQQQAABBBBAAAEEEEAAgWAJkOqDJUk5CCCAAAIIIIAAAggggAACCIRbgFQfbnHqQwABBBBAAAEEEEAAAQQQQCBYAqT6YElSDgIIIIAAAggggAACCCCAAALhFiDVh1uc+hBAAAEEEEAAAQQQQAABBBAIlgCpPliSlIMAAggggAACCCCAAAIIIIBAuAVI9eEWpz4EEEAAAQQQQAABBBBAAAEEgiVAqg+WJOUggAACCCAQIwJbjyoPZ7S8th6NkR7RDQQQQAABBGJYgFQfwweXriGAAAIIINARgYczlPteank9nNGR3eU+F68U/uHRF//lPx7/88B0S0OjXK9ZWP3ljvt6pQ0bN73RZq+3WKd+tHLspHkXrxQqinLxSuHYSfMmTltcWmHQ7KX5s6ik8oHezyUkJj/Y9wVjbZ3mXfmn0+Uy1tYZjCb/L2NtndPlknuxgAACCCCAgJ4FSPV6Pjq0DQEEEEAAgQgIiEgv/h949afPX9225zv1a92WvV0fSklITP5Ft34LV25Wv7Vtz3enz18Vhc/7ZGNCYvJjaRnWxiaD0dS9V1pCYvKeA7mKouw5kJuQmHzP/f3P511Xt+Ry/o2kx166r1eafHXrmfrTe/smJCYnJCb/6vdPy/X39Up7NGV8jcksdj+fd/2e+/uLzfz837tGde0sI4AAAgggoCsBUr2uDgeNQQABBBBAIPICHUv1I1/70E9O9n5r5Gsfiq52MtX/vGu/n97bt1vPVJnkf/X7pxMSk//1d0+JNaT6yH+kaAECCCCAQCgFSPWh1KVsBBBAAAEEolCgM6n+3x8cOHrirLGT5rX1Gj1x1r8/ODAhMXnkax+WVhgmTlv8f/4yOiEx+d8fHDhhysITZy+3NVfvdt8+8N1pzZn8+w+f+lnXR396b9/te7+X0otWbUlITP551345R87IlWJBztWLcwE07/o5O8B7S9YggAACCCCgEwFSvU4OBM1AAAEEEEBALwKdSfXiRHrRE2tj02NpGfLses3Kka99KDO2mMm/5/7+ew7k+kz15y5em798U0Ji8thJ88pvVottvOf/21rTvVeawWhSFEXWKFJ9o80+bNz0+3qlvTVjmWheW+f86+XY0A4EEEAAAQS8BEj1XiSsQAABBBBAIL4FOpbqFUXZd/ikeopeTst7T+DvO3xSURQ/c/UDhr4xcdriJWu+FtfVT/5gubhs/sG+L+QXlIg76qnr8r889aOV9Rard6qXvzvIywFI9fH92af3CCCAQFQKhDzV83ScqPxc0GgEEEAAgTgW6HCqF1fItzVhrl4/75ONEtjndfUizGfOXaPe63d9ni+rrBY7itvj+w/z4l1xO32xl2auXt6cT7aHVC+PCwsIIIAAAtEiEPJU3+Gn44jvXXETWo/Hc6vO4uchNHZHs6Io4t656s0abfYak1m9Ri5rHlqz//CpPw9M/2zTbnnBnsVqG/f2vF/9/unUv73TZHe0e0TzC0v/rcdT//Ifjz/38nvWxqZ2t2cDBBBAAAEE9CnQyVTf9aGUvKtFBqOpqKSyz8CxCYnJfQaOLSqpNBhNeVeLxF3xZYpWFEWm+sqqmvKbRnF2/b/+7qmkx1768ON1MtU/MuDlyqoaKSbid0JicpekFHmfPPVCl6SW2+/L2+mLHTWpvris6t4/PpuQmPzxqq/EBqR6KcwCAggggEC0CIQ81Xd4ZKBO9fIEOfnVrlkQV8d5TxGs/nJHW5feaR5a8/p7ixMSk9UP1PV4PK9OXSSex3Py3GXvI6o5z3DA0DdEqx7q/5Jm6kCcZ+hdAmsQQAABBBDQoUCHv7vFF3Hgqd7pchUWV8ib57d1XX1CYnK/1AnVNbfUViJ+y7rkr/ZyQf6CoL4xnibV557O+1nXRxMSk+U3NalejcwyAggggEBUCMRgqv95137y5/m1G3eJVK9+dK14V53qzfUNjwx4OSEx+cnnXm/3MbZyR+8fETS/Ncg/1TMSUfGxoJEIIIAAAvEs0MlUL7/+/CyIb8azP+T/c/fWp8e3lerlN6/6oMi5ej+1iLf8pHr5Vf6r3z8tHoBHqlcjs4wAAgggEBUCekz1l/NvJD32knjYbEJi8q9+/3Ty0+OuFpReuVb8wcLPr1wrlj/D7zt88hfd+smf2MV388jXPhQnw3frmSoekKMZDYiL6NQrxU/1v+jWb+mnW+821cuzCmWr1AtDxkxLSEwm1UfFPwYaiQACCCAgBDqZ6n/Rrd/w8e+PnTTP+255w8e/L764xTejnDlPSEz+Q7/hV6+XVFbViJ/jRRRXZ+x6izX74Al5oZx4qzNz9bfqLL2fGiN/FBD3yVfXyOcBAQQQQACBqBDQY6pXf8eL79ruvdK+2nHwZ10fVUdxRVE2bT+QkJj8bz2eyi8slRfmjXztQ7H+uZffq/jH5Xk/+XXftFFT5VnxYkihLkqcfv9oyviGRlvgh038iPDTe/t265mqvpBPvfzzri0/OpDqA1dlSwQQQACBiAt0MtXLx8jJC+jk4+40d6erMzccP3Ppg4Wfy6ffyQ28U734yV5+fYv4LTO5nwX1XL246/7YSfMuXCoQj8pLSEz+ya/7JiQmi2bfNNRu2/Pd1zsPGWvrIn4gaAACCCCAAAKBCOgx1YtvXHGZugjkUz9aefV6yf3/e3BCYvKa9TtFx+R1748MeNlc3yBT/d9e/XD0xFkJicmbth+QgwPvL3s5LDDW1j3Y9wU5nvA/SpB7yepI9YF8ztgGAQQQQCCKBDqZ6r2/c73XqH/vFr+Si+Qvv7j3HMj1eDw7vz0qboZ/Pu+6+oY7Lpf7WlFZZVVNcVnV2o27ln669dT5K29OX/qTX/ed+tHKyqoaed5cZVVNjcmswXe7by/9dKt4VF6/1AnPDH9bpnqx5Z4DuT/v2m/YuOnFZVWaffkTAQQQQAABvQnoMdULI/EdL1O0y+V+4ZUZCYnJTw17U9yRXqbx199brN7l8cGvPdj3hXv/+GxxWZUYHPys66PzPtm4bc934rV2465f/naALPmrHQfFaEOMJ+421XMGvt4+07QHAQQQQKCTAhFM9WJCPiExefj493v2/5t4sp34yj549OxPft1XzKhfuVb8y98O6NYzdf/hU+KM/d37cxet2pKQmPyzro8e+P7MmDdmf7Z5z5ETPzz8+Mhf/nbAD5cLpEllVc3gUe+Kr/5f/nbAmQv54nZ98hQDRVHWrN8pf02QO7KAAAIIIICAPgV0muqb7I6nhr0pvpsHvjBJPGlWxO9fdOsn7kgv/vxZ10dzT+cJXPFDwH/+aci//u4p8T0tUv0/d+9/4LvT8md7cVNcMUSQJwfKuXq7o1lu6b2gfh6eqM57/sF7jXpGQp+fA1qFAAIIIICAFOhwql/95Y77eqWJ286JJ84+lpYhv2EVRakxmR9NGX9fr7TVX+6Q1c1esl5us3Hbfvk1+rOuj745fak4Q37monWjXv8oITH5kQEv15kt0+d+KnYpLK4QqT4r+4jH41n1Rda+wyeLSirFnXFXfZHVL3VCQmLysyMm25rsVwtK//bqh7L8f39woBhRpL85JyEx+Ze/HZB7Os9gNOUXloq91DlftpYFBBBAAAEE9Cag01R/8txlcTcd8dX77w8OPHfxmpycf+GVGeb6Bs1AQZ4SP/K1D8Wv9c+OmHyj9Kb4spdf4XJBpPoTZ1srYq5eb59O2oMAAgggEBGBDqd6TWvlT+fyunrNBnJmXjyGxtLQKAJ2QmLyT+/tO+aN2YeOnfu3Hk/J7+6ExORXpy4qq6y+r1daQmLyVzsOmm7V/+HRF8UG4sH18jk43XqmlpRX5Rw589N7+/7q90/v/+707/o8L4tKfnpcaYVBtEfMzMu35MLTL06yO5o1beZPBBBAAAEE9Cagx1Tvcrnll/pPft1XXE7/2z8PrayqWf75NvFNn/q3d8SX7lc7DkpTMXk+8rUPRf7/WddHv955SKT6f/3dnTGBfMTdb/88NO9qUXFZ1b1/fFbcJkeMOS5eKZT31fNemDhtsRwEiOq4rl76s4AAAgggEBsCYUv16ky+duMuRVGKSip/1+f5mYvWWawt96/1eDxf7zz0n38akpCY/C//8fhLGTPrzC130rl+o3z2kvXWxiZFUXZ+e1T9eDwxPPjV758Wj6B3udw7vz0qStu9P1ck/C1ZOW73bXmwLA2Nw8ZNl2FeLPRLnVBwo0JuwwICCCCAAAK6FdBjqj99/ur/+7/+r/hOvef+/oeOnRs9cZY4Cb/GZP5Dv+Hye3fA0DfEN7rwlane5XI/9/J7CYnJb81Y1r1X2j339//+xAUxt7/8822KohzOPf/7/3rxzIV8c31D2qip4u56ItXnF5bKK/C9F3btOybGE/LUANkYPwucga/bfwA0DAEEEEDAWyBYqd7lcn9/4sK2Pd99f+KCy+X2rsjj8dyqsxiMpnqL1fvdoK9xudxXr5c4Xa6gl0yBCCCAAAIIRFBAj6n+pqH2/v89+D//NMT7UXaKony146CYWv/n7v1PnL2sthOpfsiYafmFpX8emJ6QmPzaux+LVH8+77qY53+g93OT3l8mbnv7UP+Xyiqri8uqxI4i1YvltiK6vMeex+MpuFFRWVVTWVWTd7XofN71kvIqcUPd//OX0deKysQ1+eU3jYtWbdl/+JS6nSwjgAACCCCgZ4GHMxQR7B/O0HMzaRsCCCCAAAIItAjoMdW7XO4xb8xe/eWOe+7vL1O0OFz5haUP9H5ORu5+qROqa27JIykC+QO9n/sfv3lSbCPn6kXq7tYzVe47eNS7lVU1Yl/vVP+Lbv2Gj39ffQa+eNKebI84yf+fu/f/bPMecZL/ngO54uK9hMTksZPmWRubXC73q1MXJSQm935qzK06i2wnCwgggAACCOhZYOtR5eGMltfWo3puJm1DAAEEEEAAgRYBPaZ6RVHKKqvPXbymTvVu9+3NWTn33N9fxPL/p8t/iYX7eqWd/SFfHEwRzh8f/JpI/n/oN/zkuctyrl5RlA8Wfi72enbEZPXJft6p3vu2t+KJdzLV796fm5CY3K1n6omzLVUkJCaLJ+vOX77pl78dsDfn+LQ5qwePevfA92fEbXvUN/vlo4cAAggggAACCCCAAAIIIIBAUAR0muoVRTmfd12m+qsFpX0GjpXT7POXb7ppqBVPnRErM6YurDM3iHD+wiszvj9x4ejJi06XK+9q0f/4zZM/+XXfPgPH/st/PH7P/f3FHXcSEpP/5wNPLlixqdFml1fIq8/A9z9X73S5hqZnijvx3jTUilQvrthvsjvqzA21JvMjA15OSEx+fmzmlA9XJCQm//bPQytuGoNyzCgEAQQQQAABBBBAAAEEEEAAASEQBan+wPdnej81RqT3e+7vv3t/rsfjURSlztzw19Hvyrn3JrtDpPqRr30oj+6sxV/K3wISEpO790q7VlQ2ZMw0sVLEeJ+pXr2XelnM1ReVVD7Q+7lfdOt38txl9f171VuKe/XnHDlTVFL5WFpGzpEz6tvtyhaygAACCCCAAAIIIIAAAggggECHBaIg1Z/Pu55z5MzPuj6qvhJedNjpci1YsenePz57Pu+6DOfqVC8m/H96b9/HB7+2Zv3OG6U33e7bbvftLVk5LY+u/f9vYud9Bv4vfztg7cZd6nvgiyl3eQa+2337cv4NcR/dfYdP/s8H7lzJL4P9z7v2W7BiEzfa7fBHkx0RQAABBBBAAAEEEEAAAQTaFdBvqq8zN+zad0w8Sc7pcpVWGMQUvXeXmp0u8ZZ4KN3p81flNn6eYeN235YFih3Fc3fE8r7DJ5vsDlmOoig3DbXb9nynfrKd+l2WEUAAAQQQQAABBBBAAAEEEAi/QMhTPU/HCf9BpUYEEEAAAQQQQAABBBBAAIE4EQh5qufpOHHySaKbCCCAAAIIIIAAAgggnHBtwgAAIABJREFUgAAC4RcIeaoPf5eoEQEEEEAAAQQQQAABBBBAAIE4ESDVx8mBppsIIIAAAggggAACCCCAAAIxKECqj8GDSpcQQAABBBBAAAEEEEAAAQTiRIBUHycHmm4igAACCCCAAAIIIIAAAgjEoACpPgYPKl1CAAEEEEAAAQQQQAABBBCIEwFSfZwcaLqJAAIIIIAAAggggAACCCAQgwKk+hg8qHQJAQQQQAABBBBAAAEEEEAgTgRI9XFyoOkmAggggAACCCCAAAIIIIBADAqQ6mPwoNIlBBBAAAEEgijQaHNU19QXl9cUllQXFBt4IYAAAggggIAfgcKS6uLymuqa+kabI4hfx36KItX7weEtBBBAAAEE4lrA7nBWVN0qqzSZ6hqtNoej2c0LAQQQQAABBNoVsNocprrGskpTRdUtu8MZ6sEEqT7UwpSPAAIIIIBAVAo02hyFJdWmusZ2xy5sgAACCCCAAAI+BUx1jYUl1aGetCfVR+VIi0YjgAACCCAQUgG7w1lYUl3f0ORzjMJKBBBAAAEEEAhQoL6hqbCkOqQz9qT6kA6KKBwBBBBAAIGoFKiousUsfYDDNTZDAAEEEEDAv4CprrGi6lboBgSk+tDZUjICCCCAAAJRKdBoc5RVmvwPUHgXAQQQQAABBAIXKKs0he48fFJ9VI63aDQCCCCAAAKhE6iuqWeiPvCBGlsigAACCCDQroCprrG6pj5E393hTvWOZpfZYjPWWgw15iojLwQQQAABBBDwJ2CoMRtrLWaLzdHsCtFQwLvY4vIa7njf7viMDRBAAAEEEAhcwGpzFJfXeH/nBmVN+FK90+k2ma21t6wWq91mbw68/2yJAAIIIIBAPAvY7M0Wq732ltVktjqd7qB8/fsvpLCkOp7B6TsCCCCAAAKhECgsqfb//dvhd8OU6h3NLkON2WK1h0KHMhFAAAEEEIgHAYvVbqgxh2HSvqDYEA+e9BEBBBBAAIFwChQUGzqc2/3vGI5U73S6DTVmzuUL5yeGuhBAAAEEYlLAanMYasyhnrEn1cfkh4dOIYAAAghEViC6U73J3HLWfWQFqR0BBBBAAIHYELBY7Saz1f9v9p18l1QfGx8VeoEAAgggoCuBKE71jmZX7S2rrjRpDAIIIIAAAlEt8I8v1hDePI9UH9UfDxqPAAIIIKBPgShO9WaLjYl6fX6qaBUCCCCAQJQKWKx2s8XWyQl5P7uT6qP0g0GzEUAAAQT0LBDFqd5Ya+GO93r+bNE2BBBAAIGoE7DZm421Fj+xvJNvkeqj7iNBgxFAAAEE9C8Qxan+H3frdeufmBYigAACCCAQRQKGGnMno7uf3Un1UfRJoKkIIIAAAtEiEMWpvspojhZl2okAAggggEC0CFQZSfXMGSCAAAIIIBBNAqT6aDpa0TIipJ0IIIAAAtErQKqP3mNHyxFAAAEE4lOAVE+qRwABBBBAAIFWAVJ9fI4I6TUCCCCAQPQKkOpbxzHRexRpOQIIIIAAAsESINUHS5JyEEAAAQQQCI8AqZ5UjwACCCCAAAKtAqT68IzAqAUBBBBAAIFgCZDqW8cxwTKlHAQQQAABBKJXgFQfvceOliOAAAIIxKcAqZ5UjwACCCCAAAKtAqT6+BwR0msEEEAAgegVINW3jmOi9yjScgQQQAABBIIlQKoPliTlIIAAAgggEB4BUj2pHgEEEEAAAQRaBUj14RmBUQsCCCCAAALBEiDVt45jgmVKOQgggAACCESvAKk+eo8dLUcAAQQQiE8BUj2pHgEEEEAAAQRaBUj18TkipNcIIIAAAtErQKpvHcdE71Gk5QgggAACCARLgFQfLEnKQQABBBBAIDwCpHpSPQIIIIAAAgi0CpDqwzMCoxYEEEAAAQSCJUCqbx3HBMuUchBAAAEEEIheAVJ99B47Wo4AAgggEJ8CpHpSPQIIIIAAAgi0CpDq43NESK8RQAABBKJXgFTfOo6J3qNIyxFAAAEEEAiWAKk+WJKUgwACCCCAQHgESPWkegQQQAABBBBoFSDVh2cERi0IIIAAAggES4BU3zqOCZZpPJdjaXReKDDvO2nYcbRy30nDhQKzpdEZzyD0HQEEEIg6AVJ91B0yGowAAgggEOcCpHpSfRAE7A73lWLL5JV5g949kTLluPo16N0Tf19/pdhidwShojj/50r3EUAAgTAIkOrDgEwVCCCAAAIIBFGAVE/U7KyAuaF5webrqVN/FObVwT5lyvFB755YuKXA3NAcxM8uRSGAAAIIhEKAVB8KVcpEAAEEEEAgdAKket+Ztr6hacb8z4amZ86Y/1l9Q5PPA9Bkdx49mXfmh+ve7y5bu83PvteKykdkzByRMfNaUbnd4aq91WCsrW/rZbU5HM3u+oYmzQYWq72tHWtMFltTmM57N9U73vrkoibDt/XnW59cNNW3dEdXr6zso/c9nFZWadRVq2gMAgggECkBUn2k5KkXAQQQQACBjgmQ6n0nzEBS/abtOUPTM19+Y05xmaGguHLVFzvka8I7i8Rbn6zdJldmZR8VEV2d6mVFQ9Mzfb5Onst3NLu37z2qeTf70Knx7yzUrBR/it8LOvaBuKu9rDbnnA3X2srwPtdPWX3JYg3oFwfxw4e6PaY6a79BE2YtWa9eKZdPnsu/5/7+CYnJ7b40GV6m+rJK430Pp7W1u9wrK/uoepv7Hk47df5aWztmZR+VLWQBAQQQiAoBUn1UHCYaiQACCCCAgBQg1bek+qLSm5NmLH/lnQXyNW7ygufHTh+anvn82OnjJreuf+WdBZNmLC8qvelodhuM5onTlgxNz/xg0brvj1/0GbDVK+W0f4dT/QuvzEifNE+Uue+7MyLVj3lzrmy2eDdsqf7rQ+X+T7x/ffGF+Zt+dHJ+6tTjXx8ql5+/thZEwNZE4nZT/f96OE38CCKK9bm9zPCyavUan/U6mt2zlqxXp3q5PGvJ+r//+uBzL58rZaUsIIAAAroVINXr9tDQMAQQQAABBHwKkOpbUr2I2eoE7mdZnZlzT195fuz0URNnXS0oU58Pv2DF5qHpme/NXlN+s0aeOW+1OcTPB2PenCvKH/Pm3GlzPi0uM9wordqy49CN0iq58Zkfrr84/v2h6ZniDH8xV79s7baS8urRb8weN3nB5eul499ZqG6Mo9ltrK33XunzwHd+ZZmhcfSccz4n5MXK52ecyiusb7K7Pt9Tog7/o+ecKzM0+m+ASNoT3lmknhX3uXzP/f1Fkj95Lr/zqV78EKD5NcHR7B6RMbPfoAmmOquj2S1/BZC5XS6oO+VzpXoDlhFAAAF9CpDq9XlcaBUCCCCAAAJtCZDqf5TqP1i0Tpww/8nabS+/MUdzFv0Hi9YNTc9UB2lbkzP39GWzxdbuifRD0zNPnsv3/vlg/DsLj5y4+MIrM9TFOprd3+X+MDQ9c/Qbs0vKq+UZ+MvWbhPrF6zYbKiuG//OwufHTp+3fJM8yX/xmq9fHP++pqi2jn0n1+8+dtNPpH95zrkDp6unrLpUUtVod7i/yC5VB/vdx1pOdmjr5XOO3dHsbmu9KOduU73PM/azso+OyJipOclf1DsiY6aoSKb6rOyjIuqLAO/zRwfvHwja6jXrEUAAAZ0IkOp1ciBoBgIIIIAAAgEKkOp/lOrl+dsypcvT5h3N7pPn8jWpXiprbnrX1lz9TYNp7cY94tcBEci/3LqvuMwgzqX/9vBpUaDd4VqzYdfQ9MwpH668ZW6Z1hZz9UvXfvPJP+7D913uD2Ja3uc5BWFI9bYmV+anl9tK9S/POVdU2TKtfa2s4Z1Vl66VNWguv8/89LKtySX1NAve+VxsENxULysdkTFTnlEvTraXAV5sI/K/zOcy1cv873Na3udKWSkLCCCAgG4FSPW6PTQ0DAEEEEAAAZ8CpPofpfovt+7PPX059/Tlw8cuTJy2dGh65sRpSw8fuyBWfrl1v0z16ln3jdtyxA3zfWZsuVKGbRHR5Z+2JufHq78emp754cdfNDTaHc3uGpNFXLG/duMecdjELjMWfDZx2pL0SfMqDSaR6l94Zcb2vUdF83JPX9733ZlRE2fJkn0e8qCsrK2zT1h0wWeqHz377LWyBllLQbl19Oyz6on6lCnHJyy6UFvX0lOfrxEZM+V59SMyZvqcAxcr5WbiN5cO3C1PZG91qpehXbYtK/uouiKxQVb20Ycee0ncOd9ngPe5UpbJAgIIIKBbAVK9bg8NDUMAAQQQQMCnAKn+R6leJnA/CyIzq1P9lh2HsrKPytPg21pYu3HPTYOpodH+4cdfDE3PfOGVGR8t/rKguNLR7D5youVmey+Of//ytRL55wuvzMjLLxaHTaT6V6d+PGriLHEZv0j1wyfMPHuxQF6NX1hyc+zb88OQ6m/W2EZ+dNY71b848/QPBWb5UbPanKt2FGsifcqU4yM/OnuzxiY3Uy+IO8zLFK2+E76Yq5dz5popfc2fbZ2xrwnt6hvaiyl673LUF9XL6+pF1BeN8Rngfa5U95RlBBBAQJ8CpHp9HhdahQACCCCAQFsCpPofpfpRE2eJ+8n7vAf+qImz5Fy9qc565MRFMZ+/fW/L08uyD52S96L3Xpg+d23trZYZ7MvXSsRt8MQPBy+/MedaUYWcnP949de3zI1i5l998r9I9cvWbtvx7bGh6Zmzl66vqKqN4JPtfKb6F94/fUEV6b0vp5e/ArSV6kVuf3fWannfu1CnelH+fQ+niZQ+ImOm5jx/Ec7VV9rL3wXkjfHFNj7PKZC/QbT1L5D1CCCAgN4ESPV6OyK0BwEEEEAAAf8CpPofpfq7uq5eXnsvUr0I3t5PwhuRMXNoeub4dxYaa+ttTc4Vn2eJPP/82Okilr/27mKD0bw356R4kN6cZRvEBkdOXJQHT6Z6kf9feGXG0ZN5YnfxW8PQ9Ez5iLvX3l1cWOLvdnSy2A4veJ+BP3T6qfPX62SBfiK9nzPwT57Ln/DOIvVs+V2dgS9/CxDN0ORzsVJm8r/f2b6s0thv0ITln20XZ+CXVRofeuylk+fy1dvI6C67Jt+Vs/FyQd1yuVLuyAICCCAQFQKk+qg4TDQSAQQQQAABKUCq/1GqP3T0vDibvfxmzXuz12ieTnfo6Hk5V+9odvtM9err8MXl7ovXtFwzL1L91YKyF8d/IEL7iIyZFy4VfbJ2mzgJv/ZWw5vTl4m3hqZnfrBoXX1DkzxOMtXbmpziVnyfb94rHmJ38coNMbe/N+eko9n9w+Ubb2QuvVpQJvcNxYL33fLeXHaxztIs6rI73Ou/LRv07gk5Oa9ZCMrd8tQRWlxXf7epXjxtXqZ0CSUC+d/flQvyLXkGflmlUf5qIAO8XCO3l3fUk2tYQAABBHQuQKrX+QGieQgggAACCGgESPU/SvUyVPtZkFet+0z1be0oUr3B2PI4ulenfuz9KDtxOf3zY6cPTc8cPmHm5eul6kMlUv2CFZtLyqvfnbV6aHrmpxt3y0fTi3n+jCmL1m3JFiVMmvGJsbZeXULQlzVPtntn1SVLo9PR7LY73Jtyyga/12akT5ly3P+T7dRxXZ2TZXj22Rf1FfI+T4aXK/3MzMuSxRR9v0ET1DfSE++qfwUQJ/CrGybfFSv7DZogTwCRhbOAAAII6FmAVK/no0PbEEAAAQQQ8BYg1Qch1a/6Ysf2vUe37v5OM7cvpv03bT8o5+rFGfjZh06JNHitqFwekpLy6owpi+SPAtPnrlXHcpHqM6Ys+ttrH4lt5Fz9taLySkPtuMkL5L7zlm8yGFtvWSerCO5CmaFx9JxzchI+89MrhRXWvcerZq676j/Sj55zrszQ8ri+tl6aVL/8s+0Jicn3PZw24Z1F3hlbFuJ9qrz6FwG5mUzd4mx/9dy73EbeaS8hMdn7wnhZgixfnerFSvELgvpqfHXhLCOAAAJ6FiDV6/no0DYEEEAAAQS8BUj1P0r1HTsDf2h65oz5n23cliNztfeCmKt3NLurDLeuFVWoU32T3fn98Yvi8vuh6ZnDxs0Qu7/yzoL8wjuxX6T6GQs+E8n/zenLLl8rkXP1jmb3lh2HxF6zl64Xj7j3PthBX/P1oXLv+9vLnO9zIXXq8a8Ptf6W4bNJ6lQvNpBR2U9O1typXiZzzS4yk8uqvdf8/ZJ7eT1/v0ETTHVWubH4FcB72l/cb09spnm+vXpflhFAAAH9C5Dq9X+MaCECCCCAAAJqAVK97xljeXa9+kb0ajhHs9tssU2fu1Zk6cw5n67/puVp9v6vqxcliKfiiTP5i8sM4gJ+Uc72vUcMxjpZbMuZ9ht2m+qsItV/vPrri1duXLx6w9bkLCy5+bfXPnp+7PT3Zq8RvxG8OvVjUcjfXvsoK/uoxdrmA+E1Henwn1abc86Gaz7Te1srP/j8qtXWcqK+n5cm1fs8tV4zhS6CtCbAy7l0dV3eGV6zRky8i1l6sSwfsyfK0Wwv7ronUr2oMSv7qM/2qJvBMgIIIKBbAVK9bg8NDUMAAQQQQMCnAKned7wMJNUXld4U959/f+Hnxtr6O9Pp8z+rb2i6ZW78cuu+tRv3ZB88Je6BN33uWrPlzhPaZao/d7Fw6kerRBQfkTHz5Ll8u8MlJpnnr9gk1s9eur6h0S4KX7Z2mzyK4oR/sY04w7+0wihupCfOHVDfbE/uFfQFU71j8sq8tjK8Zv3klXmmeke7bRCpPufouX6DJiQkJnvPlovMLCbMReQekTHT++T8DqR6MUWvqXHWkvXqZninenV75M8NYqWmqHb7zgYIIIBAxAVI9RE/BDQAAQQQQACBuxIg1Xc81dsdru17jyxbu03MiqtTvbxTvUzdu/bnygMjU/21ovLzeYUvvDLD+0p4W5MzK/to+qR54tp771QvCnl+7PQZCz779vDpiqraJrtTnMw/5s25Zy8WyOpCvWCxOpd8U+jnjvcpU44PevfEwi0F5oY7N8kPbpPkDLmmWHWql2fUJyQma6b0RUo/df7afQ+ntRXCRVHiFwTvVH/leulDj70k87y6GSMyZmqm+tXvsowAAgjoUIBUr8ODQpMQQAABBBDwI0Cq953qbU3Oi1du5J6+fPFKy+nubQnaHa4m+5136xuajLX1tbcaxHz7LXOjuFuesbZeM21uqrOeOHv1xNmrpjqrrcl502ASu3jX0mhrFm+VlFfnnr6sfl6drclZXGbw2bYmu7OtAr2rCNaa/NKGySvzvLP9oHdPTF6Zl1/aEKyKKAcBBBBAIKQCpPqQ8lI4AggggAACQRcg1ftO9UGHjpMCLY3OCwXmfScNO45W7jtpuFBgFo+7i5Pu000EEEAgBgRI9TFwEOkCAggggEBcCZDqSfUIIIAAAggg0CpAqo+rgSCdRQABBBCIAQFSfes4JgYOJ11AAAEEEECgkwKk+k4CsjsCCCCAAAJhFiDVk+oRQAABBBBAoFWAVB/moRjVIYAAAggg0EkBUn3rOKaTlOyOAAIIIIBADAiQ6mPgINIFBBBAAIG4EiDVk+oRQAABBBBAoFWAVB9XA0E6iwACCCAQAwKk+tZxTAwcTrqAAAIIIIBAJwVI9Z0EZHcEEEAAAQTCLECqJ9UjgAACCCCAQKsAqT7MQzGqQwABBBBAoJMCpPrWcUwnKdkdAQQQQACBGBAg1cfAQaQLCCCAAAJxJUCqJ9UjgAACCCCAQKsAqT6uBoJ0FgEEEEAgBgRI9a3jmBg4nHQBAQQQQACBTgqQ6jsJyO4IIIAAAgiEWYBUT6pHAAEEEEAAgVYBUn2Yh2JUhwACCCCAQCcFSPWt45hOUrI7AggggAACMSBAqo+Bg0gXEEAAAQTiSoBUT6pHAAEEEEAAgVYBUn1cDQTpLAIIIIBADAiQ6lvHMTFwOOkCAggggAACnRQg1XcSkN0RQAABBBAIswCpnlSPAAIIIIAAAq0CpPowD8WoDgEEEEAAgU4KkOpbxzGdpGR3BBBAAAEEYkCAVB8DB5EuIIAAAgjElQCpnlSPAAIIIIAAAq0CpPq4GgjSWQQQQACBGBCI4lRvqDHHwAGgCwgggAACCOhKwFBjVkL2X2FJta46S2MQQAABBBCIAYHCkuoQfXX/U+bsFZmzl4eodEVRjLUWm705Bo4BXUAAAQQQQEAnAjZ7s7HWErrv7uLyGqvNoZPO0gwEEEAAAQRiQMBqcxSX14Touzvkqd5ssVms9hg4DHQBAQQQQAABnQhYrHazxRaikYGiKNU19aa6Rp10lmYggAACCCAQAwKmusbqmvoQfXeHPNU7ml21t6wxcBjoAgIIIIAAAjoR+McXqytEIwNFURptjrJKk046SzMQQAABBBCIAYGySlOjzRGi7+6Qp3pFUUxmK9P1MfBBpAsIIIAAAnoQsFjtJrM1RMMCWWxF1S2m6/VwuGkDAggggEAMCJjqGiuqbskv2aAvhCPVO51uQ42ZK/Ri4ONIFxBAAAEEIitgtTkMNWan0x30AYGmQLvDWVhSXd/QFNn+UjsCCCCAAALRLlDf0FRYUm13ODVftUH8MxypXlEUR7PLUGNmxj7aP5G0HwEEEEAgggIWq/0fT5YJ4bn36hFGo81RWFLNjH0EjzhVI4AAAghEu4CprrGwpDp0596LL+4wpXpFUZxOt8lsrb3VcjY+d8WP9k8n7UcAAQQQCJuAzd5ssdprb1lNZmsYZunVwd7ucFZU3SqrNJnqGjnnLmxHnIoQQAABBKJdwGpzmOoayypNFVW3QjpLH+5UL+pzNLvMFpux1mKoMVcZeSGAAAIIIICAPwFDjdlYazFbbI7mME3Rq1O9WG60Oapr6ovLawpLqguKDbwQQAABBBBAwI9AYUl1cXlNdU19qKfo5Vd2+ObqZZUsIIAAAggggAACCCCAAAIIIIBAUARI9UFhpBAEEEAAAQQQQAABBBBAAAEEIiBAqo8AOlUigAACCCCAAAIIIIAAAgggEBQBUn1QGCkEAQQQQAABBBBAAAEEEEAAgQgIkOojgE6VCCCAAAIIIIAAAggggAACCARFgFQfFEYKQQABBBBAAAEEEEAAAQQQQCACAqT6CKBTJQIIIIAAAggggAACCCCAAAJBESDVB4WRQhBAAAEEEEAAAQQQQAABBBCIgACpPgLoVIkAAggggAACCCCAAAIIIIBAUARI9UFhpBAEEEAAAQQQQAABBBBAAAEEIiBAqo8AOlUigAACCCCAAAIIIIAAAgggEBQBUn1QGCkEAQQQQAABBBBAAAEEEEAAgQgIkOojgE6VCCCAAAIIIIAAAggggAACCARFgFQfFEYKQQABBBBAAAEEEEAAAQQQQCACAqT6CKBTJQIIIIAAAggggAACCCCAAAJBESDVB4WRQhBAAAEEEEAAAQQQQAABBBCIgACpPgLoVIkAAggggAACCCCAAAIIIIBAUARI9UFhpBAEEEAAAQQQQAABBBBAAAEEIiBAqo8AOlUigAACCCCAAAIIIIAAAgggEBQBUn1QGCkEAQQQQAABBBBAAAEEEEAAgQgIkOojgE6VCCCAAAIIIIAAAggggAACCARFgFQfFEYKQQABBBBAAAEEEEAAAQQQQCACAqT6CKBTJQIIIIAAAggggAACCCCAAAJBESDVB4WRQhBAAAEEEEAAAQQQQAABBBCIgACpPgLoVIkAAggggAACCCCAAAIIIIBAUARI9UFhpBAEEEAAAQQQQAABBBBAAAEEIiBAqo8AOlUigAACCCCAAAIIIIAAAgggEBQBUn1QGCkEAQQQQAABBBBAAAEEEEAAgQgIkOojgE6VCCCAAAIIIIAAAggggAACCARFgFQfFEYKQQABBBBAAAEEEEAAAQQQQCACAndSfUGxgRcCCCCAAAIIIIAAAggggAACCESXAHP1EfgphSoRQAABBBBAAAEEEEAAAQQQCIoAqT4ojBSCAAIIIIAAAggggAACCCCAQAQESPURQKdKBBBAAAEEEEAAAQQQQAABBIIiQKoPCiOFIIAAAggggAACCCCAAAIIIBABAVJ9BNCpEgEEEEAAAQQQQAABBBBAAIGgCJDqg8JIIQgggAACCCCAAAIIIIAAAghEQIBUHwF0qkQAAQQQQAABBBBAAAEEEEAgKAKk+qAwUggCCCCAAAIIIIAAAggggAACERAg1UcAnSoRQAABBBBAAAEEEEAAAQQQCIoAqT4ojBSCAAIIIIAAAggggAACCCCAQAQESPURQKdKBBBAAAEEEEAAAQQQQAABBIIiQKoPCiOFIIAAAggggAACCCCAAAIIIBABAVJ9BNCpEgEEEEAAAQQQQAABBBBAAIGgCJDqg8JIIQgggAACCCCAAAIIIIAAAghEQIBUHwF0qkQAAQQQQAABBBBAAAEEEEAgKAKk+qAwUggCCCCAAAIIIIAAAgj8f+3dz2tU1wIHcP8VF4J0J7iqXbpq3bmxBTciCi4rBVca+0CMdtMqGs1KaF9FClJ5EAoptFlICz54rW2gBhvyXiQxhhAwGoww93U4cry9k/mRM/dOZiYfCXLv3HPOPedzZxbfOefeIUCAwDYISPXbgO6UBAgQIECAAAECBAgQIECgFAGpvhRGjRAgQIAAAQIECBAgQIAAgW0QkOq3Ad0pCRAgQIAAAQIECBCoSGBldW1ufnlmdvHRnwtD/Dczuzg3v7yyulYW4/hEdvBMtvd4tueYv3IE9h6vk45PlHWJmrYj1TelcYAAAQIECBAgQIAAgQES2Nh4PTe/vLC0+nL9Va1WG6CeJ3S1Vqu9XH+1sLQ6N7+8sfE6oYVYZe5pPXzuO1VOlPWlQEFg36k679zT6F3+hlRfvqkWCRAgQIAAAQIECBDovUC5c9e973/aGcPahLS6odbBM/J85QIHz3RzidrUlerbADlMgAABAgQIECBAgED/C6ysri0srfZ/P6vo4cLSavJS/PEJs/SVR/o9x+rI1S3Fl+qr+FhpkwABAgQIECBAgACBngrMzS+/XH/V01P2zclerr+am19O646J+sIu/yeqAAAMW0lEQVSC+ep2q5uul+rT3vxqESBAgAABAgQIECDQRwIzs4tDfy99M+5arTYzu9jsaOvXPR6vuhhfaHnv8daXIv2oVJ9upyYBAgQIECBAgAABAn0i8OjPhT7pybZ0I3n4heRpt1KBit4bUn1FsJolQIAAAQIECBAgQKB3AsmxtnddrPJMycOvNMRqvCBQ0VtAqq8IVrMECBAgQIAAAQIECPROIDnW9q6LVZ4pefiF2Gm3UoGK3gJSfUWwmiVAgAABAgQIECBAoHcCybG2d12s8kzJw680xGq8IFDRW0CqrwhWswQIECBAgAABAgQI9E4gOdb2rotVnil5+IXYabdSgYreAlJ9RbCaJUCAAAECBAgQIECgdwLJsbZ3XazyTMnDrzTEarwgUNFbQKqvCFazBAgQIECAAAECBAj0TiA51nbTxcmpB0dOnF17sd5NI6XUTR5+IXZ2s3v0cjbzJPtkPNtSI1fvZf9dyo5eblXr/nS2uNKmzJ5j2dV72dp6/f8tdSAUPnq5for70yl1Oz9dKde6sRGpvtHEKwQIECBAgAABAgQIDJhAcqwtjHPtxfqRE2d37z8c/46cOPv02Up48fS5K7H82K27u/cfjqn+4fTjd977KNZquzE59SA21f1G8vA7T6RtS34yXg/VM0/qwTiE5Bbjiin9wu1s5fmbWs1OUVaqb/G9g1Tf4mI5RIAAAQIECBAgQIAAgcoFkmNt656N3bobc/vk1IOQ1SenHpw+d2X3/sNjt+7G6iHVd5LVQzudlIyNt91IHn6zIJ32etvZ8qv3so3X9b/8jHp4scU8eVmpPnyDsLZeX1AQTtoaNn71kKbRWKv16ZKPmqtPplORAAECBAgQIECAAIF+EUiOtY0DCNP1IXXnU32WZXEm/533Pno4/ThfV6oPIXbmyd9Wy9+frk/gh2X5M0/qYJum95DbL9yuF279Lybt0FrrwuFoWD4QuhcWFMRGYvA2V9+JpDIECBAgQIAAAQIECBCoSqDEVP/02cqBQydDqj997kp+1X2YZn/3gxNhsX1+vl2qDwm5cJ/8hdv1GB/+5dN1jNOdbGw6Vz/zpLhuf9OVApsWC3fyx441e1PemSr5NvtmJ+rydXP1XQKqToAAAQIECBAgQIDA9guUm+rf//DjMBUfU33I8/kp+rAIP67Pz6f6sF24tT7WHeIV+PmI3jozxwn8fJU9x+qz+jNPig/GKzfVF84Yds3Vb/9nWA8IECBAgAABAgQIENjJAiWm+ofTj9/94MTD6cdhvf3YrbvhwXj5u+gDdUjv4fVCqg8txCsS28yybChTfVjZHsYbprjzUbyQme9MvVmW31gr3PpeWKWfbypm8k0n4RufgR+L5W+kb5yEL/QwnqXcjfh+KHfDXH25nlojQIAAAQIECBAgQGAbBMpN9e9/+PHTZysx1YfxxHn7sDs59eDAoZNPn62E3R2e6kP6DSm981TfWGvPsSxm/piom6X6Dt9n+ZX/oYf/+rl+83/bf4Wn+sX+JG+0PWNaAak+zU0tAgQIECBAgAABAgT6SKDEVB/m0vPr58Ns/OTUg7iKPsuyQsiX6sP6+bX1eizfc+zt7fSbvkvyK/Dz3wXEX8XLR/FmqT5fptnv1ce5+k2/QUjO52kVN6Xo/kWpvntDLRAgQIAAAQIECBAgsM0CJab6/Ejy0/VhOzw8L5/hQ/n8K/n19vFoXJM/lCvwGzNzPooX1rcXZuMLqb4xn+ebinG6ENcba4WShWL5c4Xt/OXObxe+Mojn7WYj336J21J9iZiaIkCAAAECBAgQIEBgewR6kOrDLfFhuv70uSvxOXlhwFJ941x9/AG5rab6Pcfqz8yLd79XmurjWfJxvfBdQP5QN9sVfTak+opgNUuAAAECBAgQIECAQO8Eyk314fF4u/cf/uzaP4+cOJt/Tl549P3u/YfzP2uXZVkh1Yefvssv44+r93fOXH2Ly99iBX5jbG6W6lu0nz+Un3U3V5+XsU2AAAECBAgQIECAAIF+ESgr1YdwHtL46XNXwqr7fIAPv2ZfmKhvTPVxvX0Ayq/J3zmpvpu5+ny2n3lSf7jd0ct/+/X4xun0Tn6vvjHVm6vvl8+wfhAgQIAAAQIECBAgsJMFykr1BcOQ4WOqD7sh8xeCfX6uvtBIYVeqb3tffVzMH+g6fBb9pqk+/+1AbPbOVH15//f/qf/AXrN/+Rn+QiPJu83O1eXrVuB3Cag6AQIECBAgQIAAAQLbL9CDVB+W5Ydfs4tT+jHwS/Xh5vksq98Sv2nujQWyrP6E/FAm/ox842z8po20eLHzVJ9l9cn/C7frqd5c/fZ/evWAAAECBAgQIECAAAECFaX6sVt3Dxw6+eU338U1+ZE6LM4Pr4/duhtzfnil7f/x64DYYDcbycNvEZK3dCgk9hiVO4zoIdIvrmSfjNdjdodz8s061kmqD2cM3zvkV+MX2mxc3l8okLbbzSVuUddcfQschwgQIECAAAECBAgQGAyB5Fi76fDi0/J27z/85TffHTh0MkzRNxZ+OP34xOmLay/Wd/hc/dV72crzejgPcff+dCNV8ZWQ4f8987bWnalimcb9/GP2CtG6k1R/f/rtUoJCqg+78YybzuEXzrjV3dh4uRtSfbmeWiNAgAABAgQIECBAYBsEyk312zCA7k6ZPPyt5lLluxHo7iI3rS3VN6VxgAABAgQIECBAgACBQRFIjrWDMsDW/UwefjcZVd2tCrS+iMlHpfpkOhUJECBAgAABAgQIEOgXgeRY2y8D6K4fycPfai5VvhuB7i5y09pSfVMaBwgQIECAAAECBAgQGBSB5Fg7KANs3c/k4XeTUdXdqkDri5h8VKpPplORAAECBAgQIECAAIF+EUiOtf0ygO76kTz8reZS5bsR6O4iN60dUv1Y0+MOECBAgAABAgQIECBAoO8FkmNt34+sow4mD7+bjKruVgU6upZbLyTVb91MDQIECBAgQIAAAQIE+kwgOdb22TgSu5M8/K3mUuW7EUi8uu2qSfXthBwnQIAAAQIECBAgQKDvBWZmF2u1Wt93s5IO1mq1mdnFtKb3Hn/zC/PdhFV1OxHYezztErWvJdW3N1KCAAECBAgQIECAAIE+F5ibX365/qrPO1lR916uv5qbX05r/OAZqb5HAgfPpF2i9rWk+vZGShAgQIAAAQIECBAg0OcCK6trC0urfd7Jirq3sLS6srqW1vj4RLbvVI9ibScT2sNaZt+pbHwi7RK1ryXVtzdSggABAgQIECBAgACB/heYm19ODrf9P7pmPVxZXUueqA9tmq7vwVcJ1U3UZ1km1Tf7dHidAAECBAgQIECAAIFBEtjYeD03v7ywtPpy/dXQ32Nfq9Verr9aWFqdm1/e2HjdzXWae5odPGPGvqoFC/tO1XnnnnZzidrUlerbADlMgAABAgQIECBAgMAACYS565nZxUd/Lgzx38zsYrlrE8Yn6uHTw/NKnLffe7xOWt3C+/iplOojhQ0CBAgQIECAAAECBAgQIDBgAlL9gF0w3SVAgAABAgQIECBAgAABAlFAqo8UNggQIECAAAECBAgQIECAwIAJSPUDdsF0lwABAgQIECBAgAABAgQIRIFd5y/dGBkdi/s2CBAgQIAAAQIECBAgQIAAgUER2PXp5ZtS/aBcLf0kQIAAAQIECBAgQIAAAQJ5gTepfuh/zjE/ZtsECBAgQIAAAQIECBAgQGA4BN6k+ufPXwzHeIyCAAECBAgQIECAAAECBAjsHIE3qf7x7P92zpiNlAABAgQIECBAgAABAgQIDIdAPdWfv3Tj+x9/Ho7xGAUBAgQIECBAgAABAgQIENg5Am9S/Rc3v945YzZSAgQIECBAgAABAgQIECAwHAJvUv3I6Nivvz8ajiEZBQECBAgQIECAAAECBAgQ2AkCv/7+aNenn42HRfhf3Pzak/B3wlU3RgIECBAgQIAAAQIECBAYAoFarfbFza/fpvqR0evfTvwwBAMzBAIECBAgQIAAAQIECBAgMPQC3078MDJ6PZ/qx0ZGr0/++NPQj9wACRAgQIAAAQIECBAgQIDAQAtM/vjTX5F+ZHRs1z8+G4+L8EdGr5+9eO3biR8sxR/oq6vzBAgQIECAAAECBAgQIDCsArVa7a/YfvbitZHR6+cv3Sik+vp0/dmL1z6/8dUvv/0xrATGRYAAAQIECBAgQIAAAQIEBlHgl9/++PzGVyHSj4yOnb904/8Q/QBELt1YQAAAAABJRU5ErkJggg==;" vertex="1" parent="1">
          <mxGeometry x="734" y="35" width="401.28" height="270" as="geometry" />
        </mxCell>
      </root>
    </mxGraphModel>
  </diagram>
</mxfile>
